{"glyphs":{" ":{"ha":278,"x_min":0,"x_max":0,"o":""}," ":{"ha":278,"x_min":0,"x_max":0,"o":""},"A":{"ha":744,"x_min":0,"x_max":0,"o":"m 75 0 l 510 0 b 553 43 533 0 553 19 l 553 82 b 510 125 553 106 533 125 l 207 125 b 185 154 192 125 181 138 l 340 740 b 310 793 347 764 332 788 l 272 803 b 219 774 250 808 225 796 l 29 58 b 75 0 21 28 43 0 z m 78 71 l 254 743 b 281 758 257 754 269 761 b 294 733 290 756 297 743 l 138 142 b 183 83 129 111 151 83 l 490 83 b 511 63 501 83 511 74 b 490 42 511 51 501 42 l 100 42 b 78 71 85 42 74 54 z m 344 961 b 371 947 349 950 360 944 l 411 957 b 436 943 421 960 433 954 l 671 68 b 656 43 674 57 667 46 b 631 57 646 40 633 46 l 401 911 b 376 925 399 921 388 928 b 361 900 365 922 358 911 l 596 28 b 647 -3 601 6 625 -8 l 686 7 b 715 60 708 13 721 38 l 465 997 b 440 1008 463 1008 451 1011 l 360 988 b 344 961 349 985 342 972 z "},"Á":{"ha":744,"x_min":0,"x_max":0,"o":"m 75 0 l 510 0 b 553 43 533 0 553 19 l 553 82 b 510 125 553 106 533 125 l 207 125 b 185 154 192 125 181 138 l 340 740 b 310 793 347 764 332 788 l 272 803 b 219 774 250 808 225 796 l 29 58 b 75 0 21 28 43 0 z m 78 71 l 254 743 b 281 758 257 754 269 761 b 294 733 290 756 297 743 l 138 142 b 183 83 129 111 151 83 l 490 83 b 511 63 501 83 511 74 b 490 42 511 51 501 42 l 100 42 b 78 71 85 42 74 54 z m 282 1165 b 303 1108 272 1143 282 1118 l 339 1092 b 396 1113 360 1082 386 1090 l 461 1256 b 440 1313 471 1278 461 1303 l 404 1329 b 347 1308 383 1339 357 1331 z m 329 1165 l 376 1274 b 404 1283 381 1283 394 1288 b 414 1256 414 1279 418 1265 l 367 1147 b 339 1138 363 1138 349 1133 b 329 1165 329 1142 325 1156 z m 344 961 b 371 947 349 950 360 944 l 411 957 b 436 943 421 960 433 954 l 671 68 b 656 43 674 57 667 46 b 631 57 646 40 633 46 l 401 911 b 376 925 399 921 388 928 b 361 900 365 922 358 911 l 596 28 b 647 -3 601 6 625 -8 l 686 7 b 715 60 708 13 721 38 l 465 997 b 440 1008 463 1008 451 1011 l 360 988 b 344 961 349 985 342 972 z "},"Ă":{"ha":744,"x_min":0,"x_max":0,"o":"m 75 0 l 510 0 b 553 43 533 0 553 19 l 553 82 b 510 125 553 106 533 125 l 207 125 b 185 154 192 125 181 138 l 340 740 b 310 793 347 764 332 788 l 272 803 b 219 774 250 808 225 796 l 29 58 b 75 0 21 28 43 0 z m 78 71 l 254 743 b 281 758 257 754 269 761 b 294 733 290 756 297 743 l 138 142 b 183 83 129 111 151 83 l 490 83 b 511 63 501 83 511 74 b 490 42 511 51 501 42 l 100 42 b 78 71 85 42 74 54 z m 179 1315 b 381 1107 179 1228 210 1107 b 565 1296 474 1107 565 1172 b 524 1339 565 1321 547 1339 l 482 1339 b 439 1296 458 1339 439 1321 b 382 1232 439 1247 421 1232 b 306 1318 331 1232 306 1264 b 283 1338 306 1329 294 1338 b 264 1315 272 1338 264 1328 b 382 1190 264 1247 306 1190 b 481 1279 440 1190 481 1224 b 500 1297 481 1290 489 1297 b 521 1274 513 1297 521 1288 b 381 1149 521 1206 454 1149 b 219 1318 249 1149 219 1250 b 199 1338 219 1329 210 1338 b 179 1315 188 1338 179 1328 z m 344 961 b 371 947 349 950 360 944 l 411 957 b 436 943 421 960 433 954 l 671 68 b 656 43 674 57 667 46 b 631 57 646 40 633 46 l 401 911 b 376 925 399 921 388 928 b 361 900 365 922 358 911 l 596 28 b 647 -3 601 6 625 -8 l 686 7 b 715 60 708 13 721 38 l 465 997 b 440 1008 463 1008 451 1011 l 360 988 b 344 961 349 985 342 972 z "},"Â":{"ha":744,"x_min":0,"x_max":0,"o":"m 75 0 l 510 0 b 553 43 533 0 553 19 l 553 82 b 510 125 553 106 533 125 l 207 125 b 185 154 192 125 181 138 l 340 740 b 310 793 347 764 332 788 l 272 803 b 219 774 250 808 225 796 l 29 58 b 75 0 21 28 43 0 z m 78 71 l 254 743 b 281 758 257 754 269 761 b 294 733 290 756 297 743 l 138 142 b 183 83 129 111 151 83 l 490 83 b 511 63 501 83 511 74 b 490 42 511 51 501 42 l 100 42 b 78 71 85 42 74 54 z m 224 1142 b 239 1117 221 1132 228 1119 l 319 1094 b 344 1110 331 1092 342 1099 l 374 1215 l 401 1128 b 453 1097 408 1107 431 1092 l 492 1107 b 521 1160 514 1113 526 1139 l 478 1308 b 439 1338 472 1326 457 1338 l 307 1338 b 268 1308 289 1338 272 1325 l 240 1204 b 256 1178 238 1192 244 1181 b 281 1193 265 1175 278 1182 l 306 1282 b 325 1296 308 1292 317 1296 l 422 1296 b 442 1282 431 1296 439 1292 l 476 1168 b 461 1143 479 1158 472 1146 b 436 1157 451 1140 439 1147 l 411 1239 b 392 1254 408 1249 400 1254 l 357 1254 b 338 1240 349 1254 340 1250 l 315 1161 b 289 1146 313 1149 300 1143 l 249 1157 b 224 1142 239 1160 226 1154 z m 344 961 b 371 947 349 950 360 944 l 411 957 b 436 943 421 960 433 954 l 671 68 b 656 43 674 57 667 46 b 631 57 646 40 633 46 l 401 911 b 376 925 399 921 388 928 b 361 900 365 922 358 911 l 596 28 b 647 -3 601 6 625 -8 l 686 7 b 715 60 708 13 721 38 l 465 997 b 440 1008 463 1008 451 1011 l 360 988 b 344 961 349 985 342 972 z "},"Ä":{"ha":744,"x_min":0,"x_max":0,"o":"m 75 0 l 510 0 b 553 43 533 0 553 19 l 553 82 b 510 125 553 106 533 125 l 207 125 b 185 154 192 125 181 138 l 340 740 b 310 793 347 764 332 788 l 272 803 b 219 774 250 808 225 796 l 29 58 b 75 0 21 28 43 0 z m 78 71 l 254 743 b 281 758 257 754 269 761 b 294 733 290 756 297 743 l 138 142 b 183 83 129 111 151 83 l 490 83 b 511 63 501 83 511 74 b 490 42 511 51 501 42 l 100 42 b 78 71 85 42 74 54 z m 226 1143 b 269 1100 226 1119 246 1100 l 308 1100 b 351 1143 332 1100 351 1119 l 351 1235 b 331 1256 351 1246 342 1256 l 247 1256 b 226 1235 236 1256 226 1246 b 247 1214 226 1222 236 1214 l 289 1214 b 310 1193 300 1214 310 1204 l 310 1163 b 289 1142 310 1151 300 1142 b 268 1163 278 1142 268 1151 l 268 1171 b 247 1192 268 1182 258 1192 b 226 1171 236 1192 226 1182 z m 344 961 b 371 947 349 950 360 944 l 411 957 b 436 943 421 960 433 954 l 671 68 b 656 43 674 57 667 46 b 631 57 646 40 633 46 l 401 911 b 376 925 399 921 388 928 b 361 900 365 922 358 911 l 596 28 b 647 -3 601 6 625 -8 l 686 7 b 715 60 708 13 721 38 l 465 997 b 440 1008 463 1008 451 1011 l 360 988 b 344 961 349 985 342 972 z m 393 1143 b 436 1100 393 1119 413 1100 l 475 1100 b 518 1143 499 1100 518 1119 l 518 1235 b 497 1256 518 1246 508 1256 l 414 1256 b 393 1235 403 1256 393 1246 b 414 1214 393 1222 403 1214 l 456 1214 b 476 1193 467 1214 476 1204 l 476 1163 b 456 1142 476 1151 467 1142 b 435 1163 444 1142 435 1151 l 435 1171 b 414 1192 435 1182 425 1192 b 393 1171 403 1192 393 1182 z "},"À":{"ha":744,"x_min":0,"x_max":0,"o":"m 75 0 l 510 0 b 553 43 533 0 553 19 l 553 82 b 510 125 553 106 533 125 l 207 125 b 185 154 192 125 181 138 l 340 740 b 310 793 347 764 332 788 l 272 803 b 219 774 250 808 225 796 l 29 58 b 75 0 21 28 43 0 z m 78 71 l 254 743 b 281 758 257 754 269 761 b 294 733 290 756 297 743 l 138 142 b 183 83 129 111 151 83 l 490 83 b 511 63 501 83 511 74 b 490 42 511 51 501 42 l 100 42 b 78 71 85 42 74 54 z m 282 1256 l 347 1113 b 404 1092 357 1090 383 1082 l 440 1108 b 461 1165 461 1118 471 1143 l 396 1308 b 339 1329 386 1331 360 1339 l 303 1313 b 282 1256 282 1303 272 1278 z m 329 1256 b 339 1283 325 1265 329 1279 b 367 1274 349 1288 363 1283 l 414 1165 b 404 1138 418 1156 414 1142 b 376 1147 394 1133 381 1138 z m 344 961 b 371 947 349 950 360 944 l 411 957 b 436 943 421 960 433 954 l 671 68 b 656 43 674 57 667 46 b 631 57 646 40 633 46 l 401 911 b 376 925 399 921 388 928 b 361 900 365 922 358 911 l 596 28 b 647 -3 601 6 625 -8 l 686 7 b 715 60 708 13 721 38 l 465 997 b 440 1008 463 1008 451 1011 l 360 988 b 344 961 349 985 342 972 z "},"Ā":{"ha":744,"x_min":0,"x_max":0,"o":"m 75 0 l 510 0 b 553 43 533 0 553 19 l 553 82 b 510 125 553 106 533 125 l 207 125 b 185 154 192 125 181 138 l 340 740 b 310 793 347 764 332 788 l 272 803 b 219 774 250 808 225 796 l 29 58 b 75 0 21 28 43 0 z m 78 71 l 254 743 b 281 758 257 754 269 761 b 294 733 290 756 297 743 l 138 142 b 183 83 129 111 151 83 l 490 83 b 511 63 501 83 511 74 b 490 42 511 51 501 42 l 100 42 b 78 71 85 42 74 54 z m 208 1150 b 251 1107 208 1126 228 1107 l 493 1107 b 536 1150 517 1107 536 1126 l 536 1189 b 493 1232 536 1213 517 1232 l 251 1232 b 208 1189 228 1232 208 1213 z m 250 1169 b 271 1190 250 1181 260 1190 l 474 1190 b 494 1169 485 1190 494 1181 b 474 1149 494 1158 485 1149 l 271 1149 b 250 1169 260 1149 250 1158 z m 344 961 b 371 947 349 950 360 944 l 411 957 b 436 943 421 960 433 954 l 671 68 b 656 43 674 57 667 46 b 631 57 646 40 633 46 l 401 911 b 376 925 399 921 388 928 b 361 900 365 922 358 911 l 596 28 b 647 -3 601 6 625 -8 l 686 7 b 715 60 708 13 721 38 l 465 997 b 440 1008 463 1008 451 1011 l 360 988 b 344 961 349 985 342 972 z "},"Ą":{"ha":744,"x_min":0,"x_max":0,"o":"m 75 0 l 510 0 b 553 43 533 0 553 19 l 553 82 b 510 125 553 106 533 125 l 207 125 b 185 154 192 125 181 138 l 340 740 b 310 793 347 764 332 788 l 272 803 b 219 774 250 808 225 796 l 29 58 b 75 0 21 28 43 0 z m 78 71 l 254 743 b 281 758 257 754 269 761 b 294 733 290 756 297 743 l 138 142 b 183 83 129 111 151 83 l 490 83 b 511 63 501 83 511 74 b 490 42 511 51 501 42 l 100 42 b 78 71 85 42 74 54 z m 344 961 b 371 947 349 950 360 944 l 411 957 b 436 943 421 960 433 954 l 671 68 b 656 43 674 57 667 46 b 631 57 646 40 633 46 l 401 911 b 376 925 399 921 388 928 b 361 900 365 922 358 911 l 596 28 b 604 11 597 22 600 17 b 438 -187 525 1 438 -43 b 626 -372 438 -281 503 -372 b 669 -331 651 -372 669 -354 l 669 -289 b 626 -246 669 -265 651 -246 b 563 -189 578 -246 563 -228 b 649 -112 563 -137 594 -112 b 668 -90 660 -112 668 -101 b 646 -71 668 -79 658 -71 b 521 -189 578 -71 521 -112 b 610 -287 521 -247 554 -287 b 628 -307 621 -287 628 -296 b 604 -328 628 -319 618 -328 b 479 -187 536 -328 479 -261 b 649 -26 479 -56 581 -26 b 668 -6 660 -26 668 -17 b 667 1 668 -3 668 0 l 686 7 b 715 60 708 13 721 38 l 465 997 b 440 1008 463 1008 451 1011 l 360 988 b 344 961 349 985 342 972 z "},"Å":{"ha":744,"x_min":0,"x_max":0,"o":"m 75 0 l 510 0 b 553 43 533 0 553 19 l 553 82 b 510 125 553 106 533 125 l 207 125 b 185 154 192 125 181 138 l 340 740 b 310 793 347 764 332 788 l 272 803 b 219 774 250 808 225 796 l 29 58 b 75 0 21 28 43 0 z m 78 71 l 254 743 b 281 758 257 754 269 761 b 294 733 290 756 297 743 l 138 142 b 183 83 129 111 151 83 l 490 83 b 511 63 501 83 511 74 b 490 42 511 51 501 42 l 100 42 b 78 71 85 42 74 54 z m 247 1203 b 372 1078 247 1133 303 1078 b 496 1203 440 1078 496 1133 b 372 1326 496 1271 440 1326 b 247 1203 303 1326 247 1271 z m 282 1203 b 372 1292 282 1253 321 1292 b 461 1203 422 1292 461 1253 b 372 1113 461 1151 422 1113 b 282 1203 321 1113 282 1151 z m 310 1203 b 372 1264 310 1236 336 1264 b 433 1203 406 1264 433 1236 b 372 1140 433 1167 406 1140 b 310 1203 336 1140 310 1167 z m 344 961 b 371 947 349 950 360 944 l 411 957 b 436 943 421 960 433 954 l 671 68 b 656 43 674 57 667 46 b 631 57 646 40 633 46 l 401 911 b 376 925 399 921 388 928 b 361 900 365 922 358 911 l 596 28 b 647 -3 601 6 625 -8 l 686 7 b 715 60 708 13 721 38 l 465 997 b 440 1008 463 1008 451 1011 l 360 988 b 344 961 349 985 342 972 z m 347 1203 b 372 1178 347 1188 357 1178 b 396 1203 386 1178 396 1188 b 372 1226 396 1217 386 1226 b 347 1203 357 1226 347 1217 z "},"Ã":{"ha":744,"x_min":0,"x_max":0,"o":"m 75 0 l 510 0 b 553 43 533 0 553 19 l 553 82 b 510 125 553 106 533 125 l 207 125 b 185 154 192 125 181 138 l 340 740 b 310 793 347 764 332 788 l 272 803 b 219 774 250 808 225 796 l 29 58 b 75 0 21 28 43 0 z m 78 71 l 254 743 b 281 758 257 754 269 761 b 294 733 290 756 297 743 l 138 142 b 183 83 129 111 151 83 l 490 83 b 511 63 501 83 511 74 b 490 42 511 51 501 42 l 100 42 b 78 71 85 42 74 54 z m 179 1172 b 190 1144 175 1160 181 1150 l 239 1126 b 267 1140 250 1122 263 1129 b 297 1176 279 1176 282 1176 b 440 1101 338 1176 358 1101 b 567 1221 524 1101 564 1156 b 546 1242 567 1233 557 1242 l 496 1242 b 474 1219 485 1242 475 1233 b 446 1196 472 1199 467 1196 b 297 1268 406 1196 378 1268 b 179 1172 246 1268 206 1238 z m 221 1186 b 297 1239 240 1221 265 1239 b 446 1163 365 1239 392 1163 b 503 1199 478 1163 494 1176 b 517 1211 504 1206 510 1211 b 531 1192 526 1211 533 1200 b 440 1133 519 1156 488 1133 b 297 1207 375 1133 351 1207 b 247 1174 274 1207 263 1199 b 226 1164 243 1164 235 1160 b 221 1186 218 1168 215 1176 z m 344 961 b 371 947 349 950 360 944 l 411 957 b 436 943 421 960 433 954 l 671 68 b 656 43 674 57 667 46 b 631 57 646 40 633 46 l 401 911 b 376 925 399 921 388 928 b 361 900 365 922 358 911 l 596 28 b 647 -3 601 6 625 -8 l 686 7 b 715 60 708 13 721 38 l 465 997 b 440 1008 463 1008 451 1011 l 360 988 b 344 961 349 985 342 972 z "},"Æ":{"ha":1171,"x_min":0,"x_max":0,"o":"m 75 0 l 510 0 b 553 43 533 0 553 19 l 553 82 b 510 125 553 106 533 125 l 207 125 b 185 154 192 125 181 138 l 340 740 b 310 793 347 764 332 788 l 272 803 b 219 774 250 808 225 796 l 29 58 b 75 0 21 28 43 0 z m 78 71 l 254 743 b 281 758 257 754 269 761 b 294 733 290 756 297 743 l 138 142 b 183 83 129 111 151 83 l 490 83 b 511 63 501 83 511 74 b 490 42 511 51 501 42 l 100 42 b 78 71 85 42 74 54 z m 344 961 b 371 947 349 950 360 944 l 411 957 b 436 943 421 960 433 954 l 589 372 l 589 211 l 401 911 b 376 925 399 921 388 928 b 361 900 365 922 358 911 l 589 51 l 589 43 b 632 0 589 19 608 0 l 1100 0 b 1143 43 1124 0 1143 19 l 1143 82 b 1100 125 1143 106 1124 125 l 735 125 b 714 146 724 125 714 135 l 714 829 b 735 850 714 840 724 850 l 1100 850 b 1143 893 1124 850 1143 869 l 1143 932 b 1100 975 1143 956 1124 975 l 610 975 b 589 954 599 975 589 965 b 610 933 589 942 599 933 l 1081 933 b 1101 913 1092 933 1101 924 b 1081 892 1101 901 1092 892 l 715 892 b 672 849 692 892 672 872 l 672 126 b 715 83 672 103 692 83 l 1081 83 b 1101 63 1092 83 1101 74 b 1081 42 1101 51 1092 42 l 651 42 b 631 63 640 42 631 51 l 631 890 b 610 911 631 901 621 911 b 589 890 599 911 589 901 l 589 533 l 465 997 b 440 1008 463 1008 451 1011 l 360 988 b 344 961 349 985 342 972 z m 756 499 b 799 456 756 475 775 456 l 1040 456 b 1083 499 1064 456 1083 475 l 1083 538 b 1040 581 1083 561 1064 581 l 799 581 b 756 538 775 581 756 561 z m 797 518 b 818 539 797 529 807 539 l 1021 539 b 1042 518 1032 539 1042 529 b 1021 497 1042 507 1032 497 l 818 497 b 797 518 807 497 797 507 z "},"B":{"ha":699,"x_min":0,"x_max":0,"o":"m 78 0 b 664 340 561 0 664 161 b 244 657 664 588 461 654 b 201 615 219 657 201 639 l 201 575 b 244 532 201 550 219 533 b 539 339 404 531 539 488 b 182 125 539 214 450 133 b 160 147 169 125 160 135 l 160 958 b 139 975 160 969 150 975 l 56 975 b 35 954 44 975 35 965 b 56 933 35 942 44 933 l 97 933 b 118 913 108 933 118 924 l 118 128 b 164 85 118 103 138 85 b 581 339 494 96 581 213 b 264 572 581 501 454 563 b 243 593 251 574 243 582 l 243 594 b 265 614 243 606 253 615 b 622 340 460 604 622 542 b 97 42 622 183 521 42 b 76 63 86 42 76 51 l 76 890 b 56 911 76 901 67 911 b 35 890 44 911 35 901 l 35 43 b 78 0 35 19 54 0 z m 201 893 b 244 850 201 869 221 850 l 378 850 b 401 810 400 850 413 829 l 361 744 b 376 685 349 724 357 696 l 410 665 b 469 682 431 653 457 661 l 568 850 b 589 913 581 871 589 896 l 589 932 b 546 975 589 956 569 975 l 244 975 b 201 932 221 975 201 956 z m 243 913 b 264 933 243 924 253 933 l 526 933 b 547 913 538 933 547 924 b 531 868 547 899 539 883 l 442 718 b 414 711 438 710 425 707 b 407 740 404 717 401 731 l 450 813 b 406 892 472 851 450 892 l 264 892 b 243 913 253 892 243 901 z "},"C":{"ha":718,"x_min":0,"x_max":0,"o":"m 415 -1 b 679 96 526 -1 614 26 b 678 151 694 113 693 136 l 651 178 b 589 175 632 197 608 193 b 419 125 550 140 499 125 b 160 504 219 125 160 263 b 364 849 160 744 236 839 b 385 869 376 849 385 858 b 363 889 385 881 375 890 b 118 504 213 879 118 764 b 419 83 118 269 179 83 b 606 135 503 83 561 100 b 633 135 614 143 625 143 b 632 106 640 128 642 114 b 415 40 578 58 506 40 b 76 506 161 40 76 210 b 364 933 76 814 215 924 b 385 954 376 933 385 943 b 363 975 385 965 375 975 b 35 506 197 964 35 838 b 415 -1 35 228 125 -1 z m 426 890 b 469 849 426 867 444 850 b 568 813 508 846 542 833 b 636 818 592 794 619 794 l 660 851 b 656 904 672 869 671 890 b 481 974 611 943 553 968 b 426 932 449 976 426 956 z m 468 910 l 468 913 b 492 931 468 924 479 933 b 613 886 540 925 581 908 b 614 858 621 879 621 868 b 583 854 607 847 594 846 b 486 890 557 872 524 885 b 468 910 475 892 468 900 z "},"Ć":{"ha":718,"x_min":0,"x_max":0,"o":"m 415 -1 b 679 96 526 -1 614 26 b 678 151 694 113 693 136 l 651 178 b 589 175 632 197 608 193 b 419 125 550 140 499 125 b 160 504 219 125 160 263 b 364 849 160 744 236 839 b 385 869 376 849 385 858 b 363 889 385 881 375 890 b 118 504 213 879 118 764 b 419 83 118 269 179 83 b 606 135 503 83 561 100 b 633 135 614 143 625 143 b 632 106 640 128 642 114 b 415 40 578 58 506 40 b 76 506 161 40 76 210 b 364 933 76 814 215 924 b 385 954 376 933 385 943 b 363 975 385 965 375 975 b 35 506 197 964 35 838 b 415 -1 35 228 125 -1 z m 340 1158 b 361 1101 331 1136 340 1111 l 397 1085 b 454 1106 418 1075 444 1083 l 519 1249 b 499 1306 529 1271 519 1296 l 463 1322 b 406 1301 442 1332 415 1324 z m 388 1158 l 435 1267 b 463 1276 439 1276 453 1281 b 472 1249 472 1272 476 1258 l 425 1140 b 397 1131 421 1131 407 1126 b 388 1158 388 1135 383 1149 z m 426 890 b 469 849 426 867 444 850 b 568 813 508 846 542 833 b 636 818 592 794 619 794 l 660 851 b 656 904 672 869 671 890 b 481 974 611 943 553 968 b 426 932 449 976 426 956 z m 468 910 l 468 913 b 492 931 468 924 479 933 b 613 886 540 925 581 908 b 614 858 621 879 621 868 b 583 854 607 847 594 846 b 486 890 557 872 524 885 b 468 910 475 892 468 900 z "},"Č":{"ha":718,"x_min":0,"x_max":0,"o":"m 415 -1 b 679 96 526 -1 614 26 b 678 151 694 113 693 136 l 651 178 b 589 175 632 197 608 193 b 419 125 550 140 499 125 b 160 504 219 125 160 263 b 364 849 160 744 236 839 b 385 869 376 849 385 858 b 363 889 385 881 375 890 b 118 504 213 879 118 764 b 419 83 118 269 179 83 b 606 135 503 83 561 100 b 633 135 614 143 625 143 b 632 106 640 128 642 114 b 415 40 578 58 506 40 b 76 506 161 40 76 210 b 364 933 76 814 215 924 b 385 954 376 933 385 943 b 363 975 385 965 375 975 b 35 506 197 964 35 838 b 415 -1 35 228 125 -1 z m 282 1283 b 307 1268 285 1271 297 1265 l 347 1279 b 374 1264 358 1282 371 1276 l 396 1185 b 415 1171 399 1175 407 1171 l 450 1171 b 469 1186 458 1171 467 1176 l 494 1268 b 519 1282 497 1278 510 1285 b 535 1257 531 1279 538 1267 l 500 1143 b 481 1129 497 1133 489 1129 l 383 1129 b 364 1143 375 1129 367 1133 l 339 1232 b 314 1247 336 1243 324 1250 b 299 1221 303 1244 296 1233 l 326 1117 b 365 1088 331 1100 347 1088 l 497 1088 b 536 1117 515 1088 531 1099 l 579 1265 b 550 1318 585 1286 572 1313 l 511 1328 b 460 1297 489 1333 467 1318 l 432 1210 l 403 1315 b 378 1331 400 1326 389 1333 l 297 1308 b 282 1283 286 1306 279 1293 z m 426 890 b 469 849 426 867 444 850 b 568 813 508 846 542 833 b 636 818 592 794 619 794 l 660 851 b 656 904 672 869 671 890 b 481 974 611 943 553 968 b 426 932 449 976 426 956 z m 468 910 l 468 913 b 492 931 468 924 479 933 b 613 886 540 925 581 908 b 614 858 621 879 621 868 b 583 854 607 847 594 846 b 486 890 557 872 524 885 b 468 910 475 892 468 900 z "},"Ç":{"ha":718,"x_min":0,"x_max":0,"o":"m 415 -1 b 679 96 526 -1 614 26 b 678 151 694 113 693 136 l 651 178 b 589 175 632 197 608 193 b 419 125 550 140 499 125 b 160 504 219 125 160 263 b 364 849 160 744 236 839 b 385 869 376 849 385 858 b 363 889 385 881 375 890 b 118 504 213 879 118 764 b 419 83 118 269 179 83 b 606 135 503 83 561 100 b 633 135 614 143 625 143 b 632 106 640 128 642 114 b 415 40 578 58 506 40 b 76 506 161 40 76 210 b 364 933 76 814 215 924 b 385 954 376 933 385 943 b 363 975 385 965 375 975 b 35 506 197 964 35 838 b 415 -1 35 228 125 -1 z m 243 -385 b 286 -426 243 -408 261 -426 b 475 -256 410 -426 475 -335 b 392 -110 475 -178 439 -133 l 403 -65 b 389 -40 406 -53 400 -43 b 363 -56 378 -37 365 -44 l 347 -117 b 363 -143 344 -128 351 -140 b 433 -256 401 -162 433 -197 b 308 -382 433 -315 376 -382 b 285 -361 294 -382 285 -374 b 303 -342 285 -350 292 -342 b 392 -257 358 -342 392 -301 b 297 -169 392 -217 351 -181 l 326 -65 b 313 -40 329 -53 324 -43 b 286 -56 301 -37 289 -44 l 254 -169 b 244 -186 249 -174 244 -179 b 264 -208 244 -197 253 -208 b 350 -257 318 -208 350 -233 b 286 -300 350 -282 335 -300 b 243 -343 261 -300 243 -319 z m 426 890 b 469 849 426 867 444 850 b 568 813 508 846 542 833 b 636 818 592 794 619 794 l 660 851 b 656 904 672 869 671 890 b 481 974 611 943 553 968 b 426 932 449 976 426 956 z m 468 910 l 468 913 b 492 931 468 924 479 933 b 613 886 540 925 581 908 b 614 858 621 879 621 868 b 583 854 607 847 594 846 b 486 890 557 872 524 885 b 468 910 475 892 468 900 z "},"Ċ":{"ha":718,"x_min":0,"x_max":0,"o":"m 415 -1 b 679 96 526 -1 614 26 b 678 151 694 113 693 136 l 651 178 b 589 175 632 197 608 193 b 419 125 550 140 499 125 b 160 504 219 125 160 263 b 364 849 160 744 236 839 b 385 869 376 849 385 858 b 363 889 385 881 375 890 b 118 504 213 879 118 764 b 419 83 118 269 179 83 b 606 135 503 83 561 100 b 633 135 614 143 625 143 b 632 106 640 128 642 114 b 415 40 578 58 506 40 b 76 506 161 40 76 210 b 364 933 76 814 215 924 b 385 954 376 933 385 943 b 363 975 385 965 375 975 b 35 506 197 964 35 838 b 415 -1 35 228 125 -1 z m 368 1136 b 411 1093 368 1113 388 1093 l 450 1093 b 493 1136 474 1093 493 1113 l 493 1228 b 472 1249 493 1239 483 1249 l 389 1249 b 368 1228 378 1249 368 1239 b 389 1207 368 1215 378 1207 l 431 1207 b 451 1186 442 1207 451 1197 l 451 1156 b 431 1135 451 1144 442 1135 b 410 1156 419 1135 410 1144 l 410 1164 b 389 1185 410 1175 400 1185 b 368 1164 378 1185 368 1175 z m 426 890 b 469 849 426 867 444 850 b 568 813 508 846 542 833 b 636 818 592 794 619 794 l 660 851 b 656 904 672 869 671 890 b 481 974 611 943 553 968 b 426 932 449 976 426 956 z m 468 910 l 468 913 b 492 931 468 924 479 933 b 613 886 540 925 581 908 b 614 858 621 879 621 868 b 583 854 607 847 594 846 b 486 890 557 872 524 885 b 468 910 475 892 468 900 z "},"D":{"ha":685,"x_min":0,"x_max":0,"o":"m 244 -1 b 664 478 569 8 664 239 b 244 975 664 854 461 967 b 201 932 219 975 201 956 l 201 893 b 244 850 201 869 219 851 b 539 476 433 844 539 757 b 244 124 539 279 476 132 b 201 82 219 122 201 106 l 201 42 b 244 -1 201 18 219 -3 z m 35 43 b 78 0 35 19 54 0 l 117 0 b 160 43 140 0 160 19 l 160 958 b 139 975 160 969 150 975 l 56 975 b 35 954 44 975 35 965 b 56 933 35 942 44 933 l 97 933 b 118 913 108 933 118 924 l 118 63 b 97 42 118 51 108 42 b 76 63 86 42 76 51 l 76 890 b 56 911 76 901 67 911 b 35 890 44 911 35 901 z m 243 63 b 264 83 243 74 251 82 b 581 476 508 100 581 272 b 263 890 581 774 453 878 b 243 911 251 892 243 900 l 243 913 b 265 932 243 924 253 933 b 622 478 460 918 622 814 b 267 42 622 257 544 61 b 243 63 253 40 243 50 z "},"Ð":{"ha":685,"x_min":0,"x_max":0,"o":"m 244 -1 b 664 478 569 8 664 239 b 244 975 664 854 461 967 b 201 932 219 975 201 956 l 201 893 b 244 850 201 869 219 851 b 539 476 433 844 539 757 b 244 124 539 279 476 132 b 201 82 219 122 201 106 l 201 42 b 244 -1 201 18 219 -3 z m -83 499 b -40 456 -83 475 -64 456 l 35 456 l 35 43 b 78 0 35 19 54 0 l 117 0 b 160 43 140 0 160 19 l 160 456 l 243 456 b 286 499 267 456 286 475 l 286 538 b 243 581 286 561 267 581 l 160 581 l 160 958 b 139 975 160 969 150 975 l 56 975 b 35 954 44 975 35 965 b 56 933 35 942 44 933 l 97 933 b 118 913 108 933 118 924 l 118 63 b 97 42 118 51 108 42 b 76 63 86 42 76 51 l 76 890 b 56 911 76 901 67 911 b 35 890 44 911 35 901 l 35 581 l -40 581 b -83 538 -64 581 -83 561 z m -42 518 b -21 539 -42 529 -32 539 l 35 539 l 35 497 l -21 497 b -42 518 -32 497 -42 507 z m 160 497 l 160 539 l 224 539 b 244 518 235 539 244 529 b 224 497 244 507 235 497 z m 243 63 b 264 83 243 74 251 82 b 581 476 508 100 581 272 b 263 890 581 774 453 878 b 243 911 251 892 243 900 l 243 913 b 265 932 243 924 253 933 b 622 478 460 918 622 814 b 267 42 622 257 544 61 b 243 63 253 40 243 50 z "},"Ď":{"ha":685,"x_min":0,"x_max":0,"o":"m 244 -1 b 664 478 569 8 664 239 b 244 975 664 854 461 967 b 201 932 219 975 201 956 l 201 893 b 244 850 201 869 219 851 b 539 476 433 844 539 757 b 244 124 539 279 476 132 b 201 82 219 122 201 106 l 201 42 b 244 -1 201 18 219 -3 z m 35 43 b 78 0 35 19 54 0 l 117 0 b 160 43 140 0 160 19 l 160 958 b 139 975 160 969 150 975 l 56 975 b 35 954 44 975 35 965 b 56 933 35 942 44 933 l 97 933 b 118 913 108 933 118 924 l 118 63 b 97 42 118 51 108 42 b 76 63 86 42 76 51 l 76 890 b 56 911 76 901 67 911 b 35 890 44 911 35 901 z m 194 1283 b 219 1268 197 1271 210 1265 l 260 1279 b 286 1264 271 1282 283 1276 l 308 1185 b 328 1171 311 1175 319 1171 l 363 1171 b 382 1186 371 1171 379 1176 l 407 1268 b 432 1282 410 1278 422 1285 b 447 1257 443 1279 450 1267 l 413 1143 b 393 1129 410 1133 401 1129 l 296 1129 b 276 1143 288 1129 279 1133 l 251 1232 b 226 1247 249 1243 236 1250 b 211 1221 215 1244 208 1233 l 239 1117 b 278 1088 243 1100 260 1088 l 410 1088 b 449 1117 428 1088 443 1099 l 492 1265 b 463 1318 497 1286 485 1313 l 424 1328 b 372 1297 401 1333 379 1318 l 344 1210 l 315 1315 b 290 1331 313 1326 301 1333 l 210 1308 b 194 1283 199 1306 192 1293 z m 243 63 b 264 83 243 74 251 82 b 581 476 508 100 581 272 b 263 890 581 774 453 878 b 243 911 251 892 243 900 l 243 913 b 265 932 243 924 253 933 b 622 478 460 918 622 814 b 267 42 622 257 544 61 b 243 63 253 40 243 50 z "},"Đ":{"ha":685,"x_min":0,"x_max":0,"o":"m 244 -1 b 664 478 569 8 664 239 b 244 975 664 854 461 967 b 201 932 219 975 201 956 l 201 893 b 244 850 201 869 219 851 b 539 476 433 844 539 757 b 244 124 539 279 476 132 b 201 82 219 122 201 106 l 201 42 b 244 -1 201 18 219 -3 z m -83 499 b -40 456 -83 475 -64 456 l 35 456 l 35 43 b 78 0 35 19 54 0 l 117 0 b 160 43 140 0 160 19 l 160 456 l 243 456 b 286 499 267 456 286 475 l 286 538 b 243 581 286 561 267 581 l 160 581 l 160 958 b 139 975 160 969 150 975 l 56 975 b 35 954 44 975 35 965 b 56 933 35 942 44 933 l 97 933 b 118 913 108 933 118 924 l 118 63 b 97 42 118 51 108 42 b 76 63 86 42 76 51 l 76 890 b 56 911 76 901 67 911 b 35 890 44 911 35 901 l 35 581 l -40 581 b -83 538 -64 581 -83 561 z m -42 518 b -21 539 -42 529 -32 539 l 35 539 l 35 497 l -21 497 b -42 518 -32 497 -42 507 z m 160 497 l 160 539 l 224 539 b 244 518 235 539 244 529 b 224 497 244 507 235 497 z m 243 63 b 264 83 243 74 251 82 b 581 476 508 100 581 272 b 263 890 581 774 453 878 b 243 911 251 892 243 900 l 243 913 b 265 932 243 924 253 933 b 622 478 460 918 622 814 b 267 42 622 257 544 61 b 243 63 253 40 243 50 z "},"E":{"ha":617,"x_min":0,"x_max":0,"o":"m 78 0 l 546 0 b 589 43 569 0 589 19 l 589 82 b 546 125 589 106 569 125 l 181 125 b 160 146 169 125 160 135 l 160 829 b 181 850 160 840 169 850 l 546 850 b 589 893 569 850 589 869 l 589 932 b 546 975 589 956 569 975 l 56 975 b 35 954 44 975 35 965 b 56 933 35 942 44 933 l 526 933 b 547 913 538 933 547 924 b 526 892 547 901 538 892 l 161 892 b 118 849 138 892 118 872 l 118 126 b 161 83 118 103 138 83 l 526 83 b 547 63 538 83 547 74 b 526 42 547 51 538 42 l 97 42 b 76 63 86 42 76 51 l 76 890 b 56 911 76 901 67 911 b 35 890 44 911 35 901 l 35 43 b 78 0 35 19 54 0 z m 201 499 b 244 456 201 475 221 456 l 486 456 b 529 499 510 456 529 475 l 529 538 b 486 581 529 561 510 581 l 244 581 b 201 538 221 581 201 561 z m 243 518 b 264 539 243 529 253 539 l 467 539 b 488 518 478 539 488 529 b 467 497 488 507 478 497 l 264 497 b 243 518 253 497 243 507 z "},"É":{"ha":617,"x_min":0,"x_max":0,"o":"m 78 0 l 546 0 b 589 43 569 0 589 19 l 589 82 b 546 125 589 106 569 125 l 181 125 b 160 146 169 125 160 135 l 160 829 b 181 850 160 840 169 850 l 546 850 b 589 893 569 850 589 869 l 589 932 b 546 975 589 956 569 975 l 56 975 b 35 954 44 975 35 965 b 56 933 35 942 44 933 l 526 933 b 547 913 538 933 547 924 b 526 892 547 901 538 892 l 161 892 b 118 849 138 892 118 872 l 118 126 b 161 83 118 103 138 83 l 526 83 b 547 63 538 83 547 74 b 526 42 547 51 538 42 l 97 42 b 76 63 86 42 76 51 l 76 890 b 56 911 76 901 67 911 b 35 890 44 911 35 901 l 35 43 b 78 0 35 19 54 0 z m 201 499 b 244 456 201 475 221 456 l 486 456 b 529 499 510 456 529 475 l 529 538 b 486 581 529 561 510 581 l 244 581 b 201 538 221 581 201 561 z m 218 1160 b 239 1103 208 1138 218 1113 l 275 1086 b 332 1107 296 1076 322 1085 l 397 1250 b 376 1307 407 1272 397 1297 l 340 1324 b 283 1303 319 1333 293 1325 z m 243 518 b 264 539 243 529 253 539 l 467 539 b 488 518 478 539 488 529 b 467 497 488 507 478 497 l 264 497 b 243 518 253 497 243 507 z m 265 1160 l 313 1268 b 340 1278 317 1278 331 1282 b 350 1250 350 1274 354 1260 l 303 1142 b 275 1132 299 1132 285 1128 b 265 1160 265 1136 261 1150 z "},"Ě":{"ha":617,"x_min":0,"x_max":0,"o":"m 78 0 l 546 0 b 589 43 569 0 589 19 l 589 82 b 546 125 589 106 569 125 l 181 125 b 160 146 169 125 160 135 l 160 829 b 181 850 160 840 169 850 l 546 850 b 589 893 569 850 589 869 l 589 932 b 546 975 589 956 569 975 l 56 975 b 35 954 44 975 35 965 b 56 933 35 942 44 933 l 526 933 b 547 913 538 933 547 924 b 526 892 547 901 538 892 l 161 892 b 118 849 138 892 118 872 l 118 126 b 161 83 118 103 138 83 l 526 83 b 547 63 538 83 547 74 b 526 42 547 51 538 42 l 97 42 b 76 63 86 42 76 51 l 76 890 b 56 911 76 901 67 911 b 35 890 44 911 35 901 l 35 43 b 78 0 35 19 54 0 z m 160 1285 b 185 1269 163 1272 175 1267 l 225 1281 b 251 1265 236 1283 249 1278 l 274 1186 b 293 1172 276 1176 285 1172 l 328 1172 b 347 1188 336 1172 344 1178 l 372 1269 b 397 1283 375 1279 388 1286 b 413 1258 408 1281 415 1268 l 378 1144 b 358 1131 375 1135 367 1131 l 261 1131 b 242 1144 253 1131 244 1135 l 217 1233 b 192 1249 214 1244 201 1251 b 176 1222 181 1246 174 1235 l 204 1118 b 243 1089 208 1101 225 1089 l 375 1089 b 414 1118 393 1089 408 1100 l 457 1267 b 428 1319 463 1288 450 1314 l 389 1329 b 338 1299 367 1335 344 1319 l 310 1211 l 281 1317 b 256 1332 278 1328 267 1335 l 175 1310 b 160 1285 164 1307 157 1294 z m 201 499 b 244 456 201 475 221 456 l 486 456 b 529 499 510 456 529 475 l 529 538 b 486 581 529 561 510 581 l 244 581 b 201 538 221 581 201 561 z m 243 518 b 264 539 243 529 253 539 l 467 539 b 488 518 478 539 488 529 b 467 497 488 507 478 497 l 264 497 b 243 518 253 497 243 507 z "},"Ê":{"ha":617,"x_min":0,"x_max":0,"o":"m 78 0 l 546 0 b 589 43 569 0 589 19 l 589 82 b 546 125 589 106 569 125 l 181 125 b 160 146 169 125 160 135 l 160 829 b 181 850 160 840 169 850 l 546 850 b 589 893 569 850 589 869 l 589 932 b 546 975 589 956 569 975 l 56 975 b 35 954 44 975 35 965 b 56 933 35 942 44 933 l 526 933 b 547 913 538 933 547 924 b 526 892 547 901 538 892 l 161 892 b 118 849 138 892 118 872 l 118 126 b 161 83 118 103 138 83 l 526 83 b 547 63 538 83 547 74 b 526 42 547 51 538 42 l 97 42 b 76 63 86 42 76 51 l 76 890 b 56 911 76 901 67 911 b 35 890 44 911 35 901 l 35 43 b 78 0 35 19 54 0 z m 160 1136 b 175 1111 157 1126 164 1114 l 256 1089 b 281 1104 267 1086 278 1093 l 310 1210 l 338 1122 b 389 1092 344 1101 367 1086 l 428 1101 b 457 1154 450 1107 463 1133 l 414 1303 b 375 1332 408 1321 393 1332 l 243 1332 b 204 1303 225 1332 208 1319 l 176 1199 b 192 1172 174 1186 181 1175 b 217 1188 201 1169 214 1176 l 242 1276 b 261 1290 244 1286 253 1290 l 358 1290 b 378 1276 367 1290 375 1286 l 413 1163 b 397 1138 415 1153 408 1140 b 372 1151 388 1135 375 1142 l 347 1233 b 328 1249 344 1243 336 1249 l 293 1249 b 274 1235 285 1249 276 1244 l 251 1156 b 225 1140 249 1143 236 1138 l 185 1151 b 160 1136 175 1154 163 1149 z m 201 499 b 244 456 201 475 221 456 l 486 456 b 529 499 510 456 529 475 l 529 538 b 486 581 529 561 510 581 l 244 581 b 201 538 221 581 201 561 z m 243 518 b 264 539 243 529 253 539 l 467 539 b 488 518 478 539 488 529 b 467 497 488 507 478 497 l 264 497 b 243 518 253 497 243 507 z "},"Ë":{"ha":617,"x_min":0,"x_max":0,"o":"m 78 0 l 546 0 b 589 43 569 0 589 19 l 589 82 b 546 125 589 106 569 125 l 181 125 b 160 146 169 125 160 135 l 160 829 b 181 850 160 840 169 850 l 546 850 b 589 893 569 850 589 869 l 589 932 b 546 975 589 956 569 975 l 56 975 b 35 954 44 975 35 965 b 56 933 35 942 44 933 l 526 933 b 547 913 538 933 547 924 b 526 892 547 901 538 892 l 161 892 b 118 849 138 892 118 872 l 118 126 b 161 83 118 103 138 83 l 526 83 b 547 63 538 83 547 74 b 526 42 547 51 538 42 l 97 42 b 76 63 86 42 76 51 l 76 890 b 56 911 76 901 67 911 b 35 890 44 911 35 901 l 35 43 b 78 0 35 19 54 0 z m 163 1138 b 206 1094 163 1114 182 1094 l 244 1094 b 288 1138 268 1094 288 1114 l 288 1229 b 267 1250 288 1240 278 1250 l 183 1250 b 163 1229 172 1250 163 1240 b 183 1208 163 1217 172 1208 l 225 1208 b 246 1188 236 1208 246 1199 l 246 1157 b 225 1136 246 1146 236 1136 b 204 1157 214 1136 204 1146 l 204 1165 b 183 1186 204 1176 194 1186 b 163 1165 172 1186 163 1176 z m 201 499 b 244 456 201 475 221 456 l 486 456 b 529 499 510 456 529 475 l 529 538 b 486 581 529 561 510 581 l 244 581 b 201 538 221 581 201 561 z m 243 518 b 264 539 243 529 253 539 l 467 539 b 488 518 478 539 488 529 b 467 497 488 507 478 497 l 264 497 b 243 518 253 497 243 507 z m 329 1138 b 372 1094 329 1114 349 1094 l 411 1094 b 454 1138 435 1094 454 1114 l 454 1229 b 433 1250 454 1240 444 1250 l 350 1250 b 329 1229 339 1250 329 1240 b 350 1208 329 1217 339 1208 l 392 1208 b 413 1188 403 1208 413 1199 l 413 1157 b 392 1136 413 1146 403 1136 b 371 1157 381 1136 371 1146 l 371 1165 b 350 1186 371 1176 361 1186 b 329 1165 339 1186 329 1176 z "},"Ė":{"ha":617,"x_min":0,"x_max":0,"o":"m 78 0 l 546 0 b 589 43 569 0 589 19 l 589 82 b 546 125 589 106 569 125 l 181 125 b 160 146 169 125 160 135 l 160 829 b 181 850 160 840 169 850 l 546 850 b 589 893 569 850 589 869 l 589 932 b 546 975 589 956 569 975 l 56 975 b 35 954 44 975 35 965 b 56 933 35 942 44 933 l 526 933 b 547 913 538 933 547 924 b 526 892 547 901 538 892 l 161 892 b 118 849 138 892 118 872 l 118 126 b 161 83 118 103 138 83 l 526 83 b 547 63 538 83 547 74 b 526 42 547 51 538 42 l 97 42 b 76 63 86 42 76 51 l 76 890 b 56 911 76 901 67 911 b 35 890 44 911 35 901 l 35 43 b 78 0 35 19 54 0 z m 201 499 b 244 456 201 475 221 456 l 486 456 b 529 499 510 456 529 475 l 529 538 b 486 581 529 561 510 581 l 244 581 b 201 538 221 581 201 561 z m 243 518 b 264 539 243 529 253 539 l 467 539 b 488 518 478 539 488 529 b 467 497 488 507 478 497 l 264 497 b 243 518 253 497 243 507 z m 246 1138 b 289 1094 246 1114 265 1094 l 328 1094 b 371 1138 351 1094 371 1114 l 371 1229 b 350 1250 371 1240 361 1250 l 267 1250 b 246 1229 256 1250 246 1240 b 267 1208 246 1217 256 1208 l 308 1208 b 329 1188 319 1208 329 1199 l 329 1157 b 308 1136 329 1146 319 1136 b 288 1157 297 1136 288 1146 l 288 1165 b 267 1186 288 1176 278 1186 b 246 1165 256 1186 246 1176 z "},"È":{"ha":617,"x_min":0,"x_max":0,"o":"m 78 0 l 546 0 b 589 43 569 0 589 19 l 589 82 b 546 125 589 106 569 125 l 181 125 b 160 146 169 125 160 135 l 160 829 b 181 850 160 840 169 850 l 546 850 b 589 893 569 850 589 869 l 589 932 b 546 975 589 956 569 975 l 56 975 b 35 954 44 975 35 965 b 56 933 35 942 44 933 l 526 933 b 547 913 538 933 547 924 b 526 892 547 901 538 892 l 161 892 b 118 849 138 892 118 872 l 118 126 b 161 83 118 103 138 83 l 526 83 b 547 63 538 83 547 74 b 526 42 547 51 538 42 l 97 42 b 76 63 86 42 76 51 l 76 890 b 56 911 76 901 67 911 b 35 890 44 911 35 901 l 35 43 b 78 0 35 19 54 0 z m 201 499 b 244 456 201 475 221 456 l 486 456 b 529 499 510 456 529 475 l 529 538 b 486 581 529 561 510 581 l 244 581 b 201 538 221 581 201 561 z m 218 1250 l 283 1107 b 340 1086 293 1085 319 1076 l 376 1103 b 397 1160 397 1113 407 1138 l 332 1303 b 275 1324 322 1325 296 1333 l 239 1307 b 218 1250 218 1297 208 1272 z m 243 518 b 264 539 243 529 253 539 l 467 539 b 488 518 478 539 488 529 b 467 497 488 507 478 497 l 264 497 b 243 518 253 497 243 507 z m 265 1250 b 275 1278 261 1260 265 1274 b 303 1268 285 1282 299 1278 l 350 1160 b 340 1132 354 1150 350 1136 b 313 1142 331 1128 317 1132 z "},"Ē":{"ha":617,"x_min":0,"x_max":0,"o":"m 78 0 l 546 0 b 589 43 569 0 589 19 l 589 82 b 546 125 589 106 569 125 l 181 125 b 160 146 169 125 160 135 l 160 829 b 181 850 160 840 169 850 l 546 850 b 589 893 569 850 589 869 l 589 932 b 546 975 589 956 569 975 l 56 975 b 35 954 44 975 35 965 b 56 933 35 942 44 933 l 526 933 b 547 913 538 933 547 924 b 526 892 547 901 538 892 l 161 892 b 118 849 138 892 118 872 l 118 126 b 161 83 118 103 138 83 l 526 83 b 547 63 538 83 547 74 b 526 42 547 51 538 42 l 97 42 b 76 63 86 42 76 51 l 76 890 b 56 911 76 901 67 911 b 35 890 44 911 35 901 l 35 43 b 78 0 35 19 54 0 z m 144 1144 b 188 1101 144 1121 164 1101 l 429 1101 b 472 1144 453 1101 472 1121 l 472 1183 b 429 1226 472 1207 453 1226 l 188 1226 b 144 1183 164 1226 144 1207 z m 186 1164 b 207 1185 186 1175 196 1185 l 410 1185 b 431 1164 421 1185 431 1175 b 410 1143 431 1153 421 1143 l 207 1143 b 186 1164 196 1143 186 1153 z m 201 499 b 244 456 201 475 221 456 l 486 456 b 529 499 510 456 529 475 l 529 538 b 486 581 529 561 510 581 l 244 581 b 201 538 221 581 201 561 z m 243 518 b 264 539 243 529 253 539 l 467 539 b 488 518 478 539 488 529 b 467 497 488 507 478 497 l 264 497 b 243 518 253 497 243 507 z "},"Ę":{"ha":617,"x_min":0,"x_max":0,"o":"m 78 0 l 440 0 b 324 -187 378 -21 324 -74 b 513 -372 324 -281 389 -372 b 556 -331 538 -372 556 -354 l 556 -289 b 513 -246 556 -265 538 -246 b 449 -189 464 -246 449 -228 b 535 -112 449 -137 481 -112 b 554 -90 546 -112 554 -101 b 532 -71 554 -79 544 -71 b 407 -189 464 -71 407 -112 b 496 -287 407 -247 440 -287 b 514 -307 507 -287 514 -296 b 490 -328 514 -319 504 -328 b 365 -187 422 -328 365 -261 b 535 -26 365 -56 467 -26 b 554 -6 546 -26 554 -17 b 553 0 554 -3 554 -1 b 589 43 574 4 589 22 l 589 82 b 546 125 589 106 569 125 l 181 125 b 160 146 169 125 160 135 l 160 829 b 181 850 160 840 169 850 l 546 850 b 589 893 569 850 589 869 l 589 932 b 546 975 589 956 569 975 l 56 975 b 35 954 44 975 35 965 b 56 933 35 942 44 933 l 526 933 b 547 913 538 933 547 924 b 526 892 547 901 538 892 l 161 892 b 118 849 138 892 118 872 l 118 126 b 161 83 118 103 138 83 l 526 83 b 547 63 538 83 547 74 b 526 42 547 51 538 42 l 97 42 b 76 63 86 42 76 51 l 76 890 b 56 911 76 901 67 911 b 35 890 44 911 35 901 l 35 43 b 78 0 35 19 54 0 z m 201 499 b 244 456 201 475 221 456 l 486 456 b 529 499 510 456 529 475 l 529 538 b 486 581 529 561 510 581 l 244 581 b 201 538 221 581 201 561 z m 243 518 b 264 539 243 529 253 539 l 467 539 b 488 518 478 539 488 529 b 467 497 488 507 478 497 l 264 497 b 243 518 253 497 243 507 z "},"Ẽ":{"ha":617,"x_min":0,"x_max":0,"o":"m 78 0 l 546 0 b 589 43 569 0 589 19 l 589 82 b 546 125 589 106 569 125 l 181 125 b 160 146 169 125 160 135 l 160 829 b 181 850 160 840 169 850 l 546 850 b 589 893 569 850 589 869 l 589 932 b 546 975 589 956 569 975 l 56 975 b 35 954 44 975 35 965 b 56 933 35 942 44 933 l 526 933 b 547 913 538 933 547 924 b 526 892 547 901 538 892 l 161 892 b 118 849 138 892 118 872 l 118 126 b 161 83 118 103 138 83 l 526 83 b 547 63 538 83 547 74 b 526 42 547 51 538 42 l 97 42 b 76 63 86 42 76 51 l 76 890 b 56 911 76 901 67 911 b 35 890 44 911 35 901 l 35 43 b 78 0 35 19 54 0 z m 115 1167 b 126 1139 111 1154 117 1144 l 175 1121 b 203 1135 186 1117 199 1124 b 233 1171 215 1171 218 1171 b 376 1096 274 1171 294 1096 b 503 1215 460 1096 500 1150 b 482 1236 503 1228 493 1236 l 432 1236 b 410 1214 421 1236 411 1228 b 382 1190 408 1193 403 1190 b 233 1263 342 1190 314 1263 b 115 1167 182 1263 142 1232 z m 157 1181 b 233 1233 176 1215 201 1233 b 382 1157 301 1233 328 1157 b 439 1193 414 1157 431 1171 b 453 1206 440 1200 446 1206 b 467 1186 463 1206 469 1194 b 376 1128 456 1150 424 1128 b 233 1201 311 1128 288 1201 b 183 1168 210 1201 199 1193 b 163 1158 179 1158 171 1154 b 157 1181 154 1163 151 1171 z m 201 499 b 244 456 201 475 221 456 l 486 456 b 529 499 510 456 529 475 l 529 538 b 486 581 529 561 510 581 l 244 581 b 201 538 221 581 201 561 z m 243 518 b 264 539 243 529 253 539 l 467 539 b 488 518 478 539 488 529 b 467 497 488 507 478 497 l 264 497 b 243 518 253 497 243 507 z "},"Ə":{"ha":707,"x_min":0,"x_max":0,"o":"m 403 0 b 679 411 544 10 679 129 b 157 974 679 744 508 974 b 114 932 132 974 114 956 l 114 892 b 157 849 114 868 132 849 b 554 413 421 849 554 692 b 404 126 554 243 506 136 b 385 104 393 125 385 115 b 407 85 385 93 394 83 b 596 413 529 96 596 211 b 175 889 596 696 467 889 b 156 910 164 889 156 899 b 179 931 156 922 165 931 b 638 411 492 931 638 710 b 400 40 638 174 526 50 b 381 19 389 39 381 31 b 403 0 381 8 390 -1 z m 28 325 b 300 -1 28 206 79 10 b 343 40 325 -3 343 17 l 343 82 b 300 125 343 106 325 124 b 153 324 175 135 153 246 b 443 533 153 417 222 533 b 463 556 454 533 463 544 b 440 575 463 567 453 575 b 111 324 206 575 111 442 b 283 83 111 240 140 106 b 301 64 294 82 301 75 b 278 43 301 51 292 42 b 69 325 104 67 69 226 b 443 619 69 513 208 619 b 463 640 454 619 463 629 b 440 660 463 651 453 660 b 28 325 186 660 28 551 z "},"F":{"ha":638,"x_min":0,"x_max":0,"o":"m 92 0 l 131 0 b 174 43 154 0 174 19 l 174 829 b 194 850 174 840 183 850 l 560 850 b 603 893 583 850 603 869 l 603 932 b 560 975 603 956 583 975 l 69 975 b 49 954 58 975 49 965 b 69 933 49 942 58 933 l 540 933 b 561 913 551 933 561 924 b 540 892 561 901 551 892 l 175 892 b 132 849 151 892 132 872 l 132 63 b 111 42 132 51 122 42 b 90 63 100 42 90 51 l 90 890 b 69 911 90 901 81 911 b 49 890 58 911 49 901 l 49 43 b 92 0 49 19 68 0 z m 215 499 b 258 456 215 475 235 456 l 500 456 b 543 499 524 456 543 475 l 543 538 b 500 581 543 561 524 581 l 258 581 b 215 538 235 581 215 561 z m 257 518 b 278 539 257 529 267 539 l 481 539 b 501 518 492 539 501 529 b 481 497 501 507 492 497 l 278 497 b 257 518 267 497 257 507 z "},"G":{"ha":718,"x_min":0,"x_max":0,"o":"m 414 -1 l 436 -1 b 479 42 460 -1 479 18 l 479 81 b 436 124 479 104 460 124 l 415 124 b 160 504 219 124 160 263 b 364 849 160 744 236 839 b 385 869 376 849 385 858 b 363 889 385 881 375 890 b 118 504 213 879 118 764 b 414 82 118 269 179 83 l 417 82 b 438 61 428 82 438 72 b 417 40 438 50 428 40 l 415 40 b 76 506 161 40 76 210 b 364 933 76 814 215 924 b 385 954 376 933 385 943 b 363 975 385 965 375 975 b 35 506 197 964 35 838 b 414 -1 35 228 125 0 z m 251 503 b 294 460 251 479 271 460 l 647 460 b 690 503 671 460 690 479 l 690 542 b 647 585 690 565 671 585 l 294 585 b 251 542 271 585 251 565 z m 293 522 b 314 543 293 533 303 543 l 628 543 b 649 522 639 543 649 533 b 628 501 649 511 639 501 l 314 501 b 293 522 303 501 293 511 z m 426 890 b 469 849 426 867 444 850 b 568 813 508 846 542 833 b 636 818 592 794 619 794 l 660 851 b 656 904 672 869 671 890 b 481 974 611 943 553 968 b 426 932 449 976 426 956 z m 468 910 l 468 913 b 492 931 468 924 479 933 b 613 886 540 925 581 908 b 614 858 621 879 621 868 b 583 854 607 847 594 846 b 486 890 557 872 524 885 b 468 910 475 892 468 900 z m 521 43 b 564 0 521 19 540 0 l 603 0 b 646 43 626 0 646 19 l 646 397 b 625 418 646 408 636 418 l 542 418 b 521 397 531 418 521 408 b 542 376 521 385 531 376 l 583 376 b 604 356 594 376 604 367 l 604 63 b 583 42 604 51 594 42 b 563 63 572 42 563 51 l 563 333 b 542 354 563 344 553 354 b 521 333 531 354 521 344 z "},"Ğ":{"ha":718,"x_min":0,"x_max":0,"o":"m 414 -1 l 436 -1 b 479 42 460 -1 479 18 l 479 81 b 436 124 479 104 460 124 l 415 124 b 160 504 219 124 160 263 b 364 849 160 744 236 839 b 385 869 376 849 385 858 b 363 889 385 881 375 890 b 118 504 213 879 118 764 b 414 82 118 269 179 83 l 417 82 b 438 61 428 82 438 72 b 417 40 438 50 428 40 l 415 40 b 76 506 161 40 76 210 b 364 933 76 814 215 924 b 385 954 376 933 385 943 b 363 975 385 965 375 975 b 35 506 197 964 35 838 b 414 -1 35 228 125 0 z m 233 1289 b 435 1081 233 1201 264 1081 b 619 1269 528 1081 619 1146 b 578 1313 619 1294 601 1313 l 536 1313 b 493 1269 513 1313 493 1294 b 436 1206 493 1221 475 1206 b 360 1292 385 1206 360 1238 b 338 1311 360 1303 349 1311 b 318 1289 326 1311 318 1301 b 436 1164 318 1221 360 1164 b 535 1253 494 1164 535 1197 b 554 1271 535 1264 543 1271 b 575 1247 567 1271 575 1261 b 435 1122 575 1179 508 1122 b 274 1292 303 1122 274 1224 b 253 1311 274 1303 264 1311 b 233 1289 242 1311 233 1301 z m 251 503 b 294 460 251 479 271 460 l 647 460 b 690 503 671 460 690 479 l 690 542 b 647 585 690 565 671 585 l 294 585 b 251 542 271 585 251 565 z m 293 522 b 314 543 293 533 303 543 l 628 543 b 649 522 639 543 649 533 b 628 501 649 511 639 501 l 314 501 b 293 522 303 501 293 511 z m 426 890 b 469 849 426 867 444 850 b 568 813 508 846 542 833 b 636 818 592 794 619 794 l 660 851 b 656 904 672 869 671 890 b 481 974 611 943 553 968 b 426 932 449 976 426 956 z m 468 910 l 468 913 b 492 931 468 924 479 933 b 613 886 540 925 581 908 b 614 858 621 879 621 868 b 583 854 607 847 594 846 b 486 890 557 872 524 885 b 468 910 475 892 468 900 z m 521 43 b 564 0 521 19 540 0 l 603 0 b 646 43 626 0 646 19 l 646 397 b 625 418 646 408 636 418 l 542 418 b 521 397 531 418 521 408 b 542 376 521 385 531 376 l 583 376 b 604 356 594 376 604 367 l 604 63 b 583 42 604 51 594 42 b 563 63 572 42 563 51 l 563 333 b 542 354 563 344 553 354 b 521 333 531 354 521 344 z "},"Ģ":{"ha":718,"x_min":0,"x_max":0,"o":"m 414 -1 l 436 -1 b 479 42 460 -1 479 18 l 479 81 b 436 124 479 104 460 124 l 415 124 b 160 504 219 124 160 263 b 364 849 160 744 236 839 b 385 869 376 849 385 858 b 363 889 385 881 375 890 b 118 504 213 879 118 764 b 414 82 118 269 179 83 l 417 82 b 438 61 428 82 438 72 b 417 40 438 50 428 40 l 415 40 b 76 506 161 40 76 210 b 364 933 76 814 215 924 b 385 954 376 933 385 943 b 363 975 385 965 375 975 b 35 506 197 964 35 838 b 414 -1 35 228 125 0 z m 251 503 b 294 460 251 479 271 460 l 647 460 b 690 503 671 460 690 479 l 690 542 b 647 585 690 565 671 585 l 294 585 b 251 542 271 585 251 565 z m 269 -212 b 290 -269 260 -235 269 -260 l 326 -286 b 383 -265 347 -296 374 -287 l 449 -122 b 428 -65 458 -100 449 -75 l 392 -49 b 335 -69 371 -39 344 -47 z m 293 522 b 314 543 293 533 303 543 l 628 543 b 649 522 639 543 649 533 b 628 501 649 511 639 501 l 314 501 b 293 522 303 501 293 511 z m 317 -212 l 364 -104 b 392 -94 368 -94 382 -90 b 401 -122 401 -99 406 -112 l 354 -231 b 326 -240 350 -240 336 -244 b 317 -212 317 -236 313 -222 z m 426 890 b 469 849 426 867 444 850 b 568 813 508 846 542 833 b 636 818 592 794 619 794 l 660 851 b 656 904 672 869 671 890 b 481 974 611 943 553 968 b 426 932 449 976 426 956 z m 468 910 l 468 913 b 492 931 468 924 479 933 b 613 886 540 925 581 908 b 614 858 621 879 621 868 b 583 854 607 847 594 846 b 486 890 557 872 524 885 b 468 910 475 892 468 900 z m 521 43 b 564 0 521 19 540 0 l 603 0 b 646 43 626 0 646 19 l 646 397 b 625 418 646 408 636 418 l 542 418 b 521 397 531 418 521 408 b 542 376 521 385 531 376 l 583 376 b 604 356 594 376 604 367 l 604 63 b 583 42 604 51 594 42 b 563 63 572 42 563 51 l 563 333 b 542 354 563 344 553 354 b 521 333 531 354 521 344 z "},"Ġ":{"ha":718,"x_min":0,"x_max":0,"o":"m 414 -1 l 436 -1 b 479 42 460 -1 479 18 l 479 81 b 436 124 479 104 460 124 l 415 124 b 160 504 219 124 160 263 b 364 849 160 744 236 839 b 385 869 376 849 385 858 b 363 889 385 881 375 890 b 118 504 213 879 118 764 b 414 82 118 269 179 83 l 417 82 b 438 61 428 82 438 72 b 417 40 438 50 428 40 l 415 40 b 76 506 161 40 76 210 b 364 933 76 814 215 924 b 385 954 376 933 385 943 b 363 975 385 965 375 975 b 35 506 197 964 35 838 b 414 -1 35 228 125 0 z m 251 503 b 294 460 251 479 271 460 l 647 460 b 690 503 671 460 690 479 l 690 542 b 647 585 690 565 671 585 l 294 585 b 251 542 271 585 251 565 z m 293 522 b 314 543 293 533 303 543 l 628 543 b 649 522 639 543 649 533 b 628 501 649 511 639 501 l 314 501 b 293 522 303 501 293 511 z m 364 1117 b 407 1074 364 1093 383 1074 l 446 1074 b 489 1117 469 1074 489 1093 l 489 1208 b 468 1229 489 1219 479 1229 l 385 1229 b 364 1208 374 1229 364 1219 b 385 1188 364 1196 374 1188 l 426 1188 b 447 1167 438 1188 447 1178 l 447 1136 b 426 1115 447 1125 438 1115 b 406 1136 415 1115 406 1125 l 406 1144 b 385 1165 406 1156 396 1165 b 364 1144 374 1165 364 1156 z m 426 890 b 469 849 426 867 444 850 b 568 813 508 846 542 833 b 636 818 592 794 619 794 l 660 851 b 656 904 672 869 671 890 b 481 974 611 943 553 968 b 426 932 449 976 426 956 z m 468 910 l 468 913 b 492 931 468 924 479 933 b 613 886 540 925 581 908 b 614 858 621 879 621 868 b 583 854 607 847 594 846 b 486 890 557 872 524 885 b 468 910 475 892 468 900 z m 521 43 b 564 0 521 19 540 0 l 603 0 b 646 43 626 0 646 19 l 646 397 b 625 418 646 408 636 418 l 542 418 b 521 397 531 418 521 408 b 542 376 521 385 531 376 l 583 376 b 604 356 594 376 604 367 l 604 63 b 583 42 604 51 594 42 b 563 63 572 42 563 51 l 563 333 b 542 354 563 344 553 354 b 521 333 531 354 521 344 z "},"H":{"ha":671,"x_min":0,"x_max":0,"o":"m 554 0 l 593 0 b 636 43 617 0 636 19 l 636 954 b 615 975 636 965 626 975 l 532 975 b 511 954 521 975 511 965 b 532 933 511 942 521 933 l 574 933 b 594 913 585 933 594 924 l 594 63 b 574 42 594 51 585 42 b 553 63 563 42 553 51 l 553 454 b 510 497 553 478 533 497 l 250 497 b 229 518 239 497 229 507 b 250 539 229 529 239 539 l 510 539 b 553 582 533 539 553 558 l 553 890 b 532 911 553 901 543 911 b 511 890 521 911 511 901 l 511 601 b 490 581 511 590 501 581 l 231 581 b 188 538 207 581 188 561 l 188 499 b 231 456 188 475 207 456 l 490 456 b 511 435 501 456 511 446 l 511 43 b 554 0 511 19 531 0 z m 35 43 b 78 0 35 19 54 0 l 117 0 b 160 43 140 0 160 19 l 160 954 b 139 975 160 965 150 975 l 56 975 b 35 954 44 975 35 965 b 56 933 35 942 44 933 l 97 933 b 118 913 108 933 118 924 l 118 63 b 97 42 118 51 108 42 b 76 63 86 42 76 51 l 76 890 b 56 911 76 901 67 911 b 35 890 44 911 35 901 z "},"I":{"ha":194,"x_min":0,"x_max":0,"o":"m 78 0 l 117 0 b 160 43 140 0 160 19 l 160 954 b 139 975 160 965 150 975 l 56 975 b 35 954 44 975 35 965 b 56 933 35 942 44 933 l 97 933 b 118 913 108 933 118 924 l 118 63 b 97 42 118 51 108 42 b 76 63 86 42 76 51 l 76 890 b 56 911 76 901 67 911 b 35 890 44 911 35 901 l 35 43 b 78 0 35 19 54 0 z "},"Ĳ":{"ha":550,"x_min":0,"x_max":0,"o":"m 78 0 l 117 0 b 160 43 140 0 160 19 l 160 954 b 139 975 160 965 150 975 l 56 975 b 35 954 44 975 35 965 b 56 933 35 942 44 933 l 97 933 b 118 913 108 933 118 924 l 118 63 b 97 42 118 51 108 42 b 76 63 86 42 76 51 l 76 890 b 56 911 76 901 67 911 b 35 890 44 911 35 901 l 35 43 b 78 0 35 19 54 0 z m 222 44 b 268 1 222 19 242 0 b 515 308 485 19 515 168 l 515 313 l 515 954 b 494 975 515 965 506 975 l 411 975 b 390 954 400 975 390 965 b 411 933 390 942 400 933 l 453 933 b 474 913 464 933 474 924 l 474 313 b 286 43 474 128 399 51 b 264 64 274 42 264 51 l 264 67 b 285 88 264 78 272 88 b 432 336 378 94 432 144 l 432 339 l 432 890 b 411 911 432 901 422 911 b 390 890 400 911 390 901 l 390 339 b 264 128 390 182 365 136 b 222 86 239 126 222 110 z "},"Í":{"ha":194,"x_min":0,"x_max":0,"o":"m 78 0 l 117 0 b 160 43 140 0 160 19 l 160 954 b 139 975 160 965 150 975 l 56 975 b 35 954 44 975 35 965 b 56 933 35 942 44 933 l 97 933 b 118 913 108 933 118 924 l 118 63 b 97 42 118 51 108 42 b 76 63 86 42 76 51 l 76 890 b 56 911 76 901 67 911 b 35 890 44 911 35 901 l 35 43 b 78 0 35 19 54 0 z m 7 1160 b 28 1103 -3 1138 7 1113 l 64 1086 b 121 1107 85 1076 111 1085 l 186 1250 b 165 1307 196 1272 186 1297 l 129 1324 b 72 1303 108 1333 82 1325 z m 54 1160 l 101 1268 b 129 1278 106 1278 119 1282 b 139 1250 139 1274 143 1260 l 92 1142 b 64 1132 88 1132 74 1128 b 54 1160 54 1136 50 1150 z "},"Î":{"ha":194,"x_min":0,"x_max":0,"o":"m 78 0 l 117 0 b 160 43 140 0 160 19 l 160 954 b 139 975 160 965 150 975 l 56 975 b 35 954 44 975 35 965 b 56 933 35 942 44 933 l 97 933 b 118 913 108 933 118 924 l 118 63 b 97 42 118 51 108 42 b 76 63 86 42 76 51 l 76 890 b 56 911 76 901 67 911 b 35 890 44 911 35 901 l 35 43 b 78 0 35 19 54 0 z m -51 1136 b -36 1111 -54 1126 -47 1114 l 44 1089 b 69 1104 56 1086 67 1093 l 99 1210 l 126 1122 b 178 1092 133 1101 156 1086 l 217 1101 b 246 1154 239 1107 251 1133 l 203 1303 b 164 1332 197 1321 182 1332 l 32 1332 b -7 1303 14 1332 -3 1319 l -35 1199 b -19 1172 -37 1186 -31 1175 b 6 1188 -10 1169 3 1176 l 31 1276 b 50 1290 33 1286 42 1290 l 147 1290 b 167 1276 156 1290 164 1286 l 201 1163 b 186 1138 204 1153 197 1140 b 161 1151 176 1135 164 1142 l 136 1233 b 117 1249 133 1243 125 1249 l 82 1249 b 63 1235 74 1249 65 1244 l 40 1156 b 14 1140 38 1143 25 1138 l -26 1151 b -51 1136 -36 1154 -49 1149 z "},"Ï":{"ha":194,"x_min":0,"x_max":0,"o":"m 78 0 l 117 0 b 160 43 140 0 160 19 l 160 954 b 139 975 160 965 150 975 l 56 975 b 35 954 44 975 35 965 b 56 933 35 942 44 933 l 97 933 b 118 913 108 933 118 924 l 118 63 b 97 42 118 51 108 42 b 76 63 86 42 76 51 l 76 890 b 56 911 76 901 67 911 b 35 890 44 911 35 901 l 35 43 b 78 0 35 19 54 0 z m -49 1138 b -6 1094 -49 1114 -29 1094 l 33 1094 b 76 1138 57 1094 76 1114 l 76 1229 b 56 1250 76 1240 67 1250 l -28 1250 b -49 1229 -39 1250 -49 1240 b -28 1208 -49 1217 -39 1208 l 14 1208 b 35 1188 25 1208 35 1199 l 35 1157 b 14 1136 35 1146 25 1136 b -7 1157 3 1136 -7 1146 l -7 1165 b -28 1186 -7 1176 -17 1186 b -49 1165 -39 1186 -49 1176 z m 118 1138 b 161 1094 118 1114 138 1094 l 200 1094 b 243 1138 224 1094 243 1114 l 243 1229 b 222 1250 243 1240 233 1250 l 139 1250 b 118 1229 128 1250 118 1240 b 139 1208 118 1217 128 1208 l 181 1208 b 201 1188 192 1208 201 1199 l 201 1157 b 181 1136 201 1146 192 1136 b 160 1157 169 1136 160 1146 l 160 1165 b 139 1186 160 1176 150 1186 b 118 1165 128 1186 118 1176 z "},"İ":{"ha":194,"x_min":0,"x_max":0,"o":"m 78 0 l 117 0 b 160 43 140 0 160 19 l 160 954 b 139 975 160 965 150 975 l 56 975 b 35 954 44 975 35 965 b 56 933 35 942 44 933 l 97 933 b 118 913 108 933 118 924 l 118 63 b 97 42 118 51 108 42 b 76 63 86 42 76 51 l 76 890 b 56 911 76 901 67 911 b 35 890 44 911 35 901 l 35 43 b 78 0 35 19 54 0 z m 35 1138 b 78 1094 35 1114 54 1094 l 117 1094 b 160 1138 140 1094 160 1114 l 160 1229 b 139 1250 160 1240 150 1250 l 56 1250 b 35 1229 44 1250 35 1240 b 56 1208 35 1217 44 1208 l 97 1208 b 118 1188 108 1208 118 1199 l 118 1157 b 97 1136 118 1146 108 1136 b 76 1157 86 1136 76 1146 l 76 1165 b 56 1186 76 1176 67 1186 b 35 1165 44 1186 35 1176 z "},"Ì":{"ha":194,"x_min":0,"x_max":0,"o":"m 78 0 l 117 0 b 160 43 140 0 160 19 l 160 954 b 139 975 160 965 150 975 l 56 975 b 35 954 44 975 35 965 b 56 933 35 942 44 933 l 97 933 b 118 913 108 933 118 924 l 118 63 b 97 42 118 51 108 42 b 76 63 86 42 76 51 l 76 890 b 56 911 76 901 67 911 b 35 890 44 911 35 901 l 35 43 b 78 0 35 19 54 0 z m 7 1250 l 72 1107 b 129 1086 82 1085 108 1076 l 165 1103 b 186 1160 186 1113 196 1138 l 121 1303 b 64 1324 111 1325 85 1333 l 28 1307 b 7 1250 7 1297 -3 1272 z m 54 1250 b 64 1278 50 1260 54 1274 b 92 1268 74 1282 88 1278 l 139 1160 b 129 1132 143 1150 139 1136 b 101 1142 119 1128 106 1132 z "},"Ī":{"ha":194,"x_min":0,"x_max":0,"o":"m 78 0 l 117 0 b 160 43 140 0 160 19 l 160 954 b 139 975 160 965 150 975 l 56 975 b 35 954 44 975 35 965 b 56 933 35 942 44 933 l 97 933 b 118 913 108 933 118 924 l 118 63 b 97 42 118 51 108 42 b 76 63 86 42 76 51 l 76 890 b 56 911 76 901 67 911 b 35 890 44 911 35 901 l 35 43 b 78 0 35 19 54 0 z m -67 1144 b -24 1101 -67 1121 -47 1101 l 218 1101 b 261 1144 242 1101 261 1121 l 261 1183 b 218 1226 261 1207 242 1226 l -24 1226 b -67 1183 -47 1226 -67 1207 z m -25 1164 b -4 1185 -25 1175 -15 1185 l 199 1185 b 219 1164 210 1185 219 1175 b 199 1143 219 1153 210 1143 l -4 1143 b -25 1164 -15 1143 -25 1153 z "},"Į":{"ha":194,"x_min":0,"x_max":0,"o":"m 151 14 l 149 14 b 160 43 156 22 160 32 l 160 954 b 139 975 160 965 150 975 l 56 975 b 35 954 44 975 35 965 b 56 933 35 942 44 933 l 97 933 b 118 913 108 933 118 924 l 118 63 b 97 42 118 51 108 42 b 76 63 86 42 76 51 l 76 890 b 56 911 76 901 67 911 b 35 890 44 911 35 901 l 35 43 b 65 1 35 24 47 7 b -57 -187 1 -18 -57 -69 b 132 -372 -57 -281 8 -372 b 175 -331 157 -372 175 -354 l 175 -289 b 132 -246 175 -265 157 -246 b 68 -189 83 -246 68 -228 b 154 -112 68 -137 100 -112 b 174 -90 165 -112 174 -101 b 151 -71 174 -79 164 -71 b 26 -189 83 -71 26 -112 b 115 -287 26 -247 60 -287 b 133 -307 126 -287 133 -296 b 110 -328 133 -319 124 -328 b -15 -187 42 -328 -15 -261 b 154 -26 -15 -56 86 -26 b 174 -6 165 -26 174 -17 b 151 14 174 6 164 14 z "},"Ĩ":{"ha":194,"x_min":0,"x_max":0,"o":"m 78 0 l 117 0 b 160 43 140 0 160 19 l 160 954 b 139 975 160 965 150 975 l 56 975 b 35 954 44 975 35 965 b 56 933 35 942 44 933 l 97 933 b 118 913 108 933 118 924 l 118 63 b 97 42 118 51 108 42 b 76 63 86 42 76 51 l 76 890 b 56 911 76 901 67 911 b 35 890 44 911 35 901 l 35 43 b 78 0 35 19 54 0 z m -96 1167 b -85 1139 -100 1154 -94 1144 l -36 1121 b -8 1135 -25 1117 -12 1124 b 22 1171 4 1171 7 1171 b 165 1096 63 1171 83 1096 b 292 1215 249 1096 289 1150 b 271 1236 292 1228 282 1236 l 221 1236 b 199 1214 210 1236 200 1228 b 171 1190 197 1193 192 1190 b 22 1263 131 1190 103 1263 b -96 1167 -29 1263 -69 1232 z m -54 1181 b 22 1233 -35 1215 -10 1233 b 171 1157 90 1233 117 1157 b 228 1193 203 1157 219 1171 b 242 1206 229 1200 235 1206 b 256 1186 251 1206 258 1194 b 165 1128 244 1150 213 1128 b 22 1201 100 1128 76 1201 b -28 1168 -1 1201 -12 1193 b -49 1158 -32 1158 -40 1154 b -54 1181 -57 1163 -60 1171 z "},"J":{"ha":356,"x_min":0,"x_max":0,"o":"m 74 1 b 321 308 290 19 321 168 l 321 313 l 321 954 b 300 975 321 965 311 975 l 217 975 b 196 954 206 975 196 965 b 217 933 196 942 206 933 l 258 933 b 279 913 269 933 279 924 l 279 313 b 92 43 279 128 204 51 b 69 64 79 42 69 51 l 69 67 b 90 88 69 78 78 88 b 238 336 183 94 238 144 l 238 339 l 238 890 b 217 911 238 901 228 911 b 196 890 206 911 196 901 l 196 339 b 69 128 196 182 171 136 b 28 86 44 126 28 110 l 28 44 b 74 1 28 19 47 0 z "},"K":{"ha":664,"x_min":0,"x_max":0,"o":"m 581 7 l 615 26 b 631 86 636 38 643 65 l 313 633 b 254 650 301 654 275 661 l 219 631 b 204 571 200 619 193 592 l 522 24 b 581 7 535 3 561 -4 z m 35 43 b 78 0 35 19 54 0 l 117 0 b 160 43 140 0 160 19 l 160 954 b 139 975 160 965 150 975 l 56 975 b 35 954 44 975 35 965 b 56 933 35 942 44 933 l 97 933 b 118 913 108 933 118 924 l 118 63 b 97 42 118 51 108 42 b 76 63 86 42 76 51 l 76 890 b 56 911 76 901 67 911 b 35 890 44 911 35 901 z m 251 575 b 258 604 246 585 250 599 b 288 596 268 610 282 606 l 585 82 b 576 53 590 72 586 58 b 549 61 568 47 554 51 z m 371 664 b 392 607 361 642 371 617 l 428 590 b 485 611 449 581 475 589 l 621 901 b 600 958 631 924 621 949 l 564 975 b 507 954 543 985 517 976 z m 418 664 l 536 919 b 564 929 540 929 554 933 b 574 901 574 925 578 911 l 456 646 b 428 636 451 636 438 632 b 418 664 418 640 414 654 z "},"Ķ":{"ha":664,"x_min":0,"x_max":0,"o":"m 581 7 l 615 26 b 631 86 636 38 643 65 l 313 633 b 254 650 301 654 275 661 l 219 631 b 204 571 200 619 193 592 l 522 24 b 581 7 535 3 561 -4 z m 35 43 b 78 0 35 19 54 0 l 117 0 b 160 43 140 0 160 19 l 160 954 b 139 975 160 965 150 975 l 56 975 b 35 954 44 975 35 965 b 56 933 35 942 44 933 l 97 933 b 118 913 108 933 118 924 l 118 63 b 97 42 118 51 108 42 b 76 63 86 42 76 51 l 76 890 b 56 911 76 901 67 911 b 35 890 44 911 35 901 z m 242 -212 b 263 -269 232 -235 242 -260 l 299 -286 b 356 -265 319 -296 346 -287 l 421 -122 b 400 -65 431 -100 421 -75 l 364 -49 b 307 -69 343 -39 317 -47 z m 251 575 b 258 604 246 585 250 599 b 288 596 268 610 282 606 l 585 82 b 576 53 590 72 586 58 b 549 61 568 47 554 51 z m 289 -212 l 336 -104 b 364 -94 340 -94 354 -90 b 374 -122 374 -99 378 -112 l 326 -231 b 299 -240 322 -240 308 -244 b 289 -212 289 -236 285 -222 z m 371 664 b 392 607 361 642 371 617 l 428 590 b 485 611 449 581 475 589 l 621 901 b 600 958 631 924 621 949 l 564 975 b 507 954 543 985 517 976 z m 418 664 l 536 919 b 564 929 540 929 554 933 b 574 901 574 925 578 911 l 456 646 b 428 636 451 636 438 632 b 418 664 418 640 414 654 z "},"L":{"ha":617,"x_min":0,"x_max":0,"o":"m 78 0 l 546 0 b 589 43 569 0 589 19 l 589 82 b 546 125 589 106 569 125 l 181 125 b 160 146 169 125 160 135 l 160 954 b 139 975 160 965 150 975 l 56 975 b 35 954 44 975 35 965 b 56 933 35 942 44 933 l 97 933 b 118 913 108 933 118 924 l 118 83 l 526 83 b 547 63 538 83 547 74 b 526 42 547 51 538 42 l 97 42 b 76 63 86 42 76 51 l 76 890 b 56 911 76 901 67 911 b 35 890 44 911 35 901 l 35 43 b 78 0 35 19 54 0 z "},"Ĺ":{"ha":617,"x_min":0,"x_max":0,"o":"m 78 0 l 546 0 b 589 43 569 0 589 19 l 589 82 b 546 125 589 106 569 125 l 181 125 b 160 146 169 125 160 135 l 160 954 b 139 975 160 965 150 975 l 56 975 b 35 954 44 975 35 965 b 56 933 35 942 44 933 l 97 933 b 118 913 108 933 118 924 l 118 83 l 526 83 b 547 63 538 83 547 74 b 526 42 547 51 538 42 l 97 42 b 76 63 86 42 76 51 l 76 890 b 56 911 76 901 67 911 b 35 890 44 911 35 901 l 35 43 b 78 0 35 19 54 0 z m 133 1163 b 154 1106 124 1140 133 1115 l 190 1089 b 247 1110 211 1079 238 1088 l 313 1253 b 292 1310 322 1275 313 1300 l 256 1326 b 199 1306 235 1336 208 1328 z m 181 1163 l 228 1271 b 256 1281 232 1281 246 1285 b 265 1253 265 1276 269 1263 l 218 1144 b 190 1135 214 1135 200 1131 b 181 1163 181 1139 176 1153 z "},"Ľ":{"ha":617,"x_min":0,"x_max":0,"o":"m 78 0 l 546 0 b 589 43 569 0 589 19 l 589 82 b 546 125 589 106 569 125 l 181 125 b 160 146 169 125 160 135 l 160 954 b 139 975 160 965 150 975 l 56 975 b 35 954 44 975 35 965 b 56 933 35 942 44 933 l 97 933 b 118 913 108 933 118 924 l 118 83 l 526 83 b 547 63 538 83 547 74 b 526 42 547 51 538 42 l 97 42 b 76 63 86 42 76 51 l 76 890 b 56 911 76 901 67 911 b 35 890 44 911 35 901 l 35 43 b 78 0 35 19 54 0 z m 292 519 b 313 463 282 497 292 472 l 349 446 b 406 467 369 436 396 444 l 471 610 b 450 667 481 632 471 657 l 414 683 b 357 663 393 693 367 685 z m 339 519 l 386 628 b 414 638 390 638 404 642 b 424 610 424 633 428 619 l 376 501 b 349 492 372 492 358 488 b 339 519 339 496 335 510 z "},"Ļ":{"ha":617,"x_min":0,"x_max":0,"o":"m 78 0 l 546 0 b 589 43 569 0 589 19 l 589 82 b 546 125 589 106 569 125 l 181 125 b 160 146 169 125 160 135 l 160 954 b 139 975 160 965 150 975 l 56 975 b 35 954 44 975 35 965 b 56 933 35 942 44 933 l 97 933 b 118 913 108 933 118 924 l 118 83 l 526 83 b 547 63 538 83 547 74 b 526 42 547 51 538 42 l 97 42 b 76 63 86 42 76 51 l 76 890 b 56 911 76 901 67 911 b 35 890 44 911 35 901 l 35 43 b 78 0 35 19 54 0 z m 218 -212 b 239 -269 208 -235 218 -260 l 275 -286 b 332 -265 296 -296 322 -287 l 397 -122 b 376 -65 407 -100 397 -75 l 340 -49 b 283 -69 319 -39 293 -47 z m 265 -212 l 313 -104 b 340 -94 317 -94 331 -90 b 350 -122 350 -99 354 -112 l 303 -231 b 275 -240 299 -240 285 -244 b 265 -212 265 -236 261 -222 z "},"Ł":{"ha":617,"x_min":0,"x_max":0,"o":"m 78 0 l 546 0 b 589 43 569 0 589 19 l 589 82 b 546 125 589 106 569 125 l 181 125 b 160 146 169 125 160 135 l 160 457 l 218 461 b 258 508 242 463 261 485 l 254 547 b 208 586 251 571 232 588 l 160 583 l 160 954 b 139 975 160 965 150 975 l 56 975 b 35 954 44 975 35 965 b 56 933 35 942 44 933 l 97 933 b 118 913 108 933 118 924 l 118 83 l 526 83 b 547 63 538 83 547 74 b 526 42 547 51 538 42 l 97 42 b 76 63 86 42 76 51 l 76 890 b 56 911 76 901 67 911 b 35 890 44 911 35 901 l 35 572 l -31 567 b -71 519 -54 565 -74 543 l -67 481 b -21 442 -64 457 -44 440 l 35 446 l 35 43 b 78 0 35 19 54 0 z m -28 504 b -8 526 -28 515 -19 525 l 35 529 l 35 488 l -4 485 b -28 504 -15 483 -26 493 z m 160 499 l 160 540 l 192 543 b 215 524 203 544 214 535 b 196 501 215 513 207 503 z "},"M":{"ha":888,"x_min":0,"x_max":0,"o":"m 771 0 l 810 0 b 853 43 833 0 853 19 l 853 932 b 810 975 853 956 833 975 l 771 975 b 729 946 751 975 736 964 l 422 113 b 449 57 415 92 428 64 l 486 44 b 542 68 508 38 533 46 l 728 581 l 728 43 b 771 0 728 19 747 0 z m 35 954 b 56 933 35 942 44 933 l 118 933 b 136 922 125 933 133 929 l 399 357 b 388 329 404 346 399 335 l 381 325 b 353 336 369 321 358 325 l 161 746 b 142 758 158 753 150 758 b 122 731 128 758 122 747 l 122 63 b 101 42 122 51 113 42 b 81 63 90 42 81 51 l 81 885 b 60 906 81 896 71 906 b 39 885 49 906 39 896 l 39 43 b 82 0 39 19 58 0 l 121 0 b 164 43 144 0 164 19 l 164 642 l 324 299 b 381 278 333 276 358 268 l 425 299 b 444 354 447 308 454 332 l 163 963 b 142 975 160 968 154 975 l 56 975 b 35 954 44 975 35 965 z m 469 117 l 767 922 b 788 933 771 931 778 933 b 811 913 801 933 811 928 l 811 63 b 790 42 811 51 801 42 b 769 63 779 42 769 51 l 769 671 b 749 692 769 682 760 692 l 740 692 b 722 679 732 692 725 686 l 508 100 b 481 89 504 90 493 88 b 469 117 471 93 465 107 z "},"N":{"ha":678,"x_min":0,"x_max":0,"o":"m 82 0 l 121 0 b 164 43 144 0 164 19 l 164 642 l 458 13 b 483 0 463 4 471 0 l 622 0 b 643 21 633 0 643 10 l 643 932 b 600 975 643 956 624 975 l 561 975 b 518 932 538 975 518 956 l 518 196 l 163 963 b 142 975 160 968 154 975 l 56 975 b 35 954 44 975 35 965 b 56 933 35 942 44 933 l 118 933 b 136 922 125 933 133 929 l 519 94 b 540 82 524 86 531 82 b 560 104 550 82 560 89 l 560 913 b 581 933 560 924 569 933 b 601 913 592 933 601 924 l 601 63 b 581 42 601 51 592 42 l 503 42 b 485 53 496 42 488 46 l 161 746 b 142 758 158 753 150 758 b 122 731 128 758 122 747 l 122 63 b 101 42 122 51 113 42 b 81 63 90 42 81 51 l 81 885 b 60 906 81 896 71 906 b 39 885 49 906 39 896 l 39 43 b 82 0 39 19 58 0 z "},"Ń":{"ha":678,"x_min":0,"x_max":0,"o":"m 82 0 l 121 0 b 164 43 144 0 164 19 l 164 642 l 458 13 b 483 0 463 4 471 0 l 622 0 b 643 21 633 0 643 10 l 643 932 b 600 975 643 956 624 975 l 561 975 b 518 932 538 975 518 956 l 518 196 l 163 963 b 142 975 160 968 154 975 l 56 975 b 35 954 44 975 35 965 b 56 933 35 942 44 933 l 118 933 b 136 922 125 933 133 929 l 519 94 b 540 82 524 86 531 82 b 560 104 550 82 560 89 l 560 913 b 581 933 560 924 569 933 b 601 913 592 933 601 924 l 601 63 b 581 42 601 51 592 42 l 503 42 b 485 53 496 42 488 46 l 161 746 b 142 758 158 753 150 758 b 122 731 128 758 122 747 l 122 63 b 101 42 122 51 113 42 b 81 63 90 42 81 51 l 81 885 b 60 906 81 896 71 906 b 39 885 49 906 39 896 l 39 43 b 82 0 39 19 58 0 z m 249 1169 b 269 1113 239 1147 249 1122 l 306 1096 b 363 1117 326 1086 353 1094 l 428 1260 b 407 1317 438 1282 428 1307 l 371 1333 b 314 1313 350 1343 324 1335 z m 296 1169 l 343 1278 b 371 1288 347 1288 361 1292 b 381 1260 381 1283 385 1269 l 333 1151 b 306 1142 329 1142 315 1138 b 296 1169 296 1146 292 1160 z "},"Ň":{"ha":678,"x_min":0,"x_max":0,"o":"m 82 0 l 121 0 b 164 43 144 0 164 19 l 164 642 l 458 13 b 483 0 463 4 471 0 l 622 0 b 643 21 633 0 643 10 l 643 932 b 600 975 643 956 624 975 l 561 975 b 518 932 538 975 518 956 l 518 196 l 163 963 b 142 975 160 968 154 975 l 56 975 b 35 954 44 975 35 965 b 56 933 35 942 44 933 l 118 933 b 136 922 125 933 133 929 l 519 94 b 540 82 524 86 531 82 b 560 104 550 82 560 89 l 560 913 b 581 933 560 924 569 933 b 601 913 592 933 601 924 l 601 63 b 581 42 601 51 592 42 l 503 42 b 485 53 496 42 488 46 l 161 746 b 142 758 158 753 150 758 b 122 731 128 758 122 747 l 122 63 b 101 42 122 51 113 42 b 81 63 90 42 81 51 l 81 885 b 60 906 81 896 71 906 b 39 885 49 906 39 896 l 39 43 b 82 0 39 19 58 0 z m 190 1294 b 215 1279 193 1282 206 1276 l 256 1290 b 282 1275 267 1293 279 1288 l 304 1196 b 324 1182 307 1186 315 1182 l 358 1182 b 378 1197 367 1182 375 1188 l 403 1279 b 428 1293 406 1289 418 1296 b 443 1268 439 1290 446 1278 l 408 1154 b 389 1140 406 1144 397 1140 l 292 1140 b 272 1154 283 1140 275 1144 l 247 1243 b 222 1258 244 1254 232 1261 b 207 1232 211 1256 204 1244 l 235 1128 b 274 1099 239 1111 256 1099 l 406 1099 b 444 1128 424 1099 439 1110 l 488 1276 b 458 1329 493 1297 481 1324 l 419 1339 b 368 1308 397 1344 375 1329 l 340 1221 l 311 1326 b 286 1342 308 1338 297 1344 l 206 1319 b 190 1294 194 1317 188 1304 z "},"Ņ":{"ha":678,"x_min":0,"x_max":0,"o":"m 82 0 l 121 0 b 164 43 144 0 164 19 l 164 642 l 458 13 b 483 0 463 4 471 0 l 622 0 b 643 21 633 0 643 10 l 643 932 b 600 975 643 956 624 975 l 561 975 b 518 932 538 975 518 956 l 518 196 l 163 963 b 142 975 160 968 154 975 l 56 975 b 35 954 44 975 35 965 b 56 933 35 942 44 933 l 118 933 b 136 922 125 933 133 929 l 519 94 b 540 82 524 86 531 82 b 560 104 550 82 560 89 l 560 913 b 581 933 560 924 569 933 b 601 913 592 933 601 924 l 601 63 b 581 42 601 51 592 42 l 503 42 b 485 53 496 42 488 46 l 161 746 b 142 758 158 753 150 758 b 122 731 128 758 122 747 l 122 63 b 101 42 122 51 113 42 b 81 63 90 42 81 51 l 81 885 b 60 906 81 896 71 906 b 39 885 49 906 39 896 l 39 43 b 82 0 39 19 58 0 z m 249 -212 b 269 -269 239 -235 249 -260 l 306 -286 b 363 -265 326 -296 353 -287 l 428 -122 b 407 -65 438 -100 428 -75 l 371 -49 b 314 -69 350 -39 324 -47 z m 296 -212 l 343 -104 b 371 -94 347 -94 361 -90 b 381 -122 381 -99 385 -112 l 333 -231 b 306 -240 329 -240 315 -244 b 296 -212 296 -236 292 -222 z "},"Ñ":{"ha":678,"x_min":0,"x_max":0,"o":"m 82 0 l 121 0 b 164 43 144 0 164 19 l 164 642 l 458 13 b 483 0 463 4 471 0 l 622 0 b 643 21 633 0 643 10 l 643 932 b 600 975 643 956 624 975 l 561 975 b 518 932 538 975 518 956 l 518 196 l 163 963 b 142 975 160 968 154 975 l 56 975 b 35 954 44 975 35 965 b 56 933 35 942 44 933 l 118 933 b 136 922 125 933 133 929 l 519 94 b 540 82 524 86 531 82 b 560 104 550 82 560 89 l 560 913 b 581 933 560 924 569 933 b 601 913 592 933 601 924 l 601 63 b 581 42 601 51 592 42 l 503 42 b 485 53 496 42 488 46 l 161 746 b 142 758 158 753 150 758 b 122 731 128 758 122 747 l 122 63 b 101 42 122 51 113 42 b 81 63 90 42 81 51 l 81 885 b 60 906 81 896 71 906 b 39 885 49 906 39 896 l 39 43 b 82 0 39 19 58 0 z m 146 1176 b 157 1149 142 1164 147 1154 l 206 1131 b 233 1144 217 1126 229 1133 b 264 1181 246 1181 249 1181 b 407 1106 304 1181 325 1106 b 533 1225 490 1106 531 1160 b 513 1246 533 1238 524 1246 l 463 1246 b 440 1224 451 1246 442 1238 b 413 1200 439 1203 433 1200 b 264 1272 372 1200 344 1272 b 146 1176 213 1272 172 1242 z m 188 1190 b 264 1243 207 1225 232 1243 b 413 1167 332 1243 358 1167 b 469 1203 444 1167 461 1181 b 483 1215 471 1210 476 1215 b 497 1196 493 1215 500 1204 b 407 1138 486 1160 454 1138 b 264 1211 342 1138 318 1211 b 214 1178 240 1211 229 1203 b 193 1168 210 1168 201 1164 b 188 1190 185 1172 182 1181 z "},"O":{"ha":818,"x_min":0,"x_max":0,"o":"m 463 -1 b 790 492 711 10 790 228 b 463 974 790 824 628 963 b 440 954 450 975 440 965 b 460 933 440 943 449 933 b 749 492 610 922 749 799 b 485 43 749 249 686 67 b 461 64 471 40 461 51 b 479 83 461 75 468 82 b 707 490 650 106 707 263 b 463 889 707 750 613 878 b 440 869 450 890 440 881 b 460 847 440 858 449 849 b 665 490 589 838 665 731 b 463 125 665 268 615 135 b 419 82 438 124 419 106 l 419 40 b 463 -1 419 17 438 -3 z m 28 482 b 360 0 28 150 190 10 b 382 19 372 -1 382 8 b 363 40 382 31 374 40 b 69 482 208 50 69 174 b 333 931 69 724 132 907 b 357 910 347 932 357 922 b 338 889 357 899 349 890 b 111 483 168 868 111 710 b 356 85 111 224 206 96 b 378 104 368 83 378 93 b 358 126 378 115 369 125 b 153 483 229 136 153 243 b 356 849 153 706 203 839 b 399 892 381 850 399 868 l 399 932 b 356 974 399 956 381 975 b 28 482 107 963 28 746 z "},"Ó":{"ha":818,"x_min":0,"x_max":0,"o":"m 463 -1 b 790 492 711 10 790 228 b 463 974 790 824 628 963 b 440 954 450 975 440 965 b 460 933 440 943 449 933 b 749 492 610 922 749 799 b 485 43 749 249 686 67 b 461 64 471 40 461 51 b 479 83 461 75 468 82 b 707 490 650 106 707 263 b 463 889 707 750 613 878 b 440 869 450 890 440 881 b 460 847 440 858 449 849 b 665 490 589 838 665 731 b 463 125 665 268 615 135 b 419 82 438 124 419 106 l 419 40 b 463 -1 419 17 438 -3 z m 28 482 b 360 0 28 150 190 10 b 382 19 372 -1 382 8 b 363 40 382 31 374 40 b 69 482 208 50 69 174 b 333 931 69 724 132 907 b 357 910 347 932 357 922 b 338 889 357 899 349 890 b 111 483 168 868 111 710 b 356 85 111 224 206 96 b 378 104 368 83 378 93 b 358 126 378 115 369 125 b 153 483 229 136 153 243 b 356 849 153 706 203 839 b 399 892 381 850 399 868 l 399 932 b 356 974 399 956 381 975 b 28 482 107 963 28 746 z m 308 1175 b 329 1118 299 1153 308 1128 l 365 1101 b 422 1122 386 1092 413 1100 l 488 1265 b 467 1322 497 1288 488 1313 l 431 1339 b 374 1318 410 1349 383 1340 z m 356 1175 l 403 1283 b 431 1293 407 1293 421 1297 b 440 1265 440 1289 444 1275 l 393 1157 b 365 1147 389 1147 375 1143 b 356 1175 356 1151 351 1165 z "},"Ô":{"ha":818,"x_min":0,"x_max":0,"o":"m 463 -1 b 790 492 711 10 790 228 b 463 974 790 824 628 963 b 440 954 450 975 440 965 b 460 933 440 943 449 933 b 749 492 610 922 749 799 b 485 43 749 249 686 67 b 461 64 471 40 461 51 b 479 83 461 75 468 82 b 707 490 650 106 707 263 b 463 889 707 750 613 878 b 440 869 450 890 440 881 b 460 847 440 858 449 849 b 665 490 589 838 665 731 b 463 125 665 268 615 135 b 419 82 438 124 419 106 l 419 40 b 463 -1 419 17 438 -3 z m 28 482 b 360 0 28 150 190 10 b 382 19 372 -1 382 8 b 363 40 382 31 374 40 b 69 482 208 50 69 174 b 333 931 69 724 132 907 b 357 910 347 932 357 922 b 338 889 357 899 349 890 b 111 483 168 868 111 710 b 356 85 111 224 206 96 b 378 104 368 83 378 93 b 358 126 378 115 369 125 b 153 483 229 136 153 243 b 356 849 153 706 203 839 b 399 892 381 850 399 868 l 399 932 b 356 974 399 956 381 975 b 28 482 107 963 28 746 z m 250 1151 b 265 1126 247 1142 254 1129 l 346 1104 b 371 1119 357 1101 368 1108 l 400 1225 l 428 1138 b 479 1107 435 1117 457 1101 l 518 1117 b 547 1169 540 1122 553 1149 l 504 1318 b 465 1347 499 1336 483 1347 l 333 1347 b 294 1318 315 1347 299 1335 l 267 1214 b 282 1188 264 1201 271 1190 b 307 1203 292 1185 304 1192 l 332 1292 b 351 1306 335 1301 343 1306 l 449 1306 b 468 1292 457 1306 465 1301 l 503 1178 b 488 1153 506 1168 499 1156 b 463 1167 478 1150 465 1157 l 438 1249 b 418 1264 435 1258 426 1264 l 383 1264 b 364 1250 375 1264 367 1260 l 342 1171 b 315 1156 339 1158 326 1153 l 275 1167 b 250 1151 265 1169 253 1164 z "},"Ö":{"ha":818,"x_min":0,"x_max":0,"o":"m 463 -1 b 790 492 711 10 790 228 b 463 974 790 824 628 963 b 440 954 450 975 440 965 b 460 933 440 943 449 933 b 749 492 610 922 749 799 b 485 43 749 249 686 67 b 461 64 471 40 461 51 b 479 83 461 75 468 82 b 707 490 650 106 707 263 b 463 889 707 750 613 878 b 440 869 450 890 440 881 b 460 847 440 858 449 849 b 665 490 589 838 665 731 b 463 125 665 268 615 135 b 419 82 438 124 419 106 l 419 40 b 463 -1 419 17 438 -3 z m 28 482 b 360 0 28 150 190 10 b 382 19 372 -1 382 8 b 363 40 382 31 374 40 b 69 482 208 50 69 174 b 333 931 69 724 132 907 b 357 910 347 932 357 922 b 338 889 357 899 349 890 b 111 483 168 868 111 710 b 356 85 111 224 206 96 b 378 104 368 83 378 93 b 358 126 378 115 369 125 b 153 483 229 136 153 243 b 356 849 153 706 203 839 b 399 892 381 850 399 868 l 399 932 b 356 974 399 956 381 975 b 28 482 107 963 28 746 z m 253 1153 b 296 1110 253 1129 272 1110 l 335 1110 b 378 1153 358 1110 378 1129 l 378 1244 b 357 1265 378 1256 368 1265 l 274 1265 b 253 1244 263 1265 253 1256 b 274 1224 253 1232 263 1224 l 315 1224 b 336 1203 326 1224 336 1214 l 336 1172 b 315 1151 336 1161 326 1151 b 294 1172 304 1151 294 1161 l 294 1181 b 274 1201 294 1192 285 1201 b 253 1181 263 1201 253 1192 z m 419 1153 b 463 1110 419 1129 439 1110 l 501 1110 b 544 1153 525 1110 544 1129 l 544 1244 b 524 1265 544 1256 535 1265 l 440 1265 b 419 1244 429 1265 419 1256 b 440 1224 419 1232 429 1224 l 482 1224 b 503 1203 493 1224 503 1214 l 503 1172 b 482 1151 503 1161 493 1151 b 461 1172 471 1151 461 1161 l 461 1181 b 440 1201 461 1192 451 1201 b 419 1181 429 1201 419 1192 z "},"Ò":{"ha":818,"x_min":0,"x_max":0,"o":"m 463 -1 b 790 492 711 10 790 228 b 463 974 790 824 628 963 b 440 954 450 975 440 965 b 460 933 440 943 449 933 b 749 492 610 922 749 799 b 485 43 749 249 686 67 b 461 64 471 40 461 51 b 479 83 461 75 468 82 b 707 490 650 106 707 263 b 463 889 707 750 613 878 b 440 869 450 890 440 881 b 460 847 440 858 449 849 b 665 490 589 838 665 731 b 463 125 665 268 615 135 b 419 82 438 124 419 106 l 419 40 b 463 -1 419 17 438 -3 z m 28 482 b 360 0 28 150 190 10 b 382 19 372 -1 382 8 b 363 40 382 31 374 40 b 69 482 208 50 69 174 b 333 931 69 724 132 907 b 357 910 347 932 357 922 b 338 889 357 899 349 890 b 111 483 168 868 111 710 b 356 85 111 224 206 96 b 378 104 368 83 378 93 b 358 126 378 115 369 125 b 153 483 229 136 153 243 b 356 849 153 706 203 839 b 399 892 381 850 399 868 l 399 932 b 356 974 399 956 381 975 b 28 482 107 963 28 746 z m 308 1265 l 374 1122 b 431 1101 383 1100 410 1092 l 467 1118 b 488 1175 488 1128 497 1153 l 422 1318 b 365 1339 413 1340 386 1349 l 329 1322 b 308 1265 308 1313 299 1288 z m 356 1265 b 365 1293 351 1275 356 1289 b 393 1283 375 1297 389 1293 l 440 1175 b 431 1147 444 1165 440 1151 b 403 1157 421 1143 407 1147 z "},"Ő":{"ha":818,"x_min":0,"x_max":0,"o":"m 463 -1 b 790 492 711 10 790 228 b 463 974 790 824 628 963 b 440 954 450 975 440 965 b 460 933 440 943 449 933 b 749 492 610 922 749 799 b 485 43 749 249 686 67 b 461 64 471 40 461 51 b 479 83 461 75 468 82 b 707 490 650 106 707 263 b 463 889 707 750 613 878 b 440 869 450 890 440 881 b 460 847 440 858 449 849 b 665 490 589 838 665 731 b 463 125 665 268 615 135 b 419 82 438 124 419 106 l 419 40 b 463 -1 419 17 438 -3 z m 28 482 b 360 0 28 150 190 10 b 382 19 372 -1 382 8 b 363 40 382 31 374 40 b 69 482 208 50 69 174 b 333 931 69 724 132 907 b 357 910 347 932 357 922 b 338 889 357 899 349 890 b 111 483 168 868 111 710 b 356 85 111 224 206 96 b 378 104 368 83 378 93 b 358 126 378 115 369 125 b 153 483 229 136 153 243 b 356 849 153 706 203 839 b 399 892 381 850 399 868 l 399 932 b 356 974 399 956 381 975 b 28 482 107 963 28 746 z m 217 1175 b 238 1118 207 1153 217 1128 l 274 1101 b 331 1122 294 1092 321 1100 l 396 1265 b 375 1322 406 1288 396 1313 l 339 1339 b 282 1318 318 1349 292 1340 z m 264 1175 l 311 1283 b 339 1293 315 1293 329 1297 b 349 1265 349 1289 353 1275 l 301 1157 b 274 1147 297 1147 283 1143 b 264 1175 264 1151 260 1165 z m 400 1175 b 421 1118 390 1153 400 1128 l 457 1101 b 514 1122 478 1092 504 1100 l 579 1265 b 558 1322 589 1288 579 1313 l 522 1339 b 465 1318 501 1349 475 1340 z m 447 1175 l 494 1283 b 522 1293 499 1293 513 1297 b 532 1265 532 1289 536 1275 l 485 1157 b 457 1147 481 1147 467 1143 b 447 1175 447 1151 443 1165 z "},"Ō":{"ha":818,"x_min":0,"x_max":0,"o":"m 463 -1 b 790 492 711 10 790 228 b 463 974 790 824 628 963 b 440 954 450 975 440 965 b 460 933 440 943 449 933 b 749 492 610 922 749 799 b 485 43 749 249 686 67 b 461 64 471 40 461 51 b 479 83 461 75 468 82 b 707 490 650 106 707 263 b 463 889 707 750 613 878 b 440 869 450 890 440 881 b 460 847 440 858 449 849 b 665 490 589 838 665 731 b 463 125 665 268 615 135 b 419 82 438 124 419 106 l 419 40 b 463 -1 419 17 438 -3 z m 28 482 b 360 0 28 150 190 10 b 382 19 372 -1 382 8 b 363 40 382 31 374 40 b 69 482 208 50 69 174 b 333 931 69 724 132 907 b 357 910 347 932 357 922 b 338 889 357 899 349 890 b 111 483 168 868 111 710 b 356 85 111 224 206 96 b 378 104 368 83 378 93 b 358 126 378 115 369 125 b 153 483 229 136 153 243 b 356 849 153 706 203 839 b 399 892 381 850 399 868 l 399 932 b 356 974 399 956 381 975 b 28 482 107 963 28 746 z m 235 1160 b 278 1117 235 1136 254 1117 l 519 1117 b 563 1160 543 1117 563 1136 l 563 1199 b 519 1242 563 1222 543 1242 l 278 1242 b 235 1199 254 1242 235 1222 z m 276 1179 b 297 1200 276 1190 286 1200 l 500 1200 b 521 1179 511 1200 521 1190 b 500 1158 521 1168 511 1158 l 297 1158 b 276 1179 286 1158 276 1168 z "},"Ø":{"ha":818,"x_min":0,"x_max":0,"o":"m 463 -1 b 790 492 711 10 790 228 b 626 914 790 710 721 844 l 653 988 b 628 1043 663 1008 650 1035 l 590 1056 b 536 1029 569 1064 544 1053 l 514 967 b 463 974 497 969 479 972 b 440 954 450 975 440 965 b 460 933 440 943 449 933 b 749 492 610 922 749 799 b 485 43 749 249 686 67 b 461 64 471 40 461 51 b 479 83 461 75 468 82 b 707 490 650 106 707 263 b 463 889 707 750 613 878 b 440 869 450 890 440 881 b 460 847 440 858 449 849 l 469 846 l 229 188 b 153 483 181 244 153 340 b 356 849 153 706 203 839 b 399 892 381 850 399 868 l 399 932 b 356 974 399 956 381 975 b 28 482 107 963 28 746 b 185 65 28 271 93 138 l 154 -19 b 179 -74 146 -42 158 -67 l 217 -89 b 271 -62 239 -96 264 -85 l 297 10 b 360 0 318 4 339 1 b 382 19 372 -1 382 8 b 363 40 382 31 374 40 b 69 482 208 50 69 174 b 333 931 69 724 132 907 b 357 910 347 932 357 922 b 338 889 357 899 349 890 b 111 483 168 868 111 710 b 356 85 111 224 206 96 b 378 104 368 83 378 93 b 358 126 378 115 369 125 l 340 128 l 582 793 b 665 490 636 738 665 640 b 463 125 665 268 615 135 b 419 82 438 124 419 106 l 419 40 b 463 -1 419 17 438 -3 z m 200 -17 l 221 40 b 257 24 233 33 246 28 l 239 -29 b 213 -42 236 -40 222 -46 b 200 -17 203 -39 196 -25 z m 264 158 l 511 838 b 550 819 525 833 538 826 l 300 139 b 264 158 288 144 275 150 z m 553 954 l 569 997 b 596 1010 572 1008 585 1014 b 608 983 606 1007 613 993 l 592 936 b 553 954 579 943 567 949 z "},"Õ":{"ha":818,"x_min":0,"x_max":0,"o":"m 463 -1 b 790 492 711 10 790 228 b 463 974 790 824 628 963 b 440 954 450 975 440 965 b 460 933 440 943 449 933 b 749 492 610 922 749 799 b 485 43 749 249 686 67 b 461 64 471 40 461 51 b 479 83 461 75 468 82 b 707 490 650 106 707 263 b 463 889 707 750 613 878 b 440 869 450 890 440 881 b 460 847 440 858 449 849 b 665 490 589 838 665 731 b 463 125 665 268 615 135 b 419 82 438 124 419 106 l 419 40 b 463 -1 419 17 438 -3 z m 28 482 b 360 0 28 150 190 10 b 382 19 372 -1 382 8 b 363 40 382 31 374 40 b 69 482 208 50 69 174 b 333 931 69 724 132 907 b 357 910 347 932 357 922 b 338 889 357 899 349 890 b 111 483 168 868 111 710 b 356 85 111 224 206 96 b 378 104 368 83 378 93 b 358 126 378 115 369 125 b 153 483 229 136 153 243 b 356 849 153 706 203 839 b 399 892 381 850 399 868 l 399 932 b 356 974 399 956 381 975 b 28 482 107 963 28 746 z m 206 1182 b 217 1154 201 1169 207 1160 l 265 1136 b 293 1150 276 1132 289 1139 b 324 1186 306 1186 308 1186 b 467 1111 364 1186 385 1111 b 593 1231 550 1111 590 1165 b 572 1251 593 1243 583 1251 l 522 1251 b 500 1229 511 1251 501 1243 b 472 1206 499 1208 493 1206 b 324 1278 432 1206 404 1278 b 206 1182 272 1278 232 1247 z m 247 1196 b 324 1249 267 1231 292 1249 b 472 1172 392 1249 418 1172 b 529 1208 504 1172 521 1186 b 543 1221 531 1215 536 1221 b 557 1201 553 1221 560 1210 b 467 1143 546 1165 514 1143 b 324 1217 401 1143 378 1217 b 274 1183 300 1217 289 1208 b 253 1174 269 1174 261 1169 b 247 1196 244 1178 242 1186 z "},"Œ":{"ha":1333,"x_min":0,"x_max":0,"o":"m 794 0 l 1263 0 b 1306 43 1286 0 1306 19 l 1306 82 b 1263 125 1306 106 1286 125 l 897 125 b 876 146 886 125 876 135 l 876 829 b 897 850 876 840 886 850 l 1263 850 b 1306 893 1286 850 1306 869 l 1306 932 b 1263 975 1306 956 1286 975 l 772 975 b 751 954 761 975 751 965 b 772 933 751 942 761 933 l 1243 933 b 1264 913 1254 933 1264 924 b 1243 892 1264 901 1254 892 l 878 892 b 835 849 854 892 835 872 l 835 126 b 878 83 835 103 854 83 l 1243 83 b 1264 63 1254 83 1264 74 b 1243 42 1264 51 1254 42 l 814 42 b 793 63 803 42 793 51 l 793 890 b 772 911 793 901 783 911 b 751 890 761 911 751 901 l 751 739 b 463 974 693 894 579 965 b 440 954 450 975 440 965 b 460 933 440 943 449 933 b 749 492 610 922 749 799 b 485 43 749 249 686 67 b 461 64 471 40 461 51 b 479 83 461 75 468 82 b 707 490 650 106 707 263 b 463 889 707 750 613 878 b 440 869 450 890 440 881 b 460 847 440 858 449 849 b 665 490 589 838 665 731 b 463 125 665 268 615 135 b 419 82 438 124 419 106 l 419 40 b 463 -1 419 17 438 -3 b 751 221 617 6 706 93 l 751 43 b 794 0 751 19 771 0 z m 28 482 b 360 0 28 150 190 10 b 382 19 372 -1 382 8 b 363 40 382 31 374 40 b 69 482 208 50 69 174 b 333 931 69 724 132 907 b 357 910 347 932 357 922 b 338 889 357 899 349 890 b 111 483 168 868 111 710 b 356 85 111 224 206 96 b 378 104 368 83 378 93 b 358 126 378 115 369 125 b 153 483 229 136 153 243 b 356 849 153 706 203 839 b 399 892 381 850 399 868 l 399 932 b 356 974 399 956 381 975 b 28 482 107 963 28 746 z m 918 499 b 961 456 918 475 938 456 l 1203 456 b 1246 499 1226 456 1246 475 l 1246 538 b 1203 581 1246 561 1226 581 l 961 581 b 918 538 938 581 918 561 z m 960 518 b 981 539 960 529 969 539 l 1183 539 b 1204 518 1194 539 1204 529 b 1183 497 1204 507 1194 497 l 981 497 b 960 518 969 497 960 507 z "},"P":{"ha":678,"x_min":0,"x_max":0,"o":"m 240 276 b 664 631 569 283 664 446 b 238 975 664 940 406 972 b 196 932 214 975 196 956 l 196 892 b 239 849 196 868 214 849 b 539 629 382 847 539 832 b 240 401 539 488 478 407 b 196 358 214 401 196 382 l 196 319 b 240 276 196 296 214 276 z m 35 43 b 78 0 35 19 54 0 l 117 0 b 160 43 140 0 160 19 l 160 958 b 139 975 160 969 150 975 l 56 975 b 35 954 44 975 35 965 b 56 933 35 942 44 933 l 97 933 b 118 913 108 933 118 924 l 118 63 b 97 42 118 51 108 42 b 76 63 86 42 76 51 l 76 890 b 56 911 76 901 67 911 b 35 890 44 911 35 901 z m 238 339 b 258 360 238 350 246 360 b 581 629 506 371 581 475 b 258 890 581 860 404 886 b 238 911 246 890 238 900 b 260 933 238 924 247 933 b 622 631 419 929 622 892 b 261 318 622 464 546 331 b 238 339 247 318 238 328 z "},"Þ":{"ha":678,"x_min":0,"x_max":0,"o":"m 240 179 b 664 533 569 186 664 349 b 238 878 664 843 406 875 b 196 835 214 878 196 858 l 196 794 b 239 751 196 771 214 751 b 539 532 382 750 539 735 b 240 304 539 390 478 310 b 196 261 214 304 196 285 l 196 222 b 240 179 196 199 214 179 z m 35 43 b 78 0 35 19 54 0 l 117 0 b 160 43 140 0 160 19 l 160 958 b 139 975 160 969 150 975 l 56 975 b 35 954 44 975 35 965 b 56 933 35 942 44 933 l 97 933 b 118 913 108 933 118 924 l 118 63 b 97 42 118 51 108 42 b 76 63 86 42 76 51 l 76 890 b 56 911 76 901 67 911 b 35 890 44 911 35 901 z m 238 242 b 258 263 238 253 246 263 b 581 532 506 274 581 378 b 258 793 581 763 404 789 b 238 814 246 793 238 803 b 260 836 238 826 247 836 b 622 533 419 832 622 794 b 261 221 622 367 546 233 b 238 242 247 221 238 231 z "},"Q":{"ha":813,"x_min":0,"x_max":0,"o":"m 469 -1 b 797 506 718 11 797 243 b 469 975 797 838 635 964 b 447 954 457 975 447 965 b 468 933 447 943 456 933 b 756 506 617 924 756 813 b 492 43 756 263 693 68 b 468 64 478 40 468 51 b 486 83 468 75 475 82 b 714 504 657 107 714 276 b 469 889 714 764 619 879 b 447 869 457 890 447 881 b 468 849 447 858 456 849 b 672 504 596 839 672 744 b 468 125 672 282 622 138 b 426 83 444 124 426 107 l 426 42 b 469 -1 426 18 444 -3 z m 35 468 b 367 -1 35 136 197 10 b 389 19 379 -1 389 8 b 368 40 389 31 381 40 b 76 468 215 50 76 160 b 340 931 76 710 139 906 b 364 910 354 932 364 922 b 346 889 364 899 356 890 b 118 469 175 867 118 696 b 363 85 118 210 213 94 b 385 104 375 83 385 93 b 364 125 385 115 376 125 b 160 469 236 135 160 229 b 364 849 160 692 210 836 b 406 890 388 850 406 867 l 406 931 b 363 974 406 954 388 975 b 35 468 114 961 35 731 z m 583 -97 l 754 -268 b 785 -281 763 -276 774 -281 b 815 -268 796 -281 807 -276 l 843 -240 b 856 -210 851 -232 856 -221 b 843 -179 856 -199 851 -187 l 672 -8 b 611 -8 656 8 628 8 l 583 -36 b 583 -97 567 -53 567 -81 z m 621 -67 b 642 -46 621 -53 629 -46 b 657 -51 647 -46 653 -47 l 800 -194 b 807 -210 804 -199 807 -204 b 785 -231 807 -221 797 -231 b 771 -225 779 -231 775 -229 l 626 -81 b 621 -67 622 -76 621 -72 z "},"R":{"ha":692,"x_min":0,"x_max":0,"o":"m 78 0 l 117 0 b 160 43 140 0 160 19 l 160 828 b 181 849 160 839 169 849 b 539 629 372 849 539 839 b 246 401 539 488 478 407 b 201 360 219 401 201 383 l 201 319 b 246 276 201 296 219 276 b 664 631 569 283 664 446 b 160 975 664 961 369 975 l 56 975 b 35 954 44 975 35 965 b 56 933 35 942 44 933 l 188 933 b 622 631 400 933 622 904 b 267 319 622 464 546 331 b 243 339 253 318 243 328 b 264 360 243 350 251 360 b 581 629 506 371 581 475 b 161 890 581 858 415 888 b 118 847 136 890 118 871 l 118 63 b 97 42 118 51 108 42 b 76 63 86 42 76 51 l 76 890 b 56 911 76 901 67 911 b 35 890 44 911 35 901 l 35 43 b 78 0 35 19 54 0 z m 361 182 l 532 11 b 593 11 549 -6 576 -6 l 619 38 b 619 99 636 54 636 82 l 449 269 b 388 269 432 286 404 286 l 361 243 b 361 182 344 226 344 199 z m 404 197 b 404 226 396 206 396 219 b 433 226 411 235 425 235 l 576 83 b 576 54 585 75 585 61 b 547 54 569 46 556 46 z "},"Ŕ":{"ha":692,"x_min":0,"x_max":0,"o":"m 78 0 l 117 0 b 160 43 140 0 160 19 l 160 828 b 181 849 160 839 169 849 b 539 629 372 849 539 839 b 246 401 539 488 478 407 b 201 360 219 401 201 383 l 201 319 b 246 276 201 296 219 276 b 664 631 569 283 664 446 b 160 975 664 961 369 975 l 56 975 b 35 954 44 975 35 965 b 56 933 35 942 44 933 l 188 933 b 622 631 400 933 622 904 b 267 319 622 464 546 331 b 243 339 253 318 243 328 b 264 360 243 350 251 360 b 581 629 506 371 581 475 b 161 890 581 858 415 888 b 118 847 136 890 118 871 l 118 63 b 97 42 118 51 108 42 b 76 63 86 42 76 51 l 76 890 b 56 911 76 901 67 911 b 35 890 44 911 35 901 l 35 43 b 78 0 35 19 54 0 z m 222 1164 b 243 1107 213 1142 222 1117 l 279 1090 b 336 1111 300 1081 326 1089 l 401 1254 b 381 1311 411 1276 401 1301 l 344 1328 b 288 1307 324 1338 297 1329 z m 269 1164 l 317 1272 b 344 1282 321 1282 335 1286 b 354 1254 354 1278 358 1264 l 307 1146 b 279 1136 303 1136 289 1132 b 269 1164 269 1140 265 1154 z m 361 182 l 532 11 b 593 11 549 -6 576 -6 l 619 38 b 619 99 636 54 636 82 l 449 269 b 388 269 432 286 404 286 l 361 243 b 361 182 344 226 344 199 z m 404 197 b 404 226 396 206 396 219 b 433 226 411 235 425 235 l 576 83 b 576 54 585 75 585 61 b 547 54 569 46 556 46 z "},"Ř":{"ha":692,"x_min":0,"x_max":0,"o":"m 78 0 l 117 0 b 160 43 140 0 160 19 l 160 828 b 181 849 160 839 169 849 b 539 629 372 849 539 839 b 246 401 539 488 478 407 b 201 360 219 401 201 383 l 201 319 b 246 276 201 296 219 276 b 664 631 569 283 664 446 b 160 975 664 961 369 975 l 56 975 b 35 954 44 975 35 965 b 56 933 35 942 44 933 l 188 933 b 622 631 400 933 622 904 b 267 319 622 464 546 331 b 243 339 253 318 243 328 b 264 360 243 350 251 360 b 581 629 506 371 581 475 b 161 890 581 858 415 888 b 118 847 136 890 118 871 l 118 63 b 97 42 118 51 108 42 b 76 63 86 42 76 51 l 76 890 b 56 911 76 901 67 911 b 35 890 44 911 35 901 l 35 43 b 78 0 35 19 54 0 z m 164 1289 b 189 1274 167 1276 179 1271 l 229 1285 b 256 1269 240 1288 253 1282 l 278 1190 b 297 1176 281 1181 289 1176 l 332 1176 b 351 1192 340 1176 349 1182 l 376 1274 b 401 1288 379 1283 392 1290 b 417 1263 413 1285 419 1272 l 382 1149 b 363 1135 379 1139 371 1135 l 265 1135 b 246 1149 257 1135 249 1139 l 221 1238 b 196 1253 218 1249 206 1256 b 181 1226 185 1250 178 1239 l 208 1122 b 247 1093 213 1106 229 1093 l 379 1093 b 418 1122 397 1093 413 1104 l 461 1271 b 432 1324 467 1292 454 1318 l 393 1333 b 342 1303 371 1339 349 1324 l 314 1215 l 285 1321 b 260 1336 282 1332 271 1339 l 179 1314 b 164 1289 168 1311 161 1299 z m 361 182 l 532 11 b 593 11 549 -6 576 -6 l 619 38 b 619 99 636 54 636 82 l 449 269 b 388 269 432 286 404 286 l 361 243 b 361 182 344 226 344 199 z m 404 197 b 404 226 396 206 396 219 b 433 226 411 235 425 235 l 576 83 b 576 54 585 75 585 61 b 547 54 569 46 556 46 z "},"Ŗ":{"ha":692,"x_min":0,"x_max":0,"o":"m 78 0 l 117 0 b 160 43 140 0 160 19 l 160 828 b 181 849 160 839 169 849 b 539 629 372 849 539 839 b 246 401 539 488 478 407 b 201 360 219 401 201 383 l 201 319 b 246 276 201 296 219 276 b 664 631 569 283 664 446 b 160 975 664 961 369 975 l 56 975 b 35 954 44 975 35 965 b 56 933 35 942 44 933 l 188 933 b 622 631 400 933 622 904 b 267 319 622 464 546 331 b 243 339 253 318 243 328 b 264 360 243 350 251 360 b 581 629 506 371 581 475 b 161 890 581 858 415 888 b 118 847 136 890 118 871 l 118 63 b 97 42 118 51 108 42 b 76 63 86 42 76 51 l 76 890 b 56 911 76 901 67 911 b 35 890 44 911 35 901 l 35 43 b 78 0 35 19 54 0 z m 256 -212 b 276 -269 246 -235 256 -260 l 313 -286 b 369 -265 333 -296 360 -287 l 435 -122 b 414 -65 444 -100 435 -75 l 378 -49 b 321 -69 357 -39 331 -47 z m 303 -212 l 350 -104 b 378 -94 354 -94 368 -90 b 388 -122 388 -99 392 -112 l 340 -231 b 313 -240 336 -240 322 -244 b 303 -212 303 -236 299 -222 z m 361 182 l 532 11 b 593 11 549 -6 576 -6 l 619 38 b 619 99 636 54 636 82 l 449 269 b 388 269 432 286 404 286 l 361 243 b 361 182 344 226 344 199 z m 404 197 b 404 226 396 206 396 219 b 433 226 411 235 425 235 l 576 83 b 576 54 585 75 585 61 b 547 54 569 46 556 46 z "},"S":{"ha":721,"x_min":0,"x_max":0,"o":"m 368 0 b 693 279 614 15 693 154 b 153 710 693 561 153 531 b 322 849 153 793 211 843 b 343 869 335 849 343 858 b 321 890 343 881 333 890 b 111 710 171 881 111 788 b 651 279 111 494 651 531 b 388 42 651 176 589 61 b 364 63 375 40 364 50 b 383 83 364 74 372 82 b 610 267 553 101 610 200 b 69 711 610 500 69 460 b 322 932 69 806 133 924 b 343 953 335 932 343 942 b 321 974 343 964 333 974 b 28 711 111 964 28 832 b 568 267 28 428 568 460 b 364 126 568 199 504 136 b 322 85 340 125 322 108 l 322 43 b 368 0 322 18 342 -1 z m 47 124 b 54 69 35 107 38 83 b 229 1 107 25 158 7 b 281 44 258 0 281 19 l 281 86 b 240 128 281 108 264 126 b 138 164 199 132 165 143 b 71 157 114 181 88 181 z m 92 117 l 93 118 b 124 121 103 128 113 129 b 221 85 150 103 183 90 b 239 65 232 83 239 75 l 239 63 b 215 44 239 51 228 42 b 93 90 167 50 126 67 b 92 117 86 96 83 108 z m 385 888 b 425 846 385 865 401 849 b 526 808 467 842 500 829 b 594 814 550 789 576 790 l 618 846 b 614 899 631 864 629 885 b 442 972 569 938 513 963 b 385 931 408 975 385 956 z m 426 910 l 426 913 b 451 931 426 924 438 933 b 571 881 499 924 539 904 b 572 853 579 874 579 863 b 542 849 565 842 553 842 b 444 889 515 868 482 883 b 426 910 433 892 426 900 z "},"Ś":{"ha":721,"x_min":0,"x_max":0,"o":"m 368 0 b 693 279 614 15 693 154 b 153 710 693 561 153 531 b 322 849 153 793 211 843 b 343 869 335 849 343 858 b 321 890 343 881 333 890 b 111 710 171 881 111 788 b 651 279 111 494 651 531 b 388 42 651 176 589 61 b 364 63 375 40 364 50 b 383 83 364 74 372 82 b 610 267 553 101 610 200 b 69 711 610 500 69 460 b 322 932 69 806 133 924 b 343 953 335 932 343 942 b 321 974 343 964 333 974 b 28 711 111 964 28 832 b 568 267 28 428 568 460 b 364 126 568 199 504 136 b 322 85 340 125 322 108 l 322 43 b 368 0 322 18 342 -1 z m 47 124 b 54 69 35 107 38 83 b 229 1 107 25 158 7 b 281 44 258 0 281 19 l 281 86 b 240 128 281 108 264 126 b 138 164 199 132 165 143 b 71 157 114 181 88 181 z m 92 117 l 93 118 b 124 121 103 128 113 129 b 221 85 150 103 183 90 b 239 65 232 83 239 75 l 239 63 b 215 44 239 51 228 42 b 93 90 167 50 126 67 b 92 117 86 96 83 108 z m 294 1172 b 315 1115 285 1150 294 1125 l 351 1099 b 408 1119 372 1089 399 1097 l 474 1263 b 453 1319 483 1285 474 1310 l 417 1336 b 360 1315 396 1346 369 1338 z m 342 1172 l 389 1281 b 417 1290 393 1290 407 1294 b 426 1263 426 1286 431 1272 l 379 1154 b 351 1144 375 1144 361 1140 b 342 1172 342 1149 338 1163 z m 385 888 b 425 846 385 865 401 849 b 526 808 467 842 500 829 b 594 814 550 789 576 790 l 618 846 b 614 899 631 864 629 885 b 442 972 569 938 513 963 b 385 931 408 975 385 956 z m 426 910 l 426 913 b 451 931 426 924 438 933 b 571 881 499 924 539 904 b 572 853 579 874 579 863 b 542 849 565 842 553 842 b 444 889 515 868 482 883 b 426 910 433 892 426 900 z "},"Š":{"ha":721,"x_min":0,"x_max":0,"o":"m 368 0 b 693 279 614 15 693 154 b 153 710 693 561 153 531 b 322 849 153 793 211 843 b 343 869 335 849 343 858 b 321 890 343 881 333 890 b 111 710 171 881 111 788 b 651 279 111 494 651 531 b 388 42 651 176 589 61 b 364 63 375 40 364 50 b 383 83 364 74 372 82 b 610 267 553 101 610 200 b 69 711 610 500 69 460 b 322 932 69 806 133 924 b 343 953 335 932 343 942 b 321 974 343 964 333 974 b 28 711 111 964 28 832 b 568 267 28 428 568 460 b 364 126 568 199 504 136 b 322 85 340 125 322 108 l 322 43 b 368 0 322 18 342 -1 z m 47 124 b 54 69 35 107 38 83 b 229 1 107 25 158 7 b 281 44 258 0 281 19 l 281 86 b 240 128 281 108 264 126 b 138 164 199 132 165 143 b 71 157 114 181 88 181 z m 92 117 l 93 118 b 124 121 103 128 113 129 b 221 85 150 103 183 90 b 239 65 232 83 239 75 l 239 63 b 215 44 239 51 228 42 b 93 90 167 50 126 67 b 92 117 86 96 83 108 z m 236 1297 b 261 1282 239 1285 251 1279 l 301 1293 b 328 1278 313 1296 325 1290 l 350 1199 b 369 1185 353 1189 361 1185 l 404 1185 b 424 1200 413 1185 421 1190 l 449 1282 b 474 1296 451 1292 464 1299 b 489 1271 485 1293 492 1281 l 454 1157 b 435 1143 451 1147 443 1143 l 338 1143 b 318 1157 329 1143 321 1147 l 293 1246 b 268 1261 290 1257 278 1264 b 253 1235 257 1258 250 1247 l 281 1131 b 319 1101 285 1114 301 1101 l 451 1101 b 490 1131 469 1101 485 1113 l 533 1279 b 504 1332 539 1300 526 1326 l 465 1342 b 414 1311 443 1347 421 1332 l 386 1224 l 357 1329 b 332 1344 354 1340 343 1347 l 251 1322 b 236 1297 240 1319 233 1307 z m 385 888 b 425 846 385 865 401 849 b 526 808 467 842 500 829 b 594 814 550 789 576 790 l 618 846 b 614 899 631 864 629 885 b 442 972 569 938 513 963 b 385 931 408 975 385 956 z m 426 910 l 426 913 b 451 931 426 924 438 933 b 571 881 499 924 539 904 b 572 853 579 874 579 863 b 542 849 565 842 553 842 b 444 889 515 868 482 883 b 426 910 433 892 426 900 z "},"Ş":{"ha":721,"x_min":0,"x_max":0,"o":"m 368 0 b 693 279 614 15 693 154 b 153 710 693 561 153 531 b 322 849 153 793 211 843 b 343 869 335 849 343 858 b 321 890 343 881 333 890 b 111 710 171 881 111 788 b 651 279 111 494 651 531 b 388 42 651 176 589 61 b 364 63 375 40 364 50 b 383 83 364 74 372 82 b 610 267 553 101 610 200 b 69 711 610 500 69 460 b 322 932 69 806 133 924 b 343 953 335 932 343 942 b 321 974 343 964 333 974 b 28 711 111 964 28 832 b 568 267 28 428 568 460 b 364 126 568 199 504 136 b 322 85 340 125 322 108 l 322 43 b 368 0 322 18 342 -1 z m 47 124 b 54 69 35 107 38 83 b 229 1 107 25 158 7 b 281 44 258 0 281 19 l 281 86 b 240 128 281 108 264 126 b 138 164 199 132 165 143 b 71 157 114 181 88 181 z m 92 117 l 93 118 b 124 121 103 128 113 129 b 221 85 150 103 183 90 b 239 65 232 83 239 75 l 239 63 b 215 44 239 51 228 42 b 93 90 167 50 126 67 b 92 117 86 96 83 108 z m 244 -385 b 288 -426 244 -408 263 -426 b 476 -256 411 -426 476 -335 b 393 -110 476 -178 440 -133 l 404 -65 b 390 -40 407 -53 401 -43 b 364 -56 379 -37 367 -44 l 349 -117 b 364 -143 346 -128 353 -140 b 435 -256 403 -162 435 -197 b 310 -382 435 -315 378 -382 b 286 -361 296 -382 286 -374 b 304 -342 286 -350 293 -342 b 393 -257 360 -342 393 -301 b 299 -169 393 -217 353 -181 l 328 -65 b 314 -40 331 -53 325 -43 b 288 -56 303 -37 290 -44 l 256 -169 b 246 -186 250 -174 246 -179 b 265 -208 246 -197 254 -208 b 351 -257 319 -208 351 -233 b 288 -300 351 -282 336 -300 b 244 -343 263 -300 244 -319 z m 385 888 b 425 846 385 865 401 849 b 526 808 467 842 500 829 b 594 814 550 789 576 790 l 618 846 b 614 899 631 864 629 885 b 442 972 569 938 513 963 b 385 931 408 975 385 956 z m 426 910 l 426 913 b 451 931 426 924 438 933 b 571 881 499 924 539 904 b 572 853 579 874 579 863 b 542 849 565 842 553 842 b 444 889 515 868 482 883 b 426 910 433 892 426 900 z "},"Ș":{"ha":721,"x_min":0,"x_max":0,"o":"m 368 0 b 693 279 614 15 693 154 b 153 710 693 561 153 531 b 322 849 153 793 211 843 b 343 869 335 849 343 858 b 321 890 343 881 333 890 b 111 710 171 881 111 788 b 651 279 111 494 651 531 b 388 42 651 176 589 61 b 364 63 375 40 364 50 b 383 83 364 74 372 82 b 610 267 553 101 610 200 b 69 711 610 500 69 460 b 322 932 69 806 133 924 b 343 953 335 932 343 942 b 321 974 343 964 333 974 b 28 711 111 964 28 832 b 568 267 28 428 568 460 b 364 126 568 199 504 136 b 322 85 340 125 322 108 l 322 43 b 368 0 322 18 342 -1 z m 47 124 b 54 69 35 107 38 83 b 229 1 107 25 158 7 b 281 44 258 0 281 19 l 281 86 b 240 128 281 108 264 126 b 138 164 199 132 165 143 b 71 157 114 181 88 181 z m 92 117 l 93 118 b 124 121 103 128 113 129 b 221 85 150 103 183 90 b 239 65 232 83 239 75 l 239 63 b 215 44 239 51 228 42 b 93 90 167 50 126 67 b 92 117 86 96 83 108 z m 271 -212 b 292 -269 261 -235 271 -260 l 328 -286 b 385 -265 349 -296 375 -287 l 450 -122 b 429 -65 460 -100 450 -75 l 393 -49 b 336 -69 372 -39 346 -47 z m 318 -212 l 365 -104 b 393 -94 369 -94 383 -90 b 403 -122 403 -99 407 -112 l 356 -231 b 328 -240 351 -240 338 -244 b 318 -212 318 -236 314 -222 z m 385 888 b 425 846 385 865 401 849 b 526 808 467 842 500 829 b 594 814 550 789 576 790 l 618 846 b 614 899 631 864 629 885 b 442 972 569 938 513 963 b 385 931 408 975 385 956 z m 426 910 l 426 913 b 451 931 426 924 438 933 b 571 881 499 924 539 904 b 572 853 579 874 579 863 b 542 849 565 842 553 842 b 444 889 515 868 482 883 b 426 910 433 892 426 900 z "},"ẞ":{"ha":699,"x_min":0,"x_max":0,"o":"m 376 685 l 410 665 b 469 682 431 653 457 661 l 568 850 b 589 913 581 871 589 896 l 589 932 b 546 975 589 956 569 975 l 365 975 b 35 638 190 974 39 901 l 35 21 b 56 0 35 10 44 0 b 76 21 67 0 76 10 l 76 628 b 372 933 76 874 203 933 l 526 933 b 547 913 538 933 547 924 b 531 868 547 899 539 883 l 442 718 b 414 711 438 710 425 707 b 407 740 404 717 401 731 l 450 813 b 406 892 474 851 450 892 l 365 892 b 118 638 210 889 121 808 l 118 21 b 139 0 118 10 128 0 b 160 21 150 0 160 10 l 160 629 b 374 850 160 786 229 850 l 378 850 b 401 810 400 850 413 829 l 361 744 b 376 685 349 724 357 696 z m 201 575 b 244 532 201 550 219 533 b 539 339 404 531 539 488 b 226 126 539 222 460 132 b 204 107 214 126 204 118 b 226 86 204 94 214 86 b 581 339 513 93 581 221 b 264 572 581 501 454 563 b 243 593 251 574 243 582 l 243 594 b 265 614 243 606 253 615 b 622 340 460 604 622 542 b 226 44 622 200 549 51 b 204 25 214 44 204 36 b 226 4 204 14 214 4 b 664 340 582 11 664 181 b 244 657 664 588 461 654 b 201 615 219 657 201 639 z "},"T":{"ha":717,"x_min":0,"x_max":0,"o":"m 340 0 l 379 0 b 422 43 403 0 422 19 l 422 754 b 401 775 422 765 413 775 l 318 775 b 297 754 307 775 297 765 b 318 733 297 742 307 733 l 360 733 b 381 713 371 733 381 724 l 381 63 b 360 42 381 51 371 42 b 339 63 349 42 339 51 l 339 690 b 318 711 339 701 329 711 b 297 690 307 711 297 701 l 297 43 b 340 0 297 19 317 0 z m 28 860 b 71 817 28 836 47 817 l 646 817 b 689 860 669 817 689 836 l 689 899 b 646 942 689 922 669 942 l 71 942 b 28 899 47 942 28 922 z m 69 879 b 90 900 69 890 79 900 l 626 900 b 647 879 638 900 647 890 b 626 858 647 868 638 858 l 90 858 b 69 879 79 858 69 868 z "},"Ť":{"ha":717,"x_min":0,"x_max":0,"o":"m 340 0 l 379 0 b 422 43 403 0 422 19 l 422 754 b 401 775 422 765 413 775 l 318 775 b 297 754 307 775 297 765 b 318 733 297 742 307 733 l 360 733 b 381 713 371 733 381 724 l 381 63 b 360 42 381 51 371 42 b 339 63 349 42 339 51 l 339 690 b 318 711 339 701 329 711 b 297 690 307 711 297 701 l 297 43 b 340 0 297 19 317 0 z m 28 860 b 71 817 28 836 47 817 l 646 817 b 689 860 669 817 689 836 l 689 899 b 646 942 689 922 669 942 l 71 942 b 28 899 47 942 28 922 z m 69 879 b 90 900 69 890 79 900 l 626 900 b 647 879 638 900 647 890 b 626 858 647 868 638 858 l 90 858 b 69 879 79 858 69 868 z m 210 1281 b 235 1265 213 1268 225 1263 l 275 1276 b 301 1261 286 1279 299 1274 l 324 1182 b 343 1168 326 1172 335 1168 l 378 1168 b 397 1183 386 1168 394 1174 l 422 1265 b 447 1279 425 1275 438 1282 b 463 1254 458 1276 465 1264 l 428 1140 b 408 1126 425 1131 417 1126 l 311 1126 b 292 1140 303 1126 294 1131 l 267 1229 b 242 1244 264 1240 251 1247 b 226 1218 231 1242 224 1231 l 254 1114 b 293 1085 258 1097 275 1085 l 425 1085 b 464 1114 443 1085 458 1096 l 507 1263 b 478 1315 513 1283 500 1310 l 439 1325 b 388 1294 417 1331 394 1315 l 360 1207 l 331 1313 b 306 1328 328 1324 317 1331 l 225 1306 b 210 1281 214 1303 207 1290 z "},"Ţ":{"ha":717,"x_min":0,"x_max":0,"o":"m 340 0 l 379 0 b 422 43 403 0 422 19 l 422 754 b 401 775 422 765 413 775 l 318 775 b 297 754 307 775 297 765 b 318 733 297 742 307 733 l 360 733 b 381 713 371 733 381 724 l 381 63 b 360 42 381 51 371 42 b 339 63 349 42 339 51 l 339 690 b 318 711 339 701 329 711 b 297 690 307 711 297 701 l 297 43 b 340 0 297 19 317 0 z m 28 860 b 71 817 28 836 47 817 l 646 817 b 689 860 669 817 689 836 l 689 899 b 646 942 689 922 669 942 l 71 942 b 28 899 47 942 28 922 z m 69 879 b 90 900 69 890 79 900 l 626 900 b 647 879 638 900 647 890 b 626 858 647 868 638 858 l 90 858 b 69 879 79 858 69 868 z m 242 -385 b 285 -426 242 -408 260 -426 b 474 -256 408 -426 474 -335 b 390 -110 474 -178 438 -133 l 401 -65 b 388 -40 404 -53 399 -43 b 361 -56 376 -37 364 -44 l 346 -117 b 361 -143 343 -128 350 -140 b 432 -256 400 -162 432 -197 b 307 -382 432 -315 375 -382 b 283 -361 293 -382 283 -374 b 301 -342 283 -350 290 -342 b 390 -257 357 -342 390 -301 b 296 -169 390 -217 350 -181 l 325 -65 b 311 -40 328 -53 322 -43 b 285 -56 300 -37 288 -44 l 253 -169 b 243 -186 247 -174 243 -179 b 263 -208 243 -197 251 -208 b 349 -257 317 -208 349 -233 b 285 -300 349 -282 333 -300 b 242 -343 260 -300 242 -319 z "},"Ț":{"ha":717,"x_min":0,"x_max":0,"o":"m 340 0 l 379 0 b 422 43 403 0 422 19 l 422 754 b 401 775 422 765 413 775 l 318 775 b 297 754 307 775 297 765 b 318 733 297 742 307 733 l 360 733 b 381 713 371 733 381 724 l 381 63 b 360 42 381 51 371 42 b 339 63 349 42 339 51 l 339 690 b 318 711 339 701 329 711 b 297 690 307 711 297 701 l 297 43 b 340 0 297 19 317 0 z m 28 860 b 71 817 28 836 47 817 l 646 817 b 689 860 669 817 689 836 l 689 899 b 646 942 689 922 669 942 l 71 942 b 28 899 47 942 28 922 z m 69 879 b 90 900 69 890 79 900 l 626 900 b 647 879 638 900 647 890 b 626 858 647 868 638 858 l 90 858 b 69 879 79 858 69 868 z m 268 -212 b 289 -269 258 -235 268 -260 l 325 -286 b 382 -265 346 -296 372 -287 l 447 -122 b 426 -65 457 -100 447 -75 l 390 -49 b 333 -69 369 -39 343 -47 z m 315 -212 l 363 -104 b 390 -94 367 -94 381 -90 b 400 -122 400 -99 404 -112 l 353 -231 b 325 -240 349 -240 335 -244 b 315 -212 315 -236 311 -222 z "},"U":{"ha":671,"x_min":0,"x_max":0,"o":"m 282 1 b 328 44 308 0 328 19 l 328 86 b 286 128 328 110 311 126 b 160 339 185 136 160 182 l 160 926 b 139 947 160 938 150 947 l 56 947 b 35 926 44 947 35 938 b 56 906 35 914 44 906 l 97 906 b 118 885 108 906 118 896 l 118 336 b 265 88 118 144 172 94 b 286 67 278 88 286 78 l 286 64 b 264 43 286 51 276 42 b 76 340 111 56 76 206 l 76 863 b 56 883 76 874 67 883 b 35 863 44 883 35 874 l 35 336 b 282 1 35 182 69 22 z m 365 21 b 388 0 365 10 375 0 b 636 311 539 8 635 104 l 636 904 b 593 947 636 928 617 947 l 554 947 b 511 904 531 947 511 928 l 511 318 b 390 126 511 197 499 133 b 369 106 378 126 369 117 b 392 86 369 94 379 85 b 553 311 519 94 551 176 l 553 885 b 574 906 553 896 563 906 b 594 885 585 906 594 896 l 594 317 b 386 42 594 129 521 49 b 365 21 374 42 365 32 z "},"Ú":{"ha":671,"x_min":0,"x_max":0,"o":"m 282 1 b 328 44 308 0 328 19 l 328 86 b 286 128 328 110 311 126 b 160 339 185 136 160 182 l 160 926 b 139 947 160 938 150 947 l 56 947 b 35 926 44 947 35 938 b 56 906 35 914 44 906 l 97 906 b 118 885 108 906 118 896 l 118 336 b 265 88 118 144 172 94 b 286 67 278 88 286 78 l 286 64 b 264 43 286 51 276 42 b 76 340 111 56 76 206 l 76 863 b 56 883 76 874 67 883 b 35 863 44 883 35 874 l 35 336 b 282 1 35 182 69 22 z m 246 1174 b 267 1117 236 1151 246 1126 l 303 1100 b 360 1121 324 1090 350 1099 l 425 1264 b 404 1321 435 1286 425 1311 l 368 1338 b 311 1317 347 1347 321 1339 z m 293 1174 l 340 1282 b 368 1292 344 1292 358 1296 b 378 1264 378 1288 382 1274 l 331 1156 b 303 1146 326 1146 313 1142 b 293 1174 293 1150 289 1164 z m 365 21 b 388 0 365 10 375 0 b 636 311 539 8 635 104 l 636 904 b 593 947 636 928 617 947 l 554 947 b 511 904 531 947 511 928 l 511 318 b 390 126 511 197 499 133 b 369 106 378 126 369 117 b 392 86 369 94 379 85 b 553 311 519 94 551 176 l 553 885 b 574 906 553 896 563 906 b 594 885 585 906 594 896 l 594 317 b 386 42 594 129 521 49 b 365 21 374 42 365 32 z "},"Û":{"ha":671,"x_min":0,"x_max":0,"o":"m 282 1 b 328 44 308 0 328 19 l 328 86 b 286 128 328 110 311 126 b 160 339 185 136 160 182 l 160 926 b 139 947 160 938 150 947 l 56 947 b 35 926 44 947 35 938 b 56 906 35 914 44 906 l 97 906 b 118 885 108 906 118 896 l 118 336 b 265 88 118 144 172 94 b 286 67 278 88 286 78 l 286 64 b 264 43 286 51 276 42 b 76 340 111 56 76 206 l 76 863 b 56 883 76 874 67 883 b 35 863 44 883 35 874 l 35 336 b 282 1 35 182 69 22 z m 188 1150 b 203 1125 185 1140 192 1128 l 283 1103 b 308 1118 294 1100 306 1107 l 338 1224 l 365 1136 b 417 1106 372 1115 394 1100 l 456 1115 b 485 1168 478 1121 490 1147 l 442 1317 b 403 1346 436 1335 421 1346 l 271 1346 b 232 1317 253 1346 236 1333 l 204 1213 b 219 1186 201 1200 208 1189 b 244 1201 229 1183 242 1190 l 269 1290 b 289 1304 272 1300 281 1304 l 386 1304 b 406 1290 394 1304 403 1300 l 440 1176 b 425 1151 443 1167 436 1154 b 400 1165 415 1149 403 1156 l 375 1247 b 356 1263 372 1257 364 1263 l 321 1263 b 301 1249 313 1263 304 1258 l 279 1169 b 253 1154 276 1157 264 1151 l 213 1165 b 188 1150 203 1168 190 1163 z m 365 21 b 388 0 365 10 375 0 b 636 311 539 8 635 104 l 636 904 b 593 947 636 928 617 947 l 554 947 b 511 904 531 947 511 928 l 511 318 b 390 126 511 197 499 133 b 369 106 378 126 369 117 b 392 86 369 94 379 85 b 553 311 519 94 551 176 l 553 885 b 574 906 553 896 563 906 b 594 885 585 906 594 896 l 594 317 b 386 42 594 129 521 49 b 365 21 374 42 365 32 z "},"Ü":{"ha":671,"x_min":0,"x_max":0,"o":"m 282 1 b 328 44 308 0 328 19 l 328 86 b 286 128 328 110 311 126 b 160 339 185 136 160 182 l 160 926 b 139 947 160 938 150 947 l 56 947 b 35 926 44 947 35 938 b 56 906 35 914 44 906 l 97 906 b 118 885 108 906 118 896 l 118 336 b 265 88 118 144 172 94 b 286 67 278 88 286 78 l 286 64 b 264 43 286 51 276 42 b 76 340 111 56 76 206 l 76 863 b 56 883 76 874 67 883 b 35 863 44 883 35 874 l 35 336 b 282 1 35 182 69 22 z m 190 1151 b 233 1108 190 1128 210 1108 l 272 1108 b 315 1151 296 1108 315 1128 l 315 1243 b 294 1264 315 1254 306 1264 l 211 1264 b 190 1243 200 1264 190 1254 b 211 1222 190 1231 200 1222 l 253 1222 b 274 1201 264 1222 274 1213 l 274 1171 b 253 1150 274 1160 264 1150 b 232 1171 242 1150 232 1160 l 232 1179 b 211 1200 232 1190 222 1200 b 190 1179 200 1200 190 1190 z m 357 1151 b 400 1108 357 1128 376 1108 l 439 1108 b 482 1151 463 1108 482 1128 l 482 1243 b 461 1264 482 1254 472 1264 l 378 1264 b 357 1243 367 1264 357 1254 b 378 1222 357 1231 367 1222 l 419 1222 b 440 1201 431 1222 440 1213 l 440 1171 b 419 1150 440 1160 431 1150 b 399 1171 408 1150 399 1160 l 399 1179 b 378 1200 399 1190 389 1200 b 357 1179 367 1200 357 1190 z m 365 21 b 388 0 365 10 375 0 b 636 311 539 8 635 104 l 636 904 b 593 947 636 928 617 947 l 554 947 b 511 904 531 947 511 928 l 511 318 b 390 126 511 197 499 133 b 369 106 378 126 369 117 b 392 86 369 94 379 85 b 553 311 519 94 551 176 l 553 885 b 574 906 553 896 563 906 b 594 885 585 906 594 896 l 594 317 b 386 42 594 129 521 49 b 365 21 374 42 365 32 z "},"Ù":{"ha":671,"x_min":0,"x_max":0,"o":"m 282 1 b 328 44 308 0 328 19 l 328 86 b 286 128 328 110 311 126 b 160 339 185 136 160 182 l 160 926 b 139 947 160 938 150 947 l 56 947 b 35 926 44 947 35 938 b 56 906 35 914 44 906 l 97 906 b 118 885 108 906 118 896 l 118 336 b 265 88 118 144 172 94 b 286 67 278 88 286 78 l 286 64 b 264 43 286 51 276 42 b 76 340 111 56 76 206 l 76 863 b 56 883 76 874 67 883 b 35 863 44 883 35 874 l 35 336 b 282 1 35 182 69 22 z m 246 1264 l 311 1121 b 368 1100 321 1099 347 1090 l 404 1117 b 425 1174 425 1126 435 1151 l 360 1317 b 303 1338 350 1339 324 1347 l 267 1321 b 246 1264 246 1311 236 1286 z m 293 1264 b 303 1292 289 1274 293 1288 b 331 1282 313 1296 326 1292 l 378 1174 b 368 1146 382 1164 378 1150 b 340 1156 358 1142 344 1146 z m 365 21 b 388 0 365 10 375 0 b 636 311 539 8 635 104 l 636 904 b 593 947 636 928 617 947 l 554 947 b 511 904 531 947 511 928 l 511 318 b 390 126 511 197 499 133 b 369 106 378 126 369 117 b 392 86 369 94 379 85 b 553 311 519 94 551 176 l 553 885 b 574 906 553 896 563 906 b 594 885 585 906 594 896 l 594 317 b 386 42 594 129 521 49 b 365 21 374 42 365 32 z "},"Ű":{"ha":671,"x_min":0,"x_max":0,"o":"m 282 1 b 328 44 308 0 328 19 l 328 86 b 286 128 328 110 311 126 b 160 339 185 136 160 182 l 160 926 b 139 947 160 938 150 947 l 56 947 b 35 926 44 947 35 938 b 56 906 35 914 44 906 l 97 906 b 118 885 108 906 118 896 l 118 336 b 265 88 118 144 172 94 b 286 67 278 88 286 78 l 286 64 b 264 43 286 51 276 42 b 76 340 111 56 76 206 l 76 863 b 56 883 76 874 67 883 b 35 863 44 883 35 874 l 35 336 b 282 1 35 182 69 22 z m 154 1174 b 175 1117 144 1151 154 1126 l 211 1100 b 268 1121 232 1090 258 1099 l 333 1264 b 313 1321 343 1286 333 1311 l 276 1338 b 219 1317 256 1347 229 1339 z m 201 1174 l 249 1282 b 276 1292 253 1292 267 1296 b 286 1264 286 1288 290 1274 l 239 1156 b 211 1146 235 1146 221 1142 b 201 1174 201 1150 197 1164 z m 338 1174 b 358 1117 328 1151 338 1126 l 394 1100 b 451 1121 415 1090 442 1099 l 517 1264 b 496 1321 526 1286 517 1311 l 460 1338 b 403 1317 439 1347 413 1339 z m 365 21 b 388 0 365 10 375 0 b 636 311 539 8 635 104 l 636 904 b 593 947 636 928 617 947 l 554 947 b 511 904 531 947 511 928 l 511 318 b 390 126 511 197 499 133 b 369 106 378 126 369 117 b 392 86 369 94 379 85 b 553 311 519 94 551 176 l 553 885 b 574 906 553 896 563 906 b 594 885 585 906 594 896 l 594 317 b 386 42 594 129 521 49 b 365 21 374 42 365 32 z m 385 1174 l 432 1282 b 460 1292 436 1292 450 1296 b 469 1264 469 1288 474 1274 l 422 1156 b 394 1146 418 1146 404 1142 b 385 1174 385 1150 381 1164 z "},"Ū":{"ha":671,"x_min":0,"x_max":0,"o":"m 282 1 b 328 44 308 0 328 19 l 328 86 b 286 128 328 110 311 126 b 160 339 185 136 160 182 l 160 926 b 139 947 160 938 150 947 l 56 947 b 35 926 44 947 35 938 b 56 906 35 914 44 906 l 97 906 b 118 885 108 906 118 896 l 118 336 b 265 88 118 144 172 94 b 286 67 278 88 286 78 l 286 64 b 264 43 286 51 276 42 b 76 340 111 56 76 206 l 76 863 b 56 883 76 874 67 883 b 35 863 44 883 35 874 l 35 336 b 282 1 35 182 69 22 z m 172 1158 b 215 1115 172 1135 192 1115 l 457 1115 b 500 1158 481 1115 500 1135 l 500 1197 b 457 1240 500 1221 481 1240 l 215 1240 b 172 1197 192 1240 172 1221 z m 214 1178 b 235 1199 214 1189 224 1199 l 438 1199 b 458 1178 449 1199 458 1189 b 438 1157 458 1167 449 1157 l 235 1157 b 214 1178 224 1157 214 1167 z m 365 21 b 388 0 365 10 375 0 b 636 311 539 8 635 104 l 636 904 b 593 947 636 928 617 947 l 554 947 b 511 904 531 947 511 928 l 511 318 b 390 126 511 197 499 133 b 369 106 378 126 369 117 b 392 86 369 94 379 85 b 553 311 519 94 551 176 l 553 885 b 574 906 553 896 563 906 b 594 885 585 906 594 896 l 594 317 b 386 42 594 129 521 49 b 365 21 374 42 365 32 z "},"Ų":{"ha":671,"x_min":0,"x_max":0,"o":"m 282 1 b 328 44 308 0 328 19 l 328 86 b 286 128 328 110 311 126 b 160 339 185 136 160 182 l 160 926 b 139 947 160 938 150 947 l 56 947 b 35 926 44 947 35 938 b 56 906 35 914 44 906 l 97 906 b 118 885 108 906 118 896 l 118 336 b 265 88 118 144 172 94 b 286 67 278 88 286 78 l 286 64 b 264 43 286 51 276 42 b 76 340 111 56 76 206 l 76 863 b 56 883 76 874 67 883 b 35 863 44 883 35 874 l 35 336 b 282 1 35 182 69 22 z m 156 -228 b 344 -412 156 -321 221 -412 b 388 -371 369 -412 388 -394 l 388 -329 b 344 -286 388 -306 369 -286 b 281 -229 296 -286 281 -268 b 367 -153 281 -178 313 -153 b 386 -131 378 -153 386 -142 b 364 -111 386 -119 376 -111 b 239 -229 296 -111 239 -153 b 328 -328 239 -287 272 -328 b 346 -347 339 -328 346 -336 b 322 -368 346 -360 336 -368 b 197 -228 254 -368 197 -301 b 367 -67 197 -96 299 -67 b 386 -46 378 -67 386 -57 b 364 -26 386 -35 376 -26 b 156 -228 276 -26 156 -57 z m 365 21 b 388 0 365 10 375 0 b 636 311 539 8 635 104 l 636 904 b 593 947 636 928 617 947 l 554 947 b 511 904 531 947 511 928 l 511 318 b 390 126 511 197 499 133 b 369 106 378 126 369 117 b 392 86 369 94 379 85 b 553 311 519 94 551 176 l 553 885 b 574 906 553 896 563 906 b 594 885 585 906 594 896 l 594 317 b 386 42 594 129 521 49 b 365 21 374 42 365 32 z "},"Ů":{"ha":671,"x_min":0,"x_max":0,"o":"m 282 1 b 328 44 308 0 328 19 l 328 86 b 286 128 328 110 311 126 b 160 339 185 136 160 182 l 160 926 b 139 947 160 938 150 947 l 56 947 b 35 926 44 947 35 938 b 56 906 35 914 44 906 l 97 906 b 118 885 108 906 118 896 l 118 336 b 265 88 118 144 172 94 b 286 67 278 88 286 78 l 286 64 b 264 43 286 51 276 42 b 76 340 111 56 76 206 l 76 863 b 56 883 76 874 67 883 b 35 863 44 883 35 874 l 35 336 b 282 1 35 182 69 22 z m 211 1211 b 336 1086 211 1142 267 1086 b 460 1211 404 1086 460 1142 b 336 1335 460 1279 404 1335 b 211 1211 267 1335 211 1279 z m 246 1211 b 336 1300 246 1261 285 1300 b 425 1211 386 1300 425 1261 b 336 1121 425 1160 386 1121 b 246 1211 285 1121 246 1160 z m 274 1211 b 336 1272 274 1244 300 1272 b 397 1211 369 1272 397 1244 b 336 1149 397 1175 369 1149 b 274 1211 300 1149 274 1175 z m 311 1211 b 336 1186 311 1196 321 1186 b 360 1211 350 1186 360 1196 b 336 1235 360 1225 350 1235 b 311 1211 321 1235 311 1225 z m 365 21 b 388 0 365 10 375 0 b 636 311 539 8 635 104 l 636 904 b 593 947 636 928 617 947 l 554 947 b 511 904 531 947 511 928 l 511 318 b 390 126 511 197 499 133 b 369 106 378 126 369 117 b 392 86 369 94 379 85 b 553 311 519 94 551 176 l 553 885 b 574 906 553 896 563 906 b 594 885 585 906 594 896 l 594 317 b 386 42 594 129 521 49 b 365 21 374 42 365 32 z "},"Ũ":{"ha":671,"x_min":0,"x_max":0,"o":"m 282 1 b 328 44 308 0 328 19 l 328 86 b 286 128 328 110 311 126 b 160 339 185 136 160 182 l 160 926 b 139 947 160 938 150 947 l 56 947 b 35 926 44 947 35 938 b 56 906 35 914 44 906 l 97 906 b 118 885 108 906 118 896 l 118 336 b 265 88 118 144 172 94 b 286 67 278 88 286 78 l 286 64 b 264 43 286 51 276 42 b 76 340 111 56 76 206 l 76 863 b 56 883 76 874 67 883 b 35 863 44 883 35 874 l 35 336 b 282 1 35 182 69 22 z m 143 1181 b 154 1153 139 1168 144 1158 l 203 1135 b 231 1149 214 1131 226 1138 b 261 1185 243 1185 246 1185 b 404 1110 301 1185 322 1110 b 531 1229 488 1110 528 1164 b 510 1250 531 1242 521 1250 l 460 1250 b 438 1228 449 1250 439 1242 b 410 1204 436 1207 431 1204 b 261 1276 369 1204 342 1276 b 143 1181 210 1276 169 1246 z m 185 1194 b 261 1247 204 1229 229 1247 b 410 1171 329 1247 356 1171 b 467 1207 442 1171 458 1185 b 481 1219 468 1214 474 1219 b 494 1200 490 1219 497 1208 b 404 1142 483 1164 451 1142 b 261 1215 339 1142 315 1215 b 211 1182 238 1215 226 1207 b 190 1172 207 1172 199 1168 b 185 1194 182 1176 179 1185 z m 365 21 b 388 0 365 10 375 0 b 636 311 539 8 635 104 l 636 904 b 593 947 636 928 617 947 l 554 947 b 511 904 531 947 511 928 l 511 318 b 390 126 511 197 499 133 b 369 106 378 126 369 117 b 392 86 369 94 379 85 b 553 311 519 94 551 176 l 553 885 b 574 906 553 896 563 906 b 594 885 585 906 594 896 l 594 317 b 386 42 594 129 521 49 b 365 21 374 42 365 32 z "},"V":{"ha":753,"x_min":0,"x_max":0,"o":"m 313 0 l 444 0 b 483 29 463 0 479 11 l 724 928 b 694 981 729 950 717 975 l 656 990 b 604 960 633 996 610 982 l 379 122 l 149 981 b 124 996 146 992 135 999 l 43 974 b 28 949 32 971 25 958 b 53 933 31 936 43 931 l 93 944 b 119 929 104 947 117 942 l 343 97 b 363 83 346 88 354 83 l 397 83 b 417 99 406 83 414 89 l 639 931 b 664 944 642 942 654 947 b 679 919 675 942 682 931 l 447 56 b 428 42 444 46 436 42 l 331 42 b 311 56 322 42 314 46 l 85 897 b 60 913 82 908 69 915 b 44 886 49 910 42 899 l 274 29 b 313 0 278 11 294 0 z "},"W":{"ha":1169,"x_min":0,"x_max":0,"o":"m 729 0 l 861 0 b 900 29 879 0 896 11 l 1140 928 b 1111 981 1146 950 1133 975 l 1072 990 b 1021 960 1050 996 1026 982 l 796 122 l 571 960 b 519 990 565 982 542 996 l 481 981 b 451 928 458 975 446 950 l 690 29 b 729 0 694 11 711 0 z m 28 949 b 53 933 31 936 43 931 l 93 944 b 119 929 104 947 117 942 l 343 97 b 363 83 346 88 354 83 l 397 83 b 417 99 406 83 414 89 l 478 328 b 503 342 481 339 493 344 b 518 317 514 339 521 328 l 447 56 b 428 42 444 46 436 42 l 331 42 b 311 56 322 42 314 46 l 85 897 b 60 913 82 908 69 915 b 44 886 49 910 42 899 l 274 29 b 313 0 278 11 294 0 l 444 0 b 483 29 463 0 479 11 l 563 325 b 533 378 568 347 556 372 l 494 388 b 443 357 472 393 449 379 l 379 122 l 149 981 b 124 996 146 992 135 999 l 43 974 b 28 949 32 971 25 958 z m 496 919 b 511 944 493 931 500 942 b 536 931 521 947 533 942 l 760 97 b 779 83 763 88 771 83 l 814 83 b 833 99 822 83 831 89 l 1056 931 b 1081 944 1058 942 1071 947 b 1096 919 1092 942 1099 931 l 864 56 b 844 42 861 46 853 42 l 747 42 b 728 56 739 42 731 46 z "},"Ẃ":{"ha":1169,"x_min":0,"x_max":0,"o":"m 729 0 l 861 0 b 900 29 879 0 896 11 l 1140 928 b 1111 981 1146 950 1133 975 l 1072 990 b 1021 960 1050 996 1026 982 l 796 122 l 571 960 b 519 990 565 982 542 996 l 481 981 b 451 928 458 975 446 950 l 690 29 b 729 0 694 11 711 0 z m 28 949 b 53 933 31 936 43 931 l 93 944 b 119 929 104 947 117 942 l 343 97 b 363 83 346 88 354 83 l 397 83 b 417 99 406 83 414 89 l 478 328 b 503 342 481 339 493 344 b 518 317 514 339 521 328 l 447 56 b 428 42 444 46 436 42 l 331 42 b 311 56 322 42 314 46 l 85 897 b 60 913 82 908 69 915 b 44 886 49 910 42 899 l 274 29 b 313 0 278 11 294 0 l 444 0 b 483 29 463 0 479 11 l 563 325 b 533 378 568 347 556 372 l 494 388 b 443 357 472 393 449 379 l 379 122 l 149 981 b 124 996 146 992 135 999 l 43 974 b 28 949 32 971 25 958 z m 494 1161 b 515 1104 485 1139 494 1114 l 551 1088 b 608 1108 572 1078 599 1086 l 674 1251 b 653 1308 683 1274 674 1299 l 617 1325 b 560 1304 596 1335 569 1326 z m 496 919 b 511 944 493 931 500 942 b 536 931 521 947 533 942 l 760 97 b 779 83 763 88 771 83 l 814 83 b 833 99 822 83 831 89 l 1056 931 b 1081 944 1058 942 1071 947 b 1096 919 1092 942 1099 931 l 864 56 b 844 42 861 46 853 42 l 747 42 b 728 56 739 42 731 46 z m 542 1161 l 589 1269 b 617 1279 593 1279 607 1283 b 626 1251 626 1275 631 1261 l 579 1143 b 551 1133 575 1133 561 1129 b 542 1161 542 1138 538 1151 z "},"Ŵ":{"ha":1169,"x_min":0,"x_max":0,"o":"m 729 0 l 861 0 b 900 29 879 0 896 11 l 1140 928 b 1111 981 1146 950 1133 975 l 1072 990 b 1021 960 1050 996 1026 982 l 796 122 l 571 960 b 519 990 565 982 542 996 l 481 981 b 451 928 458 975 446 950 l 690 29 b 729 0 694 11 711 0 z m 28 949 b 53 933 31 936 43 931 l 93 944 b 119 929 104 947 117 942 l 343 97 b 363 83 346 88 354 83 l 397 83 b 417 99 406 83 414 89 l 478 328 b 503 342 481 339 493 344 b 518 317 514 339 521 328 l 447 56 b 428 42 444 46 436 42 l 331 42 b 311 56 322 42 314 46 l 85 897 b 60 913 82 908 69 915 b 44 886 49 910 42 899 l 274 29 b 313 0 278 11 294 0 l 444 0 b 483 29 463 0 479 11 l 563 325 b 533 378 568 347 556 372 l 494 388 b 443 357 472 393 449 379 l 379 122 l 149 981 b 124 996 146 992 135 999 l 43 974 b 28 949 32 971 25 958 z m 436 1138 b 451 1113 433 1128 440 1115 l 532 1090 b 557 1106 543 1088 554 1094 l 586 1211 l 614 1124 b 665 1093 621 1103 643 1088 l 704 1103 b 733 1156 726 1108 739 1135 l 690 1304 b 651 1333 685 1322 669 1333 l 519 1333 b 481 1304 501 1333 485 1321 l 453 1200 b 468 1174 450 1188 457 1176 b 493 1189 478 1171 490 1178 l 518 1278 b 538 1292 521 1288 529 1292 l 635 1292 b 654 1278 643 1292 651 1288 l 689 1164 b 674 1139 692 1154 685 1142 b 649 1153 664 1136 651 1143 l 624 1235 b 604 1250 621 1244 613 1250 l 569 1250 b 550 1236 561 1250 553 1246 l 528 1157 b 501 1142 525 1144 513 1139 l 461 1153 b 436 1138 451 1156 439 1150 z m 496 919 b 511 944 493 931 500 942 b 536 931 521 947 533 942 l 760 97 b 779 83 763 88 771 83 l 814 83 b 833 99 822 83 831 89 l 1056 931 b 1081 944 1058 942 1071 947 b 1096 919 1092 942 1099 931 l 864 56 b 844 42 861 46 853 42 l 747 42 b 728 56 739 42 731 46 z "},"Ẅ":{"ha":1169,"x_min":0,"x_max":0,"o":"m 729 0 l 861 0 b 900 29 879 0 896 11 l 1140 928 b 1111 981 1146 950 1133 975 l 1072 990 b 1021 960 1050 996 1026 982 l 796 122 l 571 960 b 519 990 565 982 542 996 l 481 981 b 451 928 458 975 446 950 l 690 29 b 729 0 694 11 711 0 z m 28 949 b 53 933 31 936 43 931 l 93 944 b 119 929 104 947 117 942 l 343 97 b 363 83 346 88 354 83 l 397 83 b 417 99 406 83 414 89 l 478 328 b 503 342 481 339 493 344 b 518 317 514 339 521 328 l 447 56 b 428 42 444 46 436 42 l 331 42 b 311 56 322 42 314 46 l 85 897 b 60 913 82 908 69 915 b 44 886 49 910 42 899 l 274 29 b 313 0 278 11 294 0 l 444 0 b 483 29 463 0 479 11 l 563 325 b 533 378 568 347 556 372 l 494 388 b 443 357 472 393 449 379 l 379 122 l 149 981 b 124 996 146 992 135 999 l 43 974 b 28 949 32 971 25 958 z m 439 1139 b 482 1096 439 1115 458 1096 l 521 1096 b 564 1139 544 1096 564 1115 l 564 1231 b 543 1251 564 1242 554 1251 l 460 1251 b 439 1231 449 1251 439 1242 b 460 1210 439 1218 449 1210 l 501 1210 b 522 1189 513 1210 522 1200 l 522 1158 b 501 1138 522 1147 513 1138 b 481 1158 490 1138 481 1147 l 481 1167 b 460 1188 481 1178 471 1188 b 439 1167 449 1188 439 1178 z m 496 919 b 511 944 493 931 500 942 b 536 931 521 947 533 942 l 760 97 b 779 83 763 88 771 83 l 814 83 b 833 99 822 83 831 89 l 1056 931 b 1081 944 1058 942 1071 947 b 1096 919 1092 942 1099 931 l 864 56 b 844 42 861 46 853 42 l 747 42 b 728 56 739 42 731 46 z m 606 1139 b 649 1096 606 1115 625 1096 l 688 1096 b 731 1139 711 1096 731 1115 l 731 1231 b 710 1251 731 1242 721 1251 l 626 1251 b 606 1231 615 1251 606 1242 b 626 1210 606 1218 615 1210 l 668 1210 b 689 1189 679 1210 689 1200 l 689 1158 b 668 1138 689 1147 679 1138 b 647 1158 657 1138 647 1147 l 647 1167 b 626 1188 647 1178 638 1188 b 606 1167 615 1188 606 1178 z "},"Ẁ":{"ha":1169,"x_min":0,"x_max":0,"o":"m 729 0 l 861 0 b 900 29 879 0 896 11 l 1140 928 b 1111 981 1146 950 1133 975 l 1072 990 b 1021 960 1050 996 1026 982 l 796 122 l 571 960 b 519 990 565 982 542 996 l 481 981 b 451 928 458 975 446 950 l 690 29 b 729 0 694 11 711 0 z m 28 949 b 53 933 31 936 43 931 l 93 944 b 119 929 104 947 117 942 l 343 97 b 363 83 346 88 354 83 l 397 83 b 417 99 406 83 414 89 l 478 328 b 503 342 481 339 493 344 b 518 317 514 339 521 328 l 447 56 b 428 42 444 46 436 42 l 331 42 b 311 56 322 42 314 46 l 85 897 b 60 913 82 908 69 915 b 44 886 49 910 42 899 l 274 29 b 313 0 278 11 294 0 l 444 0 b 483 29 463 0 479 11 l 563 325 b 533 378 568 347 556 372 l 494 388 b 443 357 472 393 449 379 l 379 122 l 149 981 b 124 996 146 992 135 999 l 43 974 b 28 949 32 971 25 958 z m 494 1251 l 560 1108 b 617 1088 569 1086 596 1078 l 653 1104 b 674 1161 674 1114 683 1139 l 608 1304 b 551 1325 599 1326 572 1335 l 515 1308 b 494 1251 494 1299 485 1274 z m 496 919 b 511 944 493 931 500 942 b 536 931 521 947 533 942 l 760 97 b 779 83 763 88 771 83 l 814 83 b 833 99 822 83 831 89 l 1056 931 b 1081 944 1058 942 1071 947 b 1096 919 1092 942 1099 931 l 864 56 b 844 42 861 46 853 42 l 747 42 b 728 56 739 42 731 46 z m 542 1251 b 551 1279 538 1261 542 1275 b 579 1269 561 1283 575 1279 l 626 1161 b 617 1133 631 1151 626 1138 b 589 1143 607 1129 593 1133 z "},"X":{"ha":683,"x_min":0,"x_max":0,"o":"m 600 7 l 635 26 b 650 86 656 38 663 65 l 136 975 b 110 979 131 985 119 985 l 39 938 b 31 908 29 932 25 918 b 60 901 38 897 50 896 l 94 922 b 124 914 104 928 118 924 l 604 82 b 596 53 610 72 606 58 b 568 61 588 47 574 51 l 99 874 b 71 882 93 883 79 888 b 63 853 61 876 57 863 l 542 24 b 600 7 554 3 581 -4 z m 36 86 b 57 29 26 65 35 40 l 92 13 b 149 33 113 3 139 13 l 300 358 b 279 415 310 379 301 404 l 244 432 b 188 411 224 442 197 432 z m 82 86 l 217 376 b 244 386 221 386 235 390 b 254 358 254 381 258 368 l 119 68 b 92 58 115 58 101 54 b 82 86 82 64 78 76 z m 390 664 b 411 607 381 642 390 617 l 447 590 b 504 611 468 581 494 589 l 640 901 b 619 958 650 924 640 949 l 583 975 b 526 954 563 985 536 976 z m 438 664 l 556 919 b 583 929 561 929 574 933 b 593 901 593 925 599 911 l 475 646 b 447 636 469 636 457 632 b 438 664 438 640 432 654 z "},"Y":{"ha":672,"x_min":0,"x_max":0,"o":"m 351 0 l 390 0 b 433 43 414 0 433 19 l 433 451 b 429 467 433 457 432 463 l 136 975 b 110 979 131 985 119 985 l 39 938 b 31 908 29 932 25 918 b 60 901 38 897 50 896 l 94 922 b 124 914 104 928 118 924 l 388 458 b 392 442 390 454 392 447 l 392 63 b 371 42 392 51 382 42 b 350 63 360 42 350 51 l 350 429 b 346 444 350 435 349 440 l 99 874 b 71 882 93 883 79 888 b 63 853 61 876 57 863 l 304 436 b 308 419 307 432 308 425 l 308 43 b 351 0 308 19 328 0 z m 390 664 b 411 607 381 642 390 617 l 447 590 b 504 611 468 581 494 589 l 640 901 b 619 958 650 924 640 949 l 583 975 b 526 954 563 985 536 976 z m 438 664 l 556 919 b 583 929 560 929 574 933 b 593 901 593 925 597 911 l 475 646 b 447 636 471 636 457 632 b 438 664 438 640 433 654 z "},"Ý":{"ha":672,"x_min":0,"x_max":0,"o":"m 351 0 l 390 0 b 433 43 414 0 433 19 l 433 451 b 429 467 433 457 432 463 l 136 975 b 110 979 131 985 119 985 l 39 938 b 31 908 29 932 25 918 b 60 901 38 897 50 896 l 94 922 b 124 914 104 928 118 924 l 388 458 b 392 442 390 454 392 447 l 392 63 b 371 42 392 51 382 42 b 350 63 360 42 350 51 l 350 429 b 346 444 350 435 349 440 l 99 874 b 71 882 93 883 79 888 b 63 853 61 876 57 863 l 304 436 b 308 419 307 432 308 425 l 308 43 b 351 0 308 19 328 0 z m 246 1169 b 267 1113 236 1147 246 1122 l 303 1096 b 360 1117 324 1086 350 1094 l 425 1260 b 404 1317 435 1282 425 1307 l 368 1333 b 311 1313 347 1343 321 1335 z m 293 1169 l 340 1278 b 368 1288 344 1288 358 1292 b 378 1260 378 1283 382 1269 l 331 1151 b 303 1142 326 1142 313 1138 b 293 1169 293 1146 289 1160 z m 390 664 b 411 607 381 642 390 617 l 447 590 b 504 611 468 581 494 589 l 640 901 b 619 958 650 924 640 949 l 583 975 b 526 954 563 985 536 976 z m 438 664 l 556 919 b 583 929 560 929 574 933 b 593 901 593 925 597 911 l 475 646 b 447 636 471 636 457 632 b 438 664 438 640 433 654 z "},"Ŷ":{"ha":672,"x_min":0,"x_max":0,"o":"m 351 0 l 390 0 b 433 43 414 0 433 19 l 433 451 b 429 467 433 457 432 463 l 136 975 b 110 979 131 985 119 985 l 39 938 b 31 908 29 932 25 918 b 60 901 38 897 50 896 l 94 922 b 124 914 104 928 118 924 l 388 458 b 392 442 390 454 392 447 l 392 63 b 371 42 392 51 382 42 b 350 63 360 42 350 51 l 350 429 b 346 444 350 435 349 440 l 99 874 b 71 882 93 883 79 888 b 63 853 61 876 57 863 l 304 436 b 308 419 307 432 308 425 l 308 43 b 351 0 308 19 328 0 z m 188 1146 b 203 1121 185 1136 192 1124 l 283 1099 b 308 1114 294 1096 306 1103 l 338 1219 l 365 1132 b 417 1101 372 1111 394 1096 l 456 1111 b 485 1164 478 1117 490 1143 l 442 1313 b 403 1342 436 1331 421 1342 l 271 1342 b 232 1313 253 1342 236 1329 l 204 1208 b 219 1182 201 1196 208 1185 b 244 1197 229 1179 242 1186 l 269 1286 b 289 1300 272 1296 281 1300 l 386 1300 b 406 1286 394 1300 403 1296 l 440 1172 b 425 1147 443 1163 436 1150 b 400 1161 415 1144 403 1151 l 375 1243 b 356 1258 372 1253 364 1258 l 321 1258 b 301 1244 313 1258 304 1254 l 279 1165 b 253 1150 276 1153 264 1147 l 213 1161 b 188 1146 203 1164 190 1158 z m 390 664 b 411 607 381 642 390 617 l 447 590 b 504 611 468 581 494 589 l 640 901 b 619 958 650 924 640 949 l 583 975 b 526 954 563 985 536 976 z m 438 664 l 556 919 b 583 929 560 929 574 933 b 593 901 593 925 597 911 l 475 646 b 447 636 471 636 457 632 b 438 664 438 640 433 654 z "},"Ÿ":{"ha":672,"x_min":0,"x_max":0,"o":"m 351 0 l 390 0 b 433 43 414 0 433 19 l 433 451 b 429 467 433 457 432 463 l 136 975 b 110 979 131 985 119 985 l 39 938 b 31 908 29 932 25 918 b 60 901 38 897 50 896 l 94 922 b 124 914 104 928 118 924 l 388 458 b 392 442 390 454 392 447 l 392 63 b 371 42 392 51 382 42 b 350 63 360 42 350 51 l 350 429 b 346 444 350 435 349 440 l 99 874 b 71 882 93 883 79 888 b 63 853 61 876 57 863 l 304 436 b 308 419 307 432 308 425 l 308 43 b 351 0 308 19 328 0 z m 190 1147 b 233 1104 190 1124 210 1104 l 272 1104 b 315 1147 296 1104 315 1124 l 315 1239 b 294 1260 315 1250 306 1260 l 211 1260 b 190 1239 200 1260 190 1250 b 211 1218 190 1226 200 1218 l 253 1218 b 274 1197 264 1218 274 1208 l 274 1167 b 253 1146 274 1156 264 1146 b 232 1167 242 1146 232 1156 l 232 1175 b 211 1196 232 1186 222 1196 b 190 1175 200 1196 190 1186 z m 357 1147 b 400 1104 357 1124 376 1104 l 439 1104 b 482 1147 463 1104 482 1124 l 482 1239 b 461 1260 482 1250 472 1260 l 378 1260 b 357 1239 367 1260 357 1250 b 378 1218 357 1226 367 1218 l 419 1218 b 440 1197 431 1218 440 1208 l 440 1167 b 419 1146 440 1156 431 1146 b 399 1167 408 1146 399 1156 l 399 1175 b 378 1196 399 1186 389 1196 b 357 1175 367 1196 357 1186 z m 390 664 b 411 607 381 642 390 617 l 447 590 b 504 611 468 581 494 589 l 640 901 b 619 958 650 924 640 949 l 583 975 b 526 954 563 985 536 976 z m 438 664 l 556 919 b 583 929 560 929 574 933 b 593 901 593 925 597 911 l 475 646 b 447 636 471 636 457 632 b 438 664 438 640 433 654 z "},"Ỳ":{"ha":672,"x_min":0,"x_max":0,"o":"m 351 0 l 390 0 b 433 43 414 0 433 19 l 433 451 b 429 467 433 457 432 463 l 136 975 b 110 979 131 985 119 985 l 39 938 b 31 908 29 932 25 918 b 60 901 38 897 50 896 l 94 922 b 124 914 104 928 118 924 l 388 458 b 392 442 390 454 392 447 l 392 63 b 371 42 392 51 382 42 b 350 63 360 42 350 51 l 350 429 b 346 444 350 435 349 440 l 99 874 b 71 882 93 883 79 888 b 63 853 61 876 57 863 l 304 436 b 308 419 307 432 308 425 l 308 43 b 351 0 308 19 328 0 z m 246 1260 l 311 1117 b 368 1096 321 1094 347 1086 l 404 1113 b 425 1169 425 1122 435 1147 l 360 1313 b 303 1333 350 1335 324 1343 l 267 1317 b 246 1260 246 1307 236 1282 z m 293 1260 b 303 1288 289 1269 293 1283 b 331 1278 313 1292 326 1288 l 378 1169 b 368 1142 382 1160 378 1146 b 340 1151 358 1138 344 1142 z m 390 664 b 411 607 381 642 390 617 l 447 590 b 504 611 468 581 494 589 l 640 901 b 619 958 650 924 640 949 l 583 975 b 526 954 563 985 536 976 z m 438 664 l 556 919 b 583 929 560 929 574 933 b 593 901 593 925 597 911 l 475 646 b 447 636 471 636 457 632 b 438 664 438 640 433 654 z "},"Ỹ":{"ha":672,"x_min":0,"x_max":0,"o":"m 351 0 l 390 0 b 433 43 414 0 433 19 l 433 451 b 429 467 433 457 432 463 l 136 975 b 110 979 131 985 119 985 l 39 938 b 31 908 29 932 25 918 b 60 901 38 897 50 896 l 94 922 b 124 914 104 928 118 924 l 388 458 b 392 442 390 454 392 447 l 392 63 b 371 42 392 51 382 42 b 350 63 360 42 350 51 l 350 429 b 346 444 350 435 349 440 l 99 874 b 71 882 93 883 79 888 b 63 853 61 876 57 863 l 304 436 b 308 419 307 432 308 425 l 308 43 b 351 0 308 19 328 0 z m 143 1176 b 154 1149 139 1164 144 1154 l 203 1131 b 231 1144 214 1126 226 1133 b 261 1181 243 1181 246 1181 b 404 1106 301 1181 322 1106 b 531 1225 488 1106 528 1160 b 510 1246 531 1238 521 1246 l 460 1246 b 438 1224 449 1246 439 1238 b 410 1200 436 1203 431 1200 b 261 1272 369 1200 342 1272 b 143 1176 210 1272 169 1242 z m 185 1190 b 261 1243 204 1225 229 1243 b 410 1167 329 1243 356 1167 b 467 1203 442 1167 458 1181 b 481 1215 468 1210 474 1215 b 494 1196 490 1215 497 1204 b 404 1138 483 1160 451 1138 b 261 1211 339 1138 315 1211 b 211 1178 238 1211 226 1203 b 190 1168 207 1168 199 1164 b 185 1190 182 1172 179 1181 z m 390 664 b 411 607 381 642 390 617 l 447 590 b 504 611 468 581 494 589 l 640 901 b 619 958 650 924 640 949 l 583 975 b 526 954 563 985 536 976 z m 438 664 l 556 919 b 583 929 560 929 574 933 b 593 901 593 925 597 911 l 475 646 b 447 636 471 636 457 632 b 438 664 438 640 433 654 z "},"Z":{"ha":610,"x_min":0,"x_max":0,"o":"m 83 186 l 117 167 b 176 183 138 154 164 163 l 561 850 b 582 913 574 871 582 896 l 582 932 b 539 975 582 956 563 975 l 63 975 b 28 940 38 975 28 965 l 28 871 b 49 850 28 860 38 850 b 69 871 61 850 69 860 l 69 913 b 90 933 69 924 79 933 l 519 933 b 540 913 531 933 540 924 b 524 868 540 899 532 883 l 149 219 b 121 213 144 211 132 208 b 114 242 111 218 108 232 l 490 892 l 113 892 b 92 871 101 892 92 882 b 113 850 92 860 101 850 l 418 850 l 68 246 b 83 186 56 225 64 197 z m 28 43 b 71 0 28 19 47 0 l 539 0 b 582 43 563 0 582 19 l 582 82 b 539 125 582 106 563 125 l 71 125 b 28 82 47 125 28 106 z m 69 63 b 90 83 69 74 79 83 l 519 83 b 540 63 531 83 540 74 b 519 42 540 51 531 42 l 90 42 b 69 63 79 42 69 51 z "},"Ź":{"ha":610,"x_min":0,"x_max":0,"o":"m 83 186 l 117 167 b 176 183 138 154 164 163 l 561 850 b 582 913 574 871 582 896 l 582 932 b 539 975 582 956 563 975 l 63 975 b 28 940 38 975 28 965 l 28 871 b 49 850 28 860 38 850 b 69 871 61 850 69 860 l 69 913 b 90 933 69 924 79 933 l 519 933 b 540 913 531 933 540 924 b 524 868 540 899 532 883 l 149 219 b 121 213 144 211 132 208 b 114 242 111 218 108 232 l 490 892 l 113 892 b 92 871 101 892 92 882 b 113 850 92 860 101 850 l 418 850 l 68 246 b 83 186 56 225 64 197 z m 28 43 b 71 0 28 19 47 0 l 539 0 b 582 43 563 0 582 19 l 582 82 b 539 125 582 106 563 125 l 71 125 b 28 82 47 125 28 106 z m 69 63 b 90 83 69 74 79 83 l 519 83 b 540 63 531 83 540 74 b 519 42 540 51 531 42 l 90 42 b 69 63 79 42 69 51 z m 215 1169 b 236 1113 206 1147 215 1122 l 272 1096 b 329 1117 293 1086 319 1094 l 394 1260 b 374 1317 404 1282 394 1307 l 338 1333 b 281 1313 317 1343 290 1335 z m 263 1169 l 310 1278 b 338 1288 314 1288 328 1292 b 347 1260 347 1283 351 1269 l 300 1151 b 272 1142 296 1142 282 1138 b 263 1169 263 1146 258 1160 z "},"Ž":{"ha":610,"x_min":0,"x_max":0,"o":"m 83 186 l 117 167 b 176 183 138 154 164 163 l 561 850 b 582 913 574 871 582 896 l 582 932 b 539 975 582 956 563 975 l 63 975 b 28 940 38 975 28 965 l 28 871 b 49 850 28 860 38 850 b 69 871 61 850 69 860 l 69 913 b 90 933 69 924 79 933 l 519 933 b 540 913 531 933 540 924 b 524 868 540 899 532 883 l 149 219 b 121 213 144 211 132 208 b 114 242 111 218 108 232 l 490 892 l 113 892 b 92 871 101 892 92 882 b 113 850 92 860 101 850 l 418 850 l 68 246 b 83 186 56 225 64 197 z m 28 43 b 71 0 28 19 47 0 l 539 0 b 582 43 563 0 582 19 l 582 82 b 539 125 582 106 563 125 l 71 125 b 28 82 47 125 28 106 z m 69 63 b 90 83 69 74 79 83 l 519 83 b 540 63 531 83 540 74 b 519 42 540 51 531 42 l 90 42 b 69 63 79 42 69 51 z m 157 1294 b 182 1279 160 1282 172 1276 l 222 1290 b 249 1275 233 1293 246 1288 l 271 1196 b 290 1182 274 1186 282 1182 l 325 1182 b 344 1197 333 1182 342 1188 l 369 1279 b 394 1293 372 1289 385 1296 b 410 1268 406 1290 413 1278 l 375 1154 b 356 1140 372 1144 364 1140 l 258 1140 b 239 1154 250 1140 242 1144 l 214 1243 b 189 1258 211 1254 199 1261 b 174 1232 178 1256 171 1244 l 201 1128 b 240 1099 206 1111 222 1099 l 372 1099 b 411 1128 390 1099 406 1110 l 454 1276 b 425 1329 460 1297 447 1324 l 386 1339 b 335 1308 364 1344 342 1329 l 307 1221 l 278 1326 b 253 1342 275 1338 264 1344 l 172 1319 b 157 1294 161 1317 154 1304 z "},"Ż":{"ha":610,"x_min":0,"x_max":0,"o":"m 83 186 l 117 167 b 176 183 138 154 164 163 l 561 850 b 582 913 574 871 582 896 l 582 932 b 539 975 582 956 563 975 l 63 975 b 28 940 38 975 28 965 l 28 871 b 49 850 28 860 38 850 b 69 871 61 850 69 860 l 69 913 b 90 933 69 924 79 933 l 519 933 b 540 913 531 933 540 924 b 524 868 540 899 532 883 l 149 219 b 121 213 144 211 132 208 b 114 242 111 218 108 232 l 490 892 l 113 892 b 92 871 101 892 92 882 b 113 850 92 860 101 850 l 418 850 l 68 246 b 83 186 56 225 64 197 z m 28 43 b 71 0 28 19 47 0 l 539 0 b 582 43 563 0 582 19 l 582 82 b 539 125 582 106 563 125 l 71 125 b 28 82 47 125 28 106 z m 69 63 b 90 83 69 74 79 83 l 519 83 b 540 63 531 83 540 74 b 519 42 540 51 531 42 l 90 42 b 69 63 79 42 69 51 z m 243 1147 b 286 1104 243 1124 263 1104 l 325 1104 b 368 1147 349 1104 368 1124 l 368 1239 b 347 1260 368 1250 358 1260 l 264 1260 b 243 1239 253 1260 243 1250 b 264 1218 243 1226 253 1218 l 306 1218 b 326 1197 317 1218 326 1208 l 326 1167 b 306 1146 326 1156 317 1146 b 285 1167 294 1146 285 1156 l 285 1175 b 264 1196 285 1186 275 1196 b 243 1175 253 1196 243 1186 z "},"a":{"ha":744,"x_min":0,"x_max":0,"o":"m 75 0 l 510 0 b 553 43 533 0 553 19 l 553 82 b 510 125 553 106 533 125 l 207 125 b 185 154 192 125 181 138 l 340 740 b 310 793 347 764 332 788 l 272 803 b 219 774 250 808 225 796 l 29 58 b 75 0 21 28 43 0 z m 78 71 l 254 743 b 281 758 257 754 269 761 b 294 733 290 756 297 743 l 138 142 b 183 83 129 111 151 83 l 490 83 b 511 63 501 83 511 74 b 490 42 511 51 501 42 l 100 42 b 78 71 85 42 74 54 z m 344 961 b 371 947 349 950 360 944 l 411 957 b 436 943 421 960 433 954 l 671 68 b 656 43 674 57 667 46 b 631 57 646 40 633 46 l 401 911 b 376 925 399 921 388 928 b 361 900 365 922 358 911 l 596 28 b 647 -3 601 6 625 -8 l 686 7 b 715 60 708 13 721 38 l 465 997 b 440 1008 463 1008 451 1011 l 360 988 b 344 961 349 985 342 972 z "},"á":{"ha":744,"x_min":0,"x_max":0,"o":"m 75 0 l 510 0 b 553 43 533 0 553 19 l 553 82 b 510 125 553 106 533 125 l 207 125 b 185 154 192 125 181 138 l 340 740 b 310 793 347 764 332 788 l 272 803 b 219 774 250 808 225 796 l 29 58 b 75 0 21 28 43 0 z m 78 71 l 254 743 b 281 758 257 754 269 761 b 294 733 290 756 297 743 l 138 142 b 183 83 129 111 151 83 l 490 83 b 511 63 501 83 511 74 b 490 42 511 51 501 42 l 100 42 b 78 71 85 42 74 54 z m 282 1167 b 303 1110 272 1144 282 1119 l 339 1093 b 396 1114 360 1083 386 1092 l 461 1257 b 440 1314 471 1279 461 1304 l 404 1331 b 347 1310 383 1340 357 1332 z m 329 1167 l 376 1275 b 404 1285 381 1285 394 1289 b 414 1257 414 1281 418 1267 l 367 1149 b 339 1139 363 1139 349 1135 b 329 1167 329 1143 325 1157 z m 344 961 b 371 947 349 950 360 944 l 411 957 b 436 943 421 960 433 954 l 671 68 b 656 43 674 57 667 46 b 631 57 646 40 633 46 l 401 911 b 376 925 399 921 388 928 b 361 900 365 922 358 911 l 596 28 b 647 -3 601 6 625 -8 l 686 7 b 715 60 708 13 721 38 l 465 997 b 440 1008 463 1008 451 1011 l 360 988 b 344 961 349 985 342 972 z "},"ă":{"ha":744,"x_min":0,"x_max":0,"o":"m 75 0 l 510 0 b 553 43 533 0 553 19 l 553 82 b 510 125 553 106 533 125 l 207 125 b 185 154 192 125 181 138 l 340 740 b 310 793 347 764 332 788 l 272 803 b 219 774 250 808 225 796 l 29 58 b 75 0 21 28 43 0 z m 78 71 l 254 743 b 281 758 257 754 269 761 b 294 733 290 756 297 743 l 138 142 b 183 83 129 111 151 83 l 490 83 b 511 63 501 83 511 74 b 490 42 511 51 501 42 l 100 42 b 78 71 85 42 74 54 z m 179 1317 b 381 1108 179 1229 210 1108 b 565 1297 474 1108 565 1174 b 524 1340 565 1322 547 1340 l 482 1340 b 439 1297 458 1340 439 1322 b 382 1233 439 1249 421 1233 b 306 1319 331 1233 306 1265 b 283 1339 306 1331 294 1339 b 264 1317 272 1339 264 1329 b 382 1192 264 1249 306 1192 b 481 1281 440 1192 481 1225 b 500 1299 481 1292 489 1299 b 521 1275 513 1299 521 1289 b 381 1150 521 1207 454 1150 b 219 1319 249 1150 219 1251 b 199 1339 219 1331 210 1339 b 179 1317 188 1339 179 1329 z m 344 961 b 371 947 349 950 360 944 l 411 957 b 436 943 421 960 433 954 l 671 68 b 656 43 674 57 667 46 b 631 57 646 40 633 46 l 401 911 b 376 925 399 921 388 928 b 361 900 365 922 358 911 l 596 28 b 647 -3 601 6 625 -8 l 686 7 b 715 60 708 13 721 38 l 465 997 b 440 1008 463 1008 451 1011 l 360 988 b 344 961 349 985 342 972 z "},"â":{"ha":744,"x_min":0,"x_max":0,"o":"m 75 0 l 510 0 b 553 43 533 0 553 19 l 553 82 b 510 125 553 106 533 125 l 207 125 b 185 154 192 125 181 138 l 340 740 b 310 793 347 764 332 788 l 272 803 b 219 774 250 808 225 796 l 29 58 b 75 0 21 28 43 0 z m 78 71 l 254 743 b 281 758 257 754 269 761 b 294 733 290 756 297 743 l 138 142 b 183 83 129 111 151 83 l 490 83 b 511 63 501 83 511 74 b 490 42 511 51 501 42 l 100 42 b 78 71 85 42 74 54 z m 224 1143 b 239 1118 221 1133 228 1121 l 319 1096 b 344 1111 331 1093 342 1100 l 374 1217 l 401 1129 b 453 1099 408 1108 431 1093 l 492 1108 b 521 1161 514 1114 526 1140 l 478 1310 b 439 1339 472 1328 457 1339 l 307 1339 b 268 1310 289 1339 272 1326 l 240 1206 b 256 1179 238 1193 244 1182 b 281 1194 265 1176 278 1183 l 306 1283 b 325 1297 308 1293 317 1297 l 422 1297 b 442 1283 431 1297 439 1293 l 476 1169 b 461 1144 479 1160 472 1147 b 436 1158 451 1142 439 1149 l 411 1240 b 392 1256 408 1250 400 1256 l 357 1256 b 338 1242 349 1256 340 1251 l 315 1163 b 289 1147 313 1150 300 1144 l 249 1158 b 224 1143 239 1161 226 1156 z m 344 961 b 371 947 349 950 360 944 l 411 957 b 436 943 421 960 433 954 l 671 68 b 656 43 674 57 667 46 b 631 57 646 40 633 46 l 401 911 b 376 925 399 921 388 928 b 361 900 365 922 358 911 l 596 28 b 647 -3 601 6 625 -8 l 686 7 b 715 60 708 13 721 38 l 465 997 b 440 1008 463 1008 451 1011 l 360 988 b 344 961 349 985 342 972 z "},"ä":{"ha":744,"x_min":0,"x_max":0,"o":"m 75 0 l 510 0 b 553 43 533 0 553 19 l 553 82 b 510 125 553 106 533 125 l 207 125 b 185 154 192 125 181 138 l 340 740 b 310 793 347 764 332 788 l 272 803 b 219 774 250 808 225 796 l 29 58 b 75 0 21 28 43 0 z m 78 71 l 254 743 b 281 758 257 754 269 761 b 294 733 290 756 297 743 l 138 142 b 183 83 129 111 151 83 l 490 83 b 511 63 501 83 511 74 b 490 42 511 51 501 42 l 100 42 b 78 71 85 42 74 54 z m 226 1144 b 269 1101 226 1121 246 1101 l 308 1101 b 351 1144 332 1101 351 1121 l 351 1236 b 331 1257 351 1247 342 1257 l 247 1257 b 226 1236 236 1257 226 1247 b 247 1215 226 1224 236 1215 l 289 1215 b 310 1194 300 1215 310 1206 l 310 1164 b 289 1143 310 1153 300 1143 b 268 1164 278 1143 268 1153 l 268 1172 b 247 1193 268 1183 258 1193 b 226 1172 236 1193 226 1183 z m 344 961 b 371 947 349 950 360 944 l 411 957 b 436 943 421 960 433 954 l 671 68 b 656 43 674 57 667 46 b 631 57 646 40 633 46 l 401 911 b 376 925 399 921 388 928 b 361 900 365 922 358 911 l 596 28 b 647 -3 601 6 625 -8 l 686 7 b 715 60 708 13 721 38 l 465 997 b 440 1008 463 1008 451 1011 l 360 988 b 344 961 349 985 342 972 z m 393 1144 b 436 1101 393 1121 413 1101 l 475 1101 b 518 1144 499 1101 518 1121 l 518 1236 b 497 1257 518 1247 508 1257 l 414 1257 b 393 1236 403 1257 393 1247 b 414 1215 393 1224 403 1215 l 456 1215 b 476 1194 467 1215 476 1206 l 476 1164 b 456 1143 476 1153 467 1143 b 435 1164 444 1143 435 1153 l 435 1172 b 414 1193 435 1183 425 1193 b 393 1172 403 1193 393 1183 z "},"à":{"ha":744,"x_min":0,"x_max":0,"o":"m 75 0 l 510 0 b 553 43 533 0 553 19 l 553 82 b 510 125 553 106 533 125 l 207 125 b 185 154 192 125 181 138 l 340 740 b 310 793 347 764 332 788 l 272 803 b 219 774 250 808 225 796 l 29 58 b 75 0 21 28 43 0 z m 78 71 l 254 743 b 281 758 257 754 269 761 b 294 733 290 756 297 743 l 138 142 b 183 83 129 111 151 83 l 490 83 b 511 63 501 83 511 74 b 490 42 511 51 501 42 l 100 42 b 78 71 85 42 74 54 z m 282 1257 l 347 1114 b 404 1093 357 1092 383 1083 l 440 1110 b 461 1167 461 1119 471 1144 l 396 1310 b 339 1331 386 1332 360 1340 l 303 1314 b 282 1257 282 1304 272 1279 z m 329 1257 b 339 1285 325 1267 329 1281 b 367 1275 349 1289 363 1285 l 414 1167 b 404 1139 418 1157 414 1143 b 376 1149 394 1135 381 1139 z m 344 961 b 371 947 349 950 360 944 l 411 957 b 436 943 421 960 433 954 l 671 68 b 656 43 674 57 667 46 b 631 57 646 40 633 46 l 401 911 b 376 925 399 921 388 928 b 361 900 365 922 358 911 l 596 28 b 647 -3 601 6 625 -8 l 686 7 b 715 60 708 13 721 38 l 465 997 b 440 1008 463 1008 451 1011 l 360 988 b 344 961 349 985 342 972 z "},"ā":{"ha":744,"x_min":0,"x_max":0,"o":"m 75 0 l 510 0 b 553 43 533 0 553 19 l 553 82 b 510 125 553 106 533 125 l 207 125 b 185 154 192 125 181 138 l 340 740 b 310 793 347 764 332 788 l 272 803 b 219 774 250 808 225 796 l 29 58 b 75 0 21 28 43 0 z m 78 71 l 254 743 b 281 758 257 754 269 761 b 294 733 290 756 297 743 l 138 142 b 183 83 129 111 151 83 l 490 83 b 511 63 501 83 511 74 b 490 42 511 51 501 42 l 100 42 b 78 71 85 42 74 54 z m 208 1151 b 251 1108 208 1128 228 1108 l 493 1108 b 536 1151 517 1108 536 1128 l 536 1190 b 493 1233 536 1214 517 1233 l 251 1233 b 208 1190 228 1233 208 1214 z m 250 1171 b 271 1192 250 1182 260 1192 l 474 1192 b 494 1171 485 1192 494 1182 b 474 1150 494 1160 485 1150 l 271 1150 b 250 1171 260 1150 250 1160 z m 344 961 b 371 947 349 950 360 944 l 411 957 b 436 943 421 960 433 954 l 671 68 b 656 43 674 57 667 46 b 631 57 646 40 633 46 l 401 911 b 376 925 399 921 388 928 b 361 900 365 922 358 911 l 596 28 b 647 -3 601 6 625 -8 l 686 7 b 715 60 708 13 721 38 l 465 997 b 440 1008 463 1008 451 1011 l 360 988 b 344 961 349 985 342 972 z "},"ą":{"ha":744,"x_min":0,"x_max":0,"o":"m 75 0 l 510 0 b 553 43 533 0 553 19 l 553 82 b 510 125 553 106 533 125 l 207 125 b 185 154 192 125 181 138 l 340 740 b 310 793 347 764 332 788 l 272 803 b 219 774 250 808 225 796 l 29 58 b 75 0 21 28 43 0 z m 78 71 l 254 743 b 281 758 257 754 269 761 b 294 733 290 756 297 743 l 138 142 b 183 83 129 111 151 83 l 490 83 b 511 63 501 83 511 74 b 490 42 511 51 501 42 l 100 42 b 78 71 85 42 74 54 z m 344 961 b 371 947 349 950 360 944 l 411 957 b 436 943 421 960 433 954 l 671 68 b 656 43 674 57 667 46 b 631 57 646 40 633 46 l 401 911 b 376 925 399 921 388 928 b 361 900 365 922 358 911 l 596 28 b 647 -3 601 6 625 -8 l 686 7 b 715 60 708 13 721 38 l 465 997 b 440 1008 463 1008 451 1011 l 360 988 b 344 961 349 985 342 972 z m 393 -210 b 582 -394 393 -303 458 -394 b 625 -353 607 -394 625 -376 l 625 -311 b 582 -268 625 -287 607 -268 b 518 -211 533 -268 518 -250 b 604 -135 518 -160 550 -135 b 624 -112 615 -135 624 -124 b 601 -93 624 -101 614 -93 b 476 -211 533 -93 476 -135 b 565 -310 476 -269 510 -310 b 583 -329 576 -310 583 -318 b 560 -350 583 -342 574 -350 b 435 -210 492 -350 435 -283 b 604 -49 435 -78 536 -49 b 624 -28 615 -49 624 -39 b 601 -8 624 -17 614 -8 b 393 -210 514 -8 393 -39 z "},"å":{"ha":744,"x_min":0,"x_max":0,"o":"m 75 0 l 510 0 b 553 43 533 0 553 19 l 553 82 b 510 125 553 106 533 125 l 207 125 b 185 154 192 125 181 138 l 340 740 b 310 793 347 764 332 788 l 272 803 b 219 774 250 808 225 796 l 29 58 b 75 0 21 28 43 0 z m 78 71 l 254 743 b 281 758 257 754 269 761 b 294 733 290 756 297 743 l 138 142 b 183 83 129 111 151 83 l 490 83 b 511 63 501 83 511 74 b 490 42 511 51 501 42 l 100 42 b 78 71 85 42 74 54 z m 247 1204 b 372 1079 247 1135 303 1079 b 496 1204 440 1079 496 1135 b 372 1328 496 1272 440 1328 b 247 1204 303 1328 247 1272 z m 282 1204 b 372 1293 282 1254 321 1293 b 461 1204 422 1293 461 1254 b 372 1114 461 1153 422 1114 b 282 1204 321 1114 282 1153 z m 310 1204 b 372 1265 310 1238 336 1265 b 433 1204 406 1265 433 1238 b 372 1142 433 1168 406 1142 b 310 1204 336 1142 310 1168 z m 344 961 b 371 947 349 950 360 944 l 411 957 b 436 943 421 960 433 954 l 671 68 b 656 43 674 57 667 46 b 631 57 646 40 633 46 l 401 911 b 376 925 399 921 388 928 b 361 900 365 922 358 911 l 596 28 b 647 -3 601 6 625 -8 l 686 7 b 715 60 708 13 721 38 l 465 997 b 440 1008 463 1008 451 1011 l 360 988 b 344 961 349 985 342 972 z m 347 1204 b 372 1179 347 1189 357 1179 b 396 1204 386 1179 396 1189 b 372 1228 396 1218 386 1228 b 347 1204 357 1228 347 1218 z "},"ã":{"ha":744,"x_min":0,"x_max":0,"o":"m 75 0 l 510 0 b 553 43 533 0 553 19 l 553 82 b 510 125 553 106 533 125 l 207 125 b 185 154 192 125 181 138 l 340 740 b 310 793 347 764 332 788 l 272 803 b 219 774 250 808 225 796 l 29 58 b 75 0 21 28 43 0 z m 78 71 l 254 743 b 281 758 257 754 269 761 b 294 733 290 756 297 743 l 138 142 b 183 83 129 111 151 83 l 490 83 b 511 63 501 83 511 74 b 490 42 511 51 501 42 l 100 42 b 78 71 85 42 74 54 z m 179 1174 b 190 1146 175 1161 181 1151 l 239 1128 b 267 1142 250 1124 263 1131 b 297 1178 279 1178 282 1178 b 440 1103 338 1178 358 1103 b 567 1222 524 1103 564 1157 b 546 1243 567 1235 557 1243 l 496 1243 b 474 1221 485 1243 475 1235 b 446 1197 472 1200 467 1197 b 297 1269 406 1197 378 1269 b 179 1174 246 1269 206 1239 z m 221 1188 b 297 1240 240 1222 265 1240 b 446 1164 365 1240 392 1164 b 503 1200 478 1164 494 1178 b 517 1213 504 1207 510 1213 b 531 1193 526 1213 533 1201 b 440 1135 519 1157 488 1135 b 297 1208 375 1135 351 1208 b 247 1175 274 1208 263 1200 b 226 1165 243 1165 235 1161 b 221 1188 218 1169 215 1178 z m 344 961 b 371 947 349 950 360 944 l 411 957 b 436 943 421 960 433 954 l 671 68 b 656 43 674 57 667 46 b 631 57 646 40 633 46 l 401 911 b 376 925 399 921 388 928 b 361 900 365 922 358 911 l 596 28 b 647 -3 601 6 625 -8 l 686 7 b 715 60 708 13 721 38 l 465 997 b 440 1008 463 1008 451 1011 l 360 988 b 344 961 349 985 342 972 z "},"æ":{"ha":1171,"x_min":0,"x_max":0,"o":"m 75 0 l 510 0 b 553 43 533 0 553 19 l 553 82 b 510 125 553 106 533 125 l 207 125 b 185 154 192 125 181 138 l 340 740 b 310 793 347 764 332 788 l 272 803 b 219 774 250 808 225 796 l 29 58 b 75 0 21 28 43 0 z m 78 71 l 254 743 b 281 758 257 754 269 761 b 294 733 290 756 297 743 l 138 142 b 183 83 129 111 151 83 l 490 83 b 511 63 501 83 511 74 b 490 42 511 51 501 42 l 100 42 b 78 71 85 42 74 54 z m 344 961 b 371 947 349 950 360 944 l 411 957 b 436 943 421 960 433 954 l 589 372 l 589 211 l 401 911 b 376 925 399 921 388 928 b 361 900 365 922 358 911 l 589 51 l 589 43 b 632 0 589 19 608 0 l 1100 0 b 1143 43 1124 0 1143 19 l 1143 82 b 1100 125 1143 106 1124 125 l 735 125 b 714 146 724 125 714 135 l 714 829 b 735 850 714 840 724 850 l 1100 850 b 1143 893 1124 850 1143 869 l 1143 932 b 1100 975 1143 956 1124 975 l 610 975 b 589 954 599 975 589 965 b 610 933 589 942 599 933 l 1081 933 b 1101 913 1092 933 1101 924 b 1081 892 1101 901 1092 892 l 715 892 b 672 849 692 892 672 872 l 672 126 b 715 83 672 103 692 83 l 1081 83 b 1101 63 1092 83 1101 74 b 1081 42 1101 51 1092 42 l 651 42 b 631 63 640 42 631 51 l 631 890 b 610 911 631 901 621 911 b 589 890 599 911 589 901 l 589 533 l 465 997 b 440 1008 463 1008 451 1011 l 360 988 b 344 961 349 985 342 972 z m 756 499 b 799 456 756 475 775 456 l 1040 456 b 1083 499 1064 456 1083 475 l 1083 538 b 1040 581 1083 561 1064 581 l 799 581 b 756 538 775 581 756 561 z m 797 518 b 818 539 797 529 807 539 l 1021 539 b 1042 518 1032 539 1042 529 b 1021 497 1042 507 1032 497 l 818 497 b 797 518 807 497 797 507 z "},"b":{"ha":699,"x_min":0,"x_max":0,"o":"m 78 0 b 664 340 561 0 664 161 b 244 657 664 588 461 654 b 201 615 219 657 201 639 l 201 575 b 244 532 201 550 219 533 b 539 339 404 531 539 488 b 182 125 539 214 450 133 b 160 147 169 125 160 135 l 160 958 b 139 975 160 969 150 975 l 56 975 b 35 954 44 975 35 965 b 56 933 35 942 44 933 l 97 933 b 118 913 108 933 118 924 l 118 128 b 164 85 118 103 138 85 b 581 339 494 96 581 213 b 243 574 581 507 444 567 l 243 615 b 622 340 447 608 622 550 b 97 42 622 183 521 42 b 76 63 86 42 76 51 l 76 890 b 56 911 76 901 67 911 b 35 890 44 911 35 901 l 35 43 b 78 0 35 19 54 0 z m 201 893 b 244 850 201 869 221 850 l 378 850 b 401 810 400 850 413 829 l 361 744 b 376 685 349 724 357 696 l 410 665 b 469 682 431 653 457 661 l 568 850 b 589 913 581 871 589 896 l 589 932 b 546 975 589 956 569 975 l 244 975 b 201 932 221 975 201 956 z m 243 913 b 264 933 243 924 253 933 l 526 933 b 547 913 538 933 547 924 b 531 868 547 899 539 883 l 442 718 b 414 711 438 710 425 707 b 407 740 404 717 401 731 l 450 813 b 406 892 472 851 450 892 l 264 892 b 243 913 253 892 243 901 z "},"c":{"ha":718,"x_min":0,"x_max":0,"o":"m 415 -1 b 679 96 526 -1 614 26 b 678 151 694 113 693 136 l 651 178 b 589 175 632 197 608 193 b 419 125 550 140 499 125 b 160 504 219 125 160 263 b 364 849 160 744 236 839 b 385 869 376 849 385 858 b 363 889 385 881 375 890 b 118 504 213 879 118 764 b 419 83 118 269 179 83 b 606 135 503 83 561 100 b 633 135 614 143 625 143 b 632 106 640 128 642 114 b 415 40 578 58 506 40 b 76 506 161 40 76 210 b 364 933 76 814 215 924 b 385 954 376 933 385 943 b 363 975 385 965 375 975 b 35 506 197 964 35 838 b 415 -1 35 228 125 -1 z m 426 890 b 469 849 426 867 444 850 b 568 813 508 846 542 833 b 636 818 592 794 619 794 l 660 851 b 656 904 672 869 671 890 b 481 974 611 943 553 968 b 426 932 449 976 426 956 z m 468 910 l 468 913 b 492 931 468 924 479 933 b 613 886 540 925 581 908 b 614 858 621 879 621 868 b 583 854 607 847 594 846 b 486 890 557 872 524 885 b 468 910 475 892 468 900 z "},"ć":{"ha":718,"x_min":0,"x_max":0,"o":"m 415 -1 b 679 96 526 -1 614 26 b 678 151 694 113 693 136 l 651 178 b 589 175 632 197 608 193 b 419 125 550 140 499 125 b 160 504 219 125 160 263 b 364 849 160 744 236 839 b 385 869 376 849 385 858 b 363 889 385 881 375 890 b 118 504 213 879 118 764 b 419 83 118 269 179 83 b 606 135 503 83 561 100 b 633 135 614 143 625 143 b 632 106 640 128 642 114 b 415 40 578 58 506 40 b 76 506 161 40 76 210 b 364 933 76 814 215 924 b 385 954 376 933 385 943 b 363 975 385 965 375 975 b 35 506 197 964 35 838 b 415 -1 35 228 125 -1 z m 313 1144 b 333 1088 303 1122 313 1097 l 369 1071 b 426 1092 390 1061 417 1069 l 492 1235 b 471 1292 501 1257 492 1282 l 435 1308 b 378 1288 414 1318 388 1310 z m 360 1144 l 407 1253 b 435 1263 411 1263 425 1267 b 444 1235 444 1258 449 1244 l 397 1126 b 369 1117 393 1117 379 1113 b 360 1144 360 1121 356 1135 z m 426 890 b 469 849 426 867 444 850 b 568 813 508 846 542 833 b 636 818 592 794 619 794 l 660 851 b 656 904 672 869 671 890 b 481 974 611 943 553 968 b 426 932 449 976 426 956 z m 468 910 l 468 913 b 492 931 468 924 479 933 b 613 886 540 925 581 908 b 614 858 621 879 621 868 b 583 854 607 847 594 846 b 486 890 557 872 524 885 b 468 910 475 892 468 900 z "},"č":{"ha":718,"x_min":0,"x_max":0,"o":"m 415 -1 b 679 96 526 -1 614 26 b 678 151 694 113 693 136 l 651 178 b 589 175 632 197 608 193 b 419 125 550 140 499 125 b 160 504 219 125 160 263 b 364 849 160 744 236 839 b 385 869 376 849 385 858 b 363 889 385 881 375 890 b 118 504 213 879 118 764 b 419 83 118 269 179 83 b 606 135 503 83 561 100 b 633 135 614 143 625 143 b 632 106 640 128 642 114 b 415 40 578 58 506 40 b 76 506 161 40 76 210 b 364 933 76 814 215 924 b 385 954 376 933 385 943 b 363 975 385 965 375 975 b 35 506 197 964 35 838 b 415 -1 35 228 125 -1 z m 254 1269 b 279 1254 257 1257 269 1251 l 319 1265 b 346 1250 331 1268 343 1263 l 368 1171 b 388 1157 371 1161 379 1157 l 422 1157 b 442 1172 431 1157 439 1163 l 467 1254 b 492 1268 469 1264 482 1271 b 507 1243 503 1265 510 1253 l 472 1129 b 453 1115 469 1119 461 1115 l 356 1115 b 336 1129 347 1115 339 1119 l 311 1218 b 286 1233 308 1229 296 1236 b 271 1207 275 1231 268 1219 l 299 1103 b 338 1074 303 1086 319 1074 l 469 1074 b 508 1103 488 1074 503 1085 l 551 1251 b 522 1304 557 1272 544 1299 l 483 1314 b 432 1283 461 1319 439 1304 l 404 1196 l 375 1301 b 350 1317 372 1313 361 1319 l 269 1294 b 254 1269 258 1292 251 1279 z m 426 890 b 469 849 426 867 444 850 b 568 813 508 846 542 833 b 636 818 592 794 619 794 l 660 851 b 656 904 672 869 671 890 b 481 974 611 943 553 968 b 426 932 449 976 426 956 z m 468 910 l 468 913 b 492 931 468 924 479 933 b 613 886 540 925 581 908 b 614 858 621 879 621 868 b 583 854 607 847 594 846 b 486 890 557 872 524 885 b 468 910 475 892 468 900 z "},"ç":{"ha":718,"x_min":0,"x_max":0,"o":"m 415 -1 b 679 96 526 -1 614 26 b 678 151 694 113 693 136 l 651 178 b 589 175 632 197 608 193 b 419 125 550 140 499 125 b 160 504 219 125 160 263 b 364 849 160 744 236 839 b 385 869 376 849 385 858 b 363 889 385 881 375 890 b 118 504 213 879 118 764 b 419 83 118 269 179 83 b 606 135 503 83 561 100 b 633 135 614 143 625 143 b 632 106 640 128 642 114 b 415 40 578 58 506 40 b 76 506 161 40 76 210 b 364 933 76 814 215 924 b 385 954 376 933 385 943 b 363 975 385 965 375 975 b 35 506 197 964 35 838 b 415 -1 35 228 125 -1 z m 328 -385 b 371 -426 328 -408 346 -426 b 560 -256 494 -426 560 -335 b 476 -110 560 -178 524 -133 l 488 -65 b 474 -40 490 -53 485 -43 b 447 -56 463 -37 450 -44 l 432 -117 b 447 -143 429 -128 436 -140 b 518 -256 486 -162 518 -197 b 393 -382 518 -315 461 -382 b 369 -361 379 -382 369 -374 b 388 -342 369 -350 376 -342 b 476 -257 443 -342 476 -301 b 382 -169 476 -217 436 -181 l 411 -65 b 397 -40 414 -53 408 -43 b 371 -56 386 -37 374 -44 l 339 -169 b 329 -186 333 -174 329 -179 b 349 -208 329 -197 338 -208 b 435 -257 403 -208 435 -233 b 371 -300 435 -282 419 -300 b 328 -343 346 -300 328 -319 z m 426 890 b 469 849 426 867 444 850 b 568 813 508 846 542 833 b 636 818 592 794 619 794 l 660 851 b 656 904 672 869 671 890 b 481 974 611 943 553 968 b 426 932 449 976 426 956 z m 468 910 l 468 913 b 492 931 468 924 479 933 b 613 886 540 925 581 908 b 614 858 621 879 621 868 b 583 854 607 847 594 846 b 486 890 557 872 524 885 b 468 910 475 892 468 900 z "},"ċ":{"ha":718,"x_min":0,"x_max":0,"o":"m 415 -1 b 679 96 526 -1 614 26 b 678 151 694 113 693 136 l 651 178 b 589 175 632 197 608 193 b 419 125 550 140 499 125 b 160 504 219 125 160 263 b 364 849 160 744 236 839 b 385 869 376 849 385 858 b 363 889 385 881 375 890 b 118 504 213 879 118 764 b 419 83 118 269 179 83 b 606 135 503 83 561 100 b 633 135 614 143 625 143 b 632 106 640 128 642 114 b 415 40 578 58 506 40 b 76 506 161 40 76 210 b 364 933 76 814 215 924 b 385 954 376 933 385 943 b 363 975 385 965 375 975 b 35 506 197 964 35 838 b 415 -1 35 228 125 -1 z m 340 1122 b 383 1079 340 1099 360 1079 l 422 1079 b 465 1122 446 1079 465 1099 l 465 1214 b 444 1235 465 1225 456 1235 l 361 1235 b 340 1214 350 1235 340 1225 b 361 1193 340 1201 350 1193 l 403 1193 b 424 1172 414 1193 424 1183 l 424 1142 b 403 1121 424 1131 414 1121 b 382 1142 392 1121 382 1131 l 382 1150 b 361 1171 382 1161 372 1171 b 340 1150 350 1171 340 1161 z m 426 890 b 469 849 426 867 444 850 b 568 813 508 846 542 833 b 636 818 592 794 619 794 l 660 851 b 656 904 672 869 671 890 b 481 974 611 943 553 968 b 426 932 449 976 426 956 z m 468 910 l 468 913 b 492 931 468 924 479 933 b 613 886 540 925 581 908 b 614 858 621 879 621 868 b 583 854 607 847 594 846 b 486 890 557 872 524 885 b 468 910 475 892 468 900 z "},"d":{"ha":685,"x_min":0,"x_max":0,"o":"m 244 -1 b 664 478 569 8 664 239 b 244 975 664 854 461 967 b 201 932 219 975 201 956 l 201 893 b 244 850 201 869 219 851 b 539 476 433 844 539 757 b 244 124 539 279 476 132 b 201 82 219 122 201 106 l 201 42 b 244 -1 201 18 219 -3 z m 35 43 b 78 0 35 19 54 0 l 117 0 b 160 43 140 0 160 19 l 160 958 b 139 975 160 969 150 975 l 56 975 b 35 954 44 975 35 965 b 56 933 35 942 44 933 l 97 933 b 118 913 108 933 118 924 l 118 63 b 97 42 118 51 108 42 b 76 63 86 42 76 51 l 76 890 b 56 911 76 901 67 911 b 35 890 44 911 35 901 z m 243 63 b 264 83 243 74 251 82 b 581 476 508 100 581 272 b 263 890 581 774 453 878 b 243 911 251 892 243 900 l 243 913 b 265 932 243 924 253 933 b 622 478 460 918 622 814 b 267 42 622 257 544 61 b 243 63 253 40 243 50 z "},"ð":{"ha":685,"x_min":0,"x_max":0,"o":"m 244 -1 b 664 478 569 8 664 239 b 244 975 664 854 461 967 b 201 932 219 975 201 956 l 201 893 b 244 850 201 869 219 851 b 539 476 433 844 539 757 b 244 124 539 279 476 132 b 201 82 219 122 201 106 l 201 42 b 244 -1 201 18 219 -3 z m -83 499 b -40 456 -83 475 -64 456 l 35 456 l 35 43 b 78 0 35 19 54 0 l 117 0 b 160 43 140 0 160 19 l 160 456 l 243 456 b 286 499 267 456 286 475 l 286 538 b 243 581 286 561 267 581 l 160 581 l 160 958 b 139 975 160 969 150 975 l 56 975 b 35 954 44 975 35 965 b 56 933 35 942 44 933 l 97 933 b 118 913 108 933 118 924 l 118 63 b 97 42 118 51 108 42 b 76 63 86 42 76 51 l 76 890 b 56 911 76 901 67 911 b 35 890 44 911 35 901 l 35 581 l -40 581 b -83 538 -64 581 -83 561 z m -42 518 b -21 539 -42 529 -32 539 l 35 539 l 35 497 l -21 497 b -42 518 -32 497 -42 507 z m 160 497 l 160 539 l 224 539 b 244 518 235 539 244 529 b 224 497 244 507 235 497 z m 243 63 b 264 83 243 74 251 82 b 581 476 508 100 581 272 b 263 890 581 774 453 878 b 243 911 251 892 243 900 l 243 913 b 265 932 243 924 253 933 b 622 478 460 918 622 814 b 267 42 622 257 544 61 b 243 63 253 40 243 50 z "},"ď":{"ha":685,"x_min":0,"x_max":0,"o":"m 244 -1 b 664 478 569 8 664 239 b 244 975 664 854 461 967 b 201 932 219 975 201 956 l 201 893 b 244 850 201 869 219 851 b 539 476 433 844 539 757 b 244 124 539 279 476 132 b 201 82 219 122 201 106 l 201 42 b 244 -1 201 18 219 -3 z m 35 43 b 78 0 35 19 54 0 l 117 0 b 160 43 140 0 160 19 l 160 958 b 139 975 160 969 150 975 l 56 975 b 35 954 44 975 35 965 b 56 933 35 942 44 933 l 97 933 b 118 913 108 933 118 924 l 118 63 b 97 42 118 51 108 42 b 76 63 86 42 76 51 l 76 890 b 56 911 76 901 67 911 b 35 890 44 911 35 901 z m 243 63 b 264 83 243 74 251 82 b 581 476 508 100 581 272 b 263 890 581 774 453 878 b 243 911 251 892 243 900 l 243 913 b 265 932 243 924 253 933 b 622 478 460 918 622 814 b 267 42 622 257 544 61 b 243 63 253 40 243 50 z m 689 918 b 710 861 679 896 689 871 l 746 844 b 803 865 767 835 793 843 l 868 1008 b 847 1065 878 1031 868 1056 l 811 1082 b 754 1061 790 1092 764 1083 z m 736 918 l 783 1026 b 811 1036 788 1036 801 1040 b 821 1008 821 1032 825 1018 l 774 900 b 746 890 769 890 756 886 b 736 918 736 894 732 908 z "},"đ":{"ha":685,"x_min":0,"x_max":0,"o":"m 244 -1 b 664 478 569 8 664 239 b 244 975 664 854 461 967 b 201 932 219 975 201 956 l 201 893 b 244 850 201 869 219 851 b 539 476 433 844 539 757 b 244 124 539 279 476 132 b 201 82 219 122 201 106 l 201 42 b 244 -1 201 18 219 -3 z m -83 499 b -40 456 -83 475 -64 456 l 35 456 l 35 43 b 78 0 35 19 54 0 l 117 0 b 160 43 140 0 160 19 l 160 456 l 243 456 b 286 499 267 456 286 475 l 286 538 b 243 581 286 561 267 581 l 160 581 l 160 958 b 139 975 160 969 150 975 l 56 975 b 35 954 44 975 35 965 b 56 933 35 942 44 933 l 97 933 b 118 913 108 933 118 924 l 118 63 b 97 42 118 51 108 42 b 76 63 86 42 76 51 l 76 890 b 56 911 76 901 67 911 b 35 890 44 911 35 901 l 35 581 l -40 581 b -83 538 -64 581 -83 561 z m -42 518 b -21 539 -42 529 -32 539 l 35 539 l 35 497 l -21 497 b -42 518 -32 497 -42 507 z m 160 497 l 160 539 l 224 539 b 244 518 235 539 244 529 b 224 497 244 507 235 497 z m 243 63 b 264 83 243 74 251 82 b 581 476 508 100 581 272 b 263 890 581 774 453 878 b 243 911 251 892 243 900 l 243 913 b 265 932 243 924 253 933 b 622 478 460 918 622 814 b 267 42 622 257 544 61 b 243 63 253 40 243 50 z "},"e":{"ha":617,"x_min":0,"x_max":0,"o":"m 78 0 l 546 0 b 589 43 569 0 589 19 l 589 82 b 546 125 589 106 569 125 l 181 125 b 160 146 169 125 160 135 l 160 829 b 181 850 160 840 169 850 l 546 850 b 589 893 569 850 589 869 l 589 932 b 546 975 589 956 569 975 l 56 975 b 35 954 44 975 35 965 b 56 933 35 942 44 933 l 526 933 b 547 913 538 933 547 924 b 526 892 547 901 538 892 l 161 892 b 118 849 138 892 118 872 l 118 126 b 161 83 118 103 138 83 l 526 83 b 547 63 538 83 547 74 b 526 42 547 51 538 42 l 97 42 b 76 63 86 42 76 51 l 76 890 b 56 911 76 901 67 911 b 35 890 44 911 35 901 l 35 43 b 78 0 35 19 54 0 z m 201 499 b 244 456 201 475 221 456 l 486 456 b 529 499 510 456 529 475 l 529 538 b 486 581 529 561 510 581 l 244 581 b 201 538 221 581 201 561 z m 243 518 b 264 539 243 529 253 539 l 467 539 b 488 518 478 539 488 529 b 467 497 488 507 478 497 l 264 497 b 243 518 253 497 243 507 z "},"é":{"ha":617,"x_min":0,"x_max":0,"o":"m 78 0 l 546 0 b 589 43 569 0 589 19 l 589 82 b 546 125 589 106 569 125 l 181 125 b 160 146 169 125 160 135 l 160 829 b 181 850 160 840 169 850 l 546 850 b 589 893 569 850 589 869 l 589 932 b 546 975 589 956 569 975 l 56 975 b 35 954 44 975 35 965 b 56 933 35 942 44 933 l 526 933 b 547 913 538 933 547 924 b 526 892 547 901 538 892 l 161 892 b 118 849 138 892 118 872 l 118 126 b 161 83 118 103 138 83 l 526 83 b 547 63 538 83 547 74 b 526 42 547 51 538 42 l 97 42 b 76 63 86 42 76 51 l 76 890 b 56 911 76 901 67 911 b 35 890 44 911 35 901 l 35 43 b 78 0 35 19 54 0 z m 201 499 b 244 456 201 475 221 456 l 486 456 b 529 499 510 456 529 475 l 529 538 b 486 581 529 561 510 581 l 244 581 b 201 538 221 581 201 561 z m 218 1168 b 239 1111 208 1146 218 1121 l 275 1094 b 332 1115 296 1085 322 1093 l 397 1258 b 376 1315 407 1281 397 1306 l 340 1332 b 283 1311 319 1342 293 1333 z m 243 518 b 264 539 243 529 253 539 l 467 539 b 488 518 478 539 488 529 b 467 497 488 507 478 497 l 264 497 b 243 518 253 497 243 507 z m 265 1168 l 313 1276 b 340 1286 317 1286 331 1290 b 350 1258 350 1282 354 1268 l 303 1150 b 275 1140 299 1140 285 1136 b 265 1168 265 1144 261 1158 z "},"ě":{"ha":617,"x_min":0,"x_max":0,"o":"m 78 0 l 546 0 b 589 43 569 0 589 19 l 589 82 b 546 125 589 106 569 125 l 181 125 b 160 146 169 125 160 135 l 160 829 b 181 850 160 840 169 850 l 546 850 b 589 893 569 850 589 869 l 589 932 b 546 975 589 956 569 975 l 56 975 b 35 954 44 975 35 965 b 56 933 35 942 44 933 l 526 933 b 547 913 538 933 547 924 b 526 892 547 901 538 892 l 161 892 b 118 849 138 892 118 872 l 118 126 b 161 83 118 103 138 83 l 526 83 b 547 63 538 83 547 74 b 526 42 547 51 538 42 l 97 42 b 76 63 86 42 76 51 l 76 890 b 56 911 76 901 67 911 b 35 890 44 911 35 901 l 35 43 b 78 0 35 19 54 0 z m 160 1293 b 185 1278 163 1281 175 1275 l 225 1289 b 251 1274 236 1292 249 1286 l 274 1194 b 293 1181 276 1185 285 1181 l 328 1181 b 347 1196 336 1181 344 1186 l 372 1278 b 397 1292 375 1288 388 1294 b 413 1267 408 1289 415 1276 l 378 1153 b 358 1139 375 1143 367 1139 l 261 1139 b 242 1153 253 1139 244 1143 l 217 1242 b 192 1257 214 1253 201 1260 b 176 1231 181 1254 174 1243 l 204 1126 b 243 1097 208 1110 225 1097 l 375 1097 b 414 1126 393 1097 408 1108 l 457 1275 b 428 1328 463 1296 450 1322 l 389 1338 b 338 1307 367 1343 344 1328 l 310 1219 l 281 1325 b 256 1340 278 1336 267 1343 l 175 1318 b 160 1293 164 1315 157 1303 z m 201 499 b 244 456 201 475 221 456 l 486 456 b 529 499 510 456 529 475 l 529 538 b 486 581 529 561 510 581 l 244 581 b 201 538 221 581 201 561 z m 243 518 b 264 539 243 529 253 539 l 467 539 b 488 518 478 539 488 529 b 467 497 488 507 478 497 l 264 497 b 243 518 253 497 243 507 z "},"ê":{"ha":617,"x_min":0,"x_max":0,"o":"m 78 0 l 546 0 b 589 43 569 0 589 19 l 589 82 b 546 125 589 106 569 125 l 181 125 b 160 146 169 125 160 135 l 160 829 b 181 850 160 840 169 850 l 546 850 b 589 893 569 850 589 869 l 589 932 b 546 975 589 956 569 975 l 56 975 b 35 954 44 975 35 965 b 56 933 35 942 44 933 l 526 933 b 547 913 538 933 547 924 b 526 892 547 901 538 892 l 161 892 b 118 849 138 892 118 872 l 118 126 b 161 83 118 103 138 83 l 526 83 b 547 63 538 83 547 74 b 526 42 547 51 538 42 l 97 42 b 76 63 86 42 76 51 l 76 890 b 56 911 76 901 67 911 b 35 890 44 911 35 901 l 35 43 b 78 0 35 19 54 0 z m 160 1144 b 175 1119 157 1135 164 1122 l 256 1097 b 281 1113 267 1094 278 1101 l 310 1218 l 338 1131 b 389 1100 344 1110 367 1094 l 428 1110 b 457 1163 450 1115 463 1142 l 414 1311 b 375 1340 408 1329 393 1340 l 243 1340 b 204 1311 225 1340 208 1328 l 176 1207 b 192 1181 174 1194 181 1183 b 217 1196 201 1178 214 1185 l 242 1285 b 261 1299 244 1294 253 1299 l 358 1299 b 378 1285 367 1299 375 1294 l 413 1171 b 397 1146 415 1161 408 1149 b 372 1160 388 1143 375 1150 l 347 1242 b 328 1257 344 1251 336 1257 l 293 1257 b 274 1243 285 1257 276 1253 l 251 1164 b 225 1149 249 1151 236 1146 l 185 1160 b 160 1144 175 1163 163 1157 z m 201 499 b 244 456 201 475 221 456 l 486 456 b 529 499 510 456 529 475 l 529 538 b 486 581 529 561 510 581 l 244 581 b 201 538 221 581 201 561 z m 243 518 b 264 539 243 529 253 539 l 467 539 b 488 518 478 539 488 529 b 467 497 488 507 478 497 l 264 497 b 243 518 253 497 243 507 z "},"ë":{"ha":617,"x_min":0,"x_max":0,"o":"m 78 0 l 546 0 b 589 43 569 0 589 19 l 589 82 b 546 125 589 106 569 125 l 181 125 b 160 146 169 125 160 135 l 160 829 b 181 850 160 840 169 850 l 546 850 b 589 893 569 850 589 869 l 589 932 b 546 975 589 956 569 975 l 56 975 b 35 954 44 975 35 965 b 56 933 35 942 44 933 l 526 933 b 547 913 538 933 547 924 b 526 892 547 901 538 892 l 161 892 b 118 849 138 892 118 872 l 118 126 b 161 83 118 103 138 83 l 526 83 b 547 63 538 83 547 74 b 526 42 547 51 538 42 l 97 42 b 76 63 86 42 76 51 l 76 890 b 56 911 76 901 67 911 b 35 890 44 911 35 901 l 35 43 b 78 0 35 19 54 0 z m 163 1146 b 206 1103 163 1122 182 1103 l 244 1103 b 288 1146 268 1103 288 1122 l 288 1238 b 267 1258 288 1249 278 1258 l 183 1258 b 163 1238 172 1258 163 1249 b 183 1217 163 1225 172 1217 l 225 1217 b 246 1196 236 1217 246 1207 l 246 1165 b 225 1144 246 1154 236 1144 b 204 1165 214 1144 204 1154 l 204 1174 b 183 1194 204 1185 194 1194 b 163 1174 172 1194 163 1185 z m 201 499 b 244 456 201 475 221 456 l 486 456 b 529 499 510 456 529 475 l 529 538 b 486 581 529 561 510 581 l 244 581 b 201 538 221 581 201 561 z m 243 518 b 264 539 243 529 253 539 l 467 539 b 488 518 478 539 488 529 b 467 497 488 507 478 497 l 264 497 b 243 518 253 497 243 507 z m 329 1146 b 372 1103 329 1122 349 1103 l 411 1103 b 454 1146 435 1103 454 1122 l 454 1238 b 433 1258 454 1249 444 1258 l 350 1258 b 329 1238 339 1258 329 1249 b 350 1217 329 1225 339 1217 l 392 1217 b 413 1196 403 1217 413 1207 l 413 1165 b 392 1144 413 1154 403 1144 b 371 1165 381 1144 371 1154 l 371 1174 b 350 1194 371 1185 361 1194 b 329 1174 339 1194 329 1185 z "},"ė":{"ha":617,"x_min":0,"x_max":0,"o":"m 78 0 l 546 0 b 589 43 569 0 589 19 l 589 82 b 546 125 589 106 569 125 l 181 125 b 160 146 169 125 160 135 l 160 829 b 181 850 160 840 169 850 l 546 850 b 589 893 569 850 589 869 l 589 932 b 546 975 589 956 569 975 l 56 975 b 35 954 44 975 35 965 b 56 933 35 942 44 933 l 526 933 b 547 913 538 933 547 924 b 526 892 547 901 538 892 l 161 892 b 118 849 138 892 118 872 l 118 126 b 161 83 118 103 138 83 l 526 83 b 547 63 538 83 547 74 b 526 42 547 51 538 42 l 97 42 b 76 63 86 42 76 51 l 76 890 b 56 911 76 901 67 911 b 35 890 44 911 35 901 l 35 43 b 78 0 35 19 54 0 z m 201 499 b 244 456 201 475 221 456 l 486 456 b 529 499 510 456 529 475 l 529 538 b 486 581 529 561 510 581 l 244 581 b 201 538 221 581 201 561 z m 243 518 b 264 539 243 529 253 539 l 467 539 b 488 518 478 539 488 529 b 467 497 488 507 478 497 l 264 497 b 243 518 253 497 243 507 z m 246 1146 b 289 1103 246 1122 265 1103 l 328 1103 b 371 1146 351 1103 371 1122 l 371 1238 b 350 1258 371 1249 361 1258 l 267 1258 b 246 1238 256 1258 246 1249 b 267 1217 246 1225 256 1217 l 308 1217 b 329 1196 319 1217 329 1207 l 329 1165 b 308 1144 329 1154 319 1144 b 288 1165 297 1144 288 1154 l 288 1174 b 267 1194 288 1185 278 1194 b 246 1174 256 1194 246 1185 z "},"è":{"ha":617,"x_min":0,"x_max":0,"o":"m 78 0 l 546 0 b 589 43 569 0 589 19 l 589 82 b 546 125 589 106 569 125 l 181 125 b 160 146 169 125 160 135 l 160 829 b 181 850 160 840 169 850 l 546 850 b 589 893 569 850 589 869 l 589 932 b 546 975 589 956 569 975 l 56 975 b 35 954 44 975 35 965 b 56 933 35 942 44 933 l 526 933 b 547 913 538 933 547 924 b 526 892 547 901 538 892 l 161 892 b 118 849 138 892 118 872 l 118 126 b 161 83 118 103 138 83 l 526 83 b 547 63 538 83 547 74 b 526 42 547 51 538 42 l 97 42 b 76 63 86 42 76 51 l 76 890 b 56 911 76 901 67 911 b 35 890 44 911 35 901 l 35 43 b 78 0 35 19 54 0 z m 201 499 b 244 456 201 475 221 456 l 486 456 b 529 499 510 456 529 475 l 529 538 b 486 581 529 561 510 581 l 244 581 b 201 538 221 581 201 561 z m 218 1258 l 283 1115 b 340 1094 293 1093 319 1085 l 376 1111 b 397 1168 397 1121 407 1146 l 332 1311 b 275 1332 322 1333 296 1342 l 239 1315 b 218 1258 218 1306 208 1281 z m 243 518 b 264 539 243 529 253 539 l 467 539 b 488 518 478 539 488 529 b 467 497 488 507 478 497 l 264 497 b 243 518 253 497 243 507 z m 265 1258 b 275 1286 261 1268 265 1282 b 303 1276 285 1290 299 1286 l 350 1168 b 340 1140 354 1158 350 1144 b 313 1150 331 1136 317 1140 z "},"ē":{"ha":617,"x_min":0,"x_max":0,"o":"m 78 0 l 546 0 b 589 43 569 0 589 19 l 589 82 b 546 125 589 106 569 125 l 181 125 b 160 146 169 125 160 135 l 160 829 b 181 850 160 840 169 850 l 546 850 b 589 893 569 850 589 869 l 589 932 b 546 975 589 956 569 975 l 56 975 b 35 954 44 975 35 965 b 56 933 35 942 44 933 l 526 933 b 547 913 538 933 547 924 b 526 892 547 901 538 892 l 161 892 b 118 849 138 892 118 872 l 118 126 b 161 83 118 103 138 83 l 526 83 b 547 63 538 83 547 74 b 526 42 547 51 538 42 l 97 42 b 76 63 86 42 76 51 l 76 890 b 56 911 76 901 67 911 b 35 890 44 911 35 901 l 35 43 b 78 0 35 19 54 0 z m 144 1153 b 188 1110 144 1129 164 1110 l 429 1110 b 472 1153 453 1110 472 1129 l 472 1192 b 429 1235 472 1215 453 1235 l 188 1235 b 144 1192 164 1235 144 1215 z m 186 1172 b 207 1193 186 1183 196 1193 l 410 1193 b 431 1172 421 1193 431 1183 b 410 1151 431 1161 421 1151 l 207 1151 b 186 1172 196 1151 186 1161 z m 201 499 b 244 456 201 475 221 456 l 486 456 b 529 499 510 456 529 475 l 529 538 b 486 581 529 561 510 581 l 244 581 b 201 538 221 581 201 561 z m 243 518 b 264 539 243 529 253 539 l 467 539 b 488 518 478 539 488 529 b 467 497 488 507 478 497 l 264 497 b 243 518 253 497 243 507 z "},"ę":{"ha":617,"x_min":0,"x_max":0,"o":"m 78 0 l 440 0 b 324 -187 378 -21 324 -74 b 513 -372 324 -281 389 -372 b 556 -331 538 -372 556 -354 l 556 -289 b 513 -246 556 -265 538 -246 b 449 -189 464 -246 449 -228 b 535 -112 449 -137 481 -112 b 554 -90 546 -112 554 -101 b 532 -71 554 -79 544 -71 b 407 -189 464 -71 407 -112 b 496 -287 407 -247 440 -287 b 514 -307 507 -287 514 -296 b 490 -328 514 -319 504 -328 b 365 -187 422 -328 365 -261 b 535 -26 365 -56 467 -26 b 554 -6 546 -26 554 -17 b 553 0 554 -3 554 -1 b 589 43 574 4 589 22 l 589 82 b 546 125 589 106 569 125 l 181 125 b 160 146 169 125 160 135 l 160 829 b 181 850 160 840 169 850 l 546 850 b 589 893 569 850 589 869 l 589 932 b 546 975 589 956 569 975 l 56 975 b 35 954 44 975 35 965 b 56 933 35 942 44 933 l 526 933 b 547 913 538 933 547 924 b 526 892 547 901 538 892 l 161 892 b 118 849 138 892 118 872 l 118 126 b 161 83 118 103 138 83 l 526 83 b 547 63 538 83 547 74 b 526 42 547 51 538 42 l 97 42 b 76 63 86 42 76 51 l 76 890 b 56 911 76 901 67 911 b 35 890 44 911 35 901 l 35 43 b 78 0 35 19 54 0 z m 201 499 b 244 456 201 475 221 456 l 486 456 b 529 499 510 456 529 475 l 529 538 b 486 581 529 561 510 581 l 244 581 b 201 538 221 581 201 561 z m 243 518 b 264 539 243 529 253 539 l 467 539 b 488 518 478 539 488 529 b 467 497 488 507 478 497 l 264 497 b 243 518 253 497 243 507 z "},"ẽ":{"ha":617,"x_min":0,"x_max":0,"o":"m 78 0 l 546 0 b 589 43 569 0 589 19 l 589 82 b 546 125 589 106 569 125 l 181 125 b 160 146 169 125 160 135 l 160 829 b 181 850 160 840 169 850 l 546 850 b 589 893 569 850 589 869 l 589 932 b 546 975 589 956 569 975 l 56 975 b 35 954 44 975 35 965 b 56 933 35 942 44 933 l 526 933 b 547 913 538 933 547 924 b 526 892 547 901 538 892 l 161 892 b 118 849 138 892 118 872 l 118 126 b 161 83 118 103 138 83 l 526 83 b 547 63 538 83 547 74 b 526 42 547 51 538 42 l 97 42 b 76 63 86 42 76 51 l 76 890 b 56 911 76 901 67 911 b 35 890 44 911 35 901 l 35 43 b 78 0 35 19 54 0 z m 115 1175 b 126 1147 111 1163 117 1153 l 175 1129 b 203 1143 186 1125 199 1132 b 233 1179 215 1179 218 1179 b 376 1104 274 1179 294 1104 b 503 1224 460 1104 500 1158 b 482 1244 503 1236 493 1244 l 432 1244 b 410 1222 421 1244 411 1236 b 382 1199 408 1201 403 1199 b 233 1271 342 1199 314 1271 b 115 1175 182 1271 142 1240 z m 157 1189 b 233 1242 176 1224 201 1242 b 382 1165 301 1242 328 1165 b 439 1201 414 1165 431 1179 b 453 1214 440 1208 446 1214 b 467 1194 463 1214 469 1203 b 376 1136 456 1158 424 1136 b 233 1210 311 1136 288 1210 b 183 1176 210 1210 199 1201 b 163 1167 179 1167 171 1163 b 157 1189 154 1171 151 1179 z m 201 499 b 244 456 201 475 221 456 l 486 456 b 529 499 510 456 529 475 l 529 538 b 486 581 529 561 510 581 l 244 581 b 201 538 221 581 201 561 z m 243 518 b 264 539 243 529 253 539 l 467 539 b 488 518 478 539 488 529 b 467 497 488 507 478 497 l 264 497 b 243 518 253 497 243 507 z "},"ə":{"ha":707,"x_min":0,"x_max":0,"o":"m 403 0 b 679 411 544 10 679 129 b 157 974 679 744 508 974 b 114 932 132 974 114 956 l 114 892 b 157 849 114 868 132 849 b 554 413 421 849 554 692 b 404 126 554 243 506 136 b 385 104 393 125 385 115 b 407 85 385 93 394 83 b 596 413 529 96 596 211 b 175 889 596 696 467 889 b 156 910 164 889 156 899 b 179 931 156 922 165 931 b 638 411 492 931 638 710 b 400 40 638 174 526 50 b 381 19 389 39 381 31 b 403 0 381 8 390 -1 z m 28 325 b 300 -1 28 206 79 10 b 343 40 325 -3 343 17 l 343 82 b 300 125 343 106 325 124 b 153 324 175 135 153 246 b 443 533 153 417 222 533 b 463 556 454 533 463 544 b 440 575 463 567 453 575 b 111 324 206 575 111 442 b 283 83 111 240 140 106 b 301 64 294 82 301 75 b 278 43 301 51 292 42 b 69 325 104 67 69 226 b 443 619 69 513 208 619 b 463 640 454 619 463 629 b 440 660 463 651 453 660 b 28 325 186 660 28 551 z "},"f":{"ha":638,"x_min":0,"x_max":0,"o":"m 92 0 l 131 0 b 174 43 154 0 174 19 l 174 829 b 194 850 174 840 183 850 l 560 850 b 603 893 583 850 603 869 l 603 932 b 560 975 603 956 583 975 l 69 975 b 49 954 58 975 49 965 b 69 933 49 942 58 933 l 540 933 b 561 913 551 933 561 924 b 540 892 561 901 551 892 l 175 892 b 132 849 151 892 132 872 l 132 63 b 111 42 132 51 122 42 b 90 63 100 42 90 51 l 90 890 b 69 911 90 901 81 911 b 49 890 58 911 49 901 l 49 43 b 92 0 49 19 68 0 z m 215 499 b 258 456 215 475 235 456 l 500 456 b 543 499 524 456 543 475 l 543 538 b 500 581 543 561 524 581 l 258 581 b 215 538 235 581 215 561 z m 257 518 b 278 539 257 529 267 539 l 481 539 b 501 518 492 539 501 529 b 481 497 501 507 492 497 l 278 497 b 257 518 267 497 257 507 z "},"g":{"ha":718,"x_min":0,"x_max":0,"o":"m 414 -1 l 436 -1 b 479 42 460 -1 479 18 l 479 81 b 436 124 479 104 460 124 l 415 124 b 160 504 219 124 160 263 b 364 849 160 744 236 839 b 385 869 376 849 385 858 b 363 889 385 881 375 890 b 118 504 213 879 118 764 b 414 82 118 269 179 83 l 417 82 b 438 61 428 82 438 72 b 417 40 438 50 428 40 l 415 40 b 76 506 161 40 76 210 b 364 933 76 814 215 924 b 385 954 376 933 385 943 b 363 975 385 965 375 975 b 35 506 197 964 35 838 b 414 -1 35 228 125 0 z m 251 503 b 294 460 251 479 271 460 l 647 460 b 690 503 671 460 690 479 l 690 542 b 647 585 690 565 671 585 l 294 585 b 251 542 271 585 251 565 z m 293 522 b 314 543 293 533 303 543 l 628 543 b 649 522 639 543 649 533 b 628 501 649 511 639 501 l 314 501 b 293 522 303 501 293 511 z m 426 890 b 469 849 426 867 444 850 b 568 813 508 846 542 833 b 636 818 592 794 619 794 l 660 851 b 656 904 672 869 671 890 b 481 974 611 943 553 968 b 426 932 449 976 426 956 z m 468 910 l 468 913 b 492 931 468 924 479 933 b 613 886 540 925 581 908 b 614 858 621 879 621 868 b 583 854 607 847 594 846 b 486 890 557 872 524 885 b 468 910 475 892 468 900 z m 521 43 b 564 0 521 19 540 0 l 603 0 b 646 43 626 0 646 19 l 646 397 b 625 418 646 408 636 418 l 542 418 b 521 397 531 418 521 408 b 542 376 521 385 531 376 l 583 376 b 604 356 594 376 604 367 l 604 63 b 583 42 604 51 594 42 b 563 63 572 42 563 51 l 563 333 b 542 354 563 344 553 354 b 521 333 531 354 521 344 z "},"ğ":{"ha":718,"x_min":0,"x_max":0,"o":"m 414 -1 l 436 -1 b 479 42 460 -1 479 18 l 479 81 b 436 124 479 104 460 124 l 415 124 b 160 504 219 124 160 263 b 364 849 160 744 236 839 b 385 869 376 849 385 858 b 363 889 385 881 375 890 b 118 504 213 879 118 764 b 414 82 118 269 179 83 l 417 82 b 438 61 428 82 438 72 b 417 40 438 50 428 40 l 415 40 b 76 506 161 40 76 210 b 364 933 76 814 215 924 b 385 954 376 933 385 943 b 363 975 385 965 375 975 b 35 506 197 964 35 838 b 414 -1 35 228 125 0 z m 171 1306 b 372 1097 171 1218 201 1097 b 557 1286 465 1097 557 1163 b 515 1329 557 1311 539 1329 l 474 1329 b 431 1286 450 1329 431 1311 b 374 1222 431 1238 413 1222 b 297 1308 322 1222 297 1254 b 275 1328 297 1319 286 1328 b 256 1306 264 1328 256 1318 b 374 1181 256 1238 297 1181 b 472 1269 432 1181 472 1214 b 492 1288 472 1281 481 1288 b 513 1264 504 1288 513 1278 b 372 1139 513 1196 446 1139 b 211 1308 240 1139 211 1240 b 190 1328 211 1319 201 1328 b 171 1306 179 1328 171 1318 z m 251 503 b 294 460 251 479 271 460 l 647 460 b 690 503 671 460 690 479 l 690 542 b 647 585 690 565 671 585 l 294 585 b 251 542 271 585 251 565 z m 293 522 b 314 543 293 533 303 543 l 628 543 b 649 522 639 543 649 533 b 628 501 649 511 639 501 l 314 501 b 293 522 303 501 293 511 z m 426 890 b 469 849 426 867 444 850 b 568 813 508 846 542 833 b 636 818 592 794 619 794 l 660 851 b 656 904 672 869 671 890 b 481 974 611 943 553 968 b 426 932 449 976 426 956 z m 468 910 l 468 913 b 492 931 468 924 479 933 b 613 886 540 925 581 908 b 614 858 621 879 621 868 b 583 854 607 847 594 846 b 486 890 557 872 524 885 b 468 910 475 892 468 900 z m 521 43 b 564 0 521 19 540 0 l 603 0 b 646 43 626 0 646 19 l 646 397 b 625 418 646 408 636 418 l 542 418 b 521 397 531 418 521 408 b 542 376 521 385 531 376 l 583 376 b 604 356 594 376 604 367 l 604 63 b 583 42 604 51 594 42 b 563 63 572 42 563 51 l 563 333 b 542 354 563 344 553 354 b 521 333 531 354 521 344 z "},"ģ":{"ha":718,"x_min":0,"x_max":0,"o":"m 414 -1 l 436 -1 b 479 42 460 -1 479 18 l 479 81 b 436 124 479 104 460 124 l 415 124 b 160 504 219 124 160 263 b 364 849 160 744 236 839 b 385 869 376 849 385 858 b 385 871 385 869 385 871 l 388 876 l 453 1019 b 432 1076 463 1042 453 1067 l 396 1093 b 339 1072 375 1103 349 1094 l 289 963 b 35 506 151 921 35 788 b 414 -1 35 228 125 0 z m 76 506 b 269 913 76 747 161 867 b 290 875 269 897 278 882 b 118 504 183 835 118 719 b 414 82 118 269 179 83 l 417 82 b 438 61 428 82 438 72 b 417 40 438 50 428 40 l 415 40 b 76 506 161 40 76 210 z m 251 503 b 294 460 251 479 271 460 l 647 460 b 690 503 671 460 690 479 l 690 542 b 647 585 690 565 671 585 l 294 585 b 251 542 271 585 251 565 z m 293 522 b 314 543 293 533 303 543 l 628 543 b 649 522 639 543 649 533 b 628 501 649 511 639 501 l 314 501 b 293 522 303 501 293 511 z m 321 928 b 364 933 335 931 349 932 l 368 933 l 358 911 b 331 901 354 901 340 897 b 321 928 321 906 317 918 z m 340 972 l 368 1038 b 396 1047 372 1047 386 1051 b 406 1019 406 1043 410 1029 l 382 965 b 363 975 378 971 371 975 b 340 972 356 975 347 974 z m 426 890 b 469 849 426 867 444 850 b 568 813 508 846 542 833 b 636 818 592 794 619 794 l 660 851 b 656 904 672 869 671 890 b 481 974 611 943 553 968 b 426 932 449 976 426 956 z m 468 910 l 468 913 b 492 931 468 924 479 933 b 613 886 540 925 581 908 b 614 858 621 879 621 868 b 583 854 607 847 594 846 b 486 890 557 872 524 885 b 468 910 475 892 468 900 z m 521 43 b 564 0 521 19 540 0 l 603 0 b 646 43 626 0 646 19 l 646 397 b 625 418 646 408 636 418 l 542 418 b 521 397 531 418 521 408 b 542 376 521 385 531 376 l 583 376 b 604 356 594 376 604 367 l 604 63 b 583 42 604 51 594 42 b 563 63 572 42 563 51 l 563 333 b 542 354 563 344 553 354 b 521 333 531 354 521 344 z "},"ġ":{"ha":718,"x_min":0,"x_max":0,"o":"m 414 -1 l 436 -1 b 479 42 460 -1 479 18 l 479 81 b 436 124 479 104 460 124 l 415 124 b 160 504 219 124 160 263 b 364 849 160 744 236 839 b 385 869 376 849 385 858 b 363 889 385 881 375 890 b 118 504 213 879 118 764 b 414 82 118 269 179 83 l 417 82 b 438 61 428 82 438 72 b 417 40 438 50 428 40 l 415 40 b 76 506 161 40 76 210 b 364 933 76 814 215 924 b 385 954 376 933 385 943 b 363 975 385 965 375 975 b 35 506 197 964 35 838 b 414 -1 35 228 125 0 z m 251 503 b 294 460 251 479 271 460 l 647 460 b 690 503 671 460 690 479 l 690 542 b 647 585 690 565 671 585 l 294 585 b 251 542 271 585 251 565 z m 293 522 b 314 543 293 533 303 543 l 628 543 b 649 522 639 543 649 533 b 628 501 649 511 639 501 l 314 501 b 293 522 303 501 293 511 z m 301 1133 b 344 1090 301 1110 321 1090 l 383 1090 b 426 1133 407 1090 426 1110 l 426 1225 b 406 1246 426 1236 417 1246 l 322 1246 b 301 1225 311 1246 301 1236 b 322 1204 301 1213 311 1204 l 364 1204 b 385 1183 375 1204 385 1194 l 385 1153 b 364 1132 385 1142 375 1132 b 343 1153 353 1132 343 1142 l 343 1161 b 322 1182 343 1172 333 1182 b 301 1161 311 1182 301 1172 z m 426 890 b 469 849 426 867 444 850 b 568 813 508 846 542 833 b 636 818 592 794 619 794 l 660 851 b 656 904 672 869 671 890 b 481 974 611 943 553 968 b 426 932 449 976 426 956 z m 468 910 l 468 913 b 492 931 468 924 479 933 b 613 886 540 925 581 908 b 614 858 621 879 621 868 b 583 854 607 847 594 846 b 486 890 557 872 524 885 b 468 910 475 892 468 900 z m 521 43 b 564 0 521 19 540 0 l 603 0 b 646 43 626 0 646 19 l 646 397 b 625 418 646 408 636 418 l 542 418 b 521 397 531 418 521 408 b 542 376 521 385 531 376 l 583 376 b 604 356 594 376 604 367 l 604 63 b 583 42 604 51 594 42 b 563 63 572 42 563 51 l 563 333 b 542 354 563 344 553 354 b 521 333 531 354 521 344 z "},"h":{"ha":671,"x_min":0,"x_max":0,"o":"m 554 0 l 593 0 b 636 43 617 0 636 19 l 636 954 b 615 975 636 965 626 975 l 532 975 b 511 954 521 975 511 965 b 532 933 511 942 521 933 l 574 933 b 594 913 585 933 594 924 l 594 63 b 574 42 594 51 585 42 b 553 63 563 42 553 51 l 553 454 b 510 497 553 478 533 497 l 250 497 b 229 518 239 497 229 507 b 250 539 229 529 239 539 l 510 539 b 553 582 533 539 553 558 l 553 890 b 532 911 553 901 543 911 b 511 890 521 911 511 901 l 511 601 b 490 581 511 590 501 581 l 231 581 b 188 538 207 581 188 561 l 188 499 b 231 456 188 475 207 456 l 490 456 b 511 435 501 456 511 446 l 511 43 b 554 0 511 19 531 0 z m 35 43 b 78 0 35 19 54 0 l 117 0 b 160 43 140 0 160 19 l 160 954 b 139 975 160 965 150 975 l 56 975 b 35 954 44 975 35 965 b 56 933 35 942 44 933 l 97 933 b 118 913 108 933 118 924 l 118 63 b 97 42 118 51 108 42 b 76 63 86 42 76 51 l 76 890 b 56 911 76 901 67 911 b 35 890 44 911 35 901 z "},"i":{"ha":194,"x_min":0,"x_max":0,"o":"m 78 0 l 117 0 b 160 43 140 0 160 19 l 160 954 b 139 975 160 965 150 975 l 56 975 b 35 954 44 975 35 965 b 56 933 35 942 44 933 l 97 933 b 118 913 108 933 118 924 l 118 63 b 97 42 118 51 108 42 b 76 63 86 42 76 51 l 76 890 b 56 911 76 901 67 911 b 35 890 44 911 35 901 l 35 43 b 78 0 35 19 54 0 z "},"ı":{"ha":194,"x_min":0,"x_max":0,"o":"m 78 0 l 117 0 b 160 43 140 0 160 19 l 160 954 b 139 975 160 965 150 975 l 56 975 b 35 954 44 975 35 965 b 56 933 35 942 44 933 l 97 933 b 118 913 108 933 118 924 l 118 63 b 97 42 118 51 108 42 b 76 63 86 42 76 51 l 76 890 b 56 911 76 901 67 911 b 35 890 44 911 35 901 l 35 43 b 78 0 35 19 54 0 z "},"í":{"ha":194,"x_min":0,"x_max":0,"o":"m 78 0 l 117 0 b 160 43 140 0 160 19 l 160 954 b 139 975 160 965 150 975 l 56 975 b 35 954 44 975 35 965 b 56 933 35 942 44 933 l 97 933 b 118 913 108 933 118 924 l 118 63 b 97 42 118 51 108 42 b 76 63 86 42 76 51 l 76 890 b 56 911 76 901 67 911 b 35 890 44 911 35 901 l 35 43 b 78 0 35 19 54 0 z m 7 1167 b 28 1110 -3 1144 7 1119 l 64 1093 b 121 1114 85 1083 111 1092 l 186 1257 b 165 1314 196 1279 186 1304 l 129 1331 b 72 1310 108 1340 82 1332 z m 54 1167 l 101 1275 b 129 1285 106 1285 119 1289 b 139 1257 139 1281 143 1267 l 92 1149 b 64 1139 88 1139 74 1135 b 54 1167 54 1143 50 1157 z "},"î":{"ha":194,"x_min":0,"x_max":0,"o":"m 78 0 l 117 0 b 160 43 140 0 160 19 l 160 954 b 139 975 160 965 150 975 l 56 975 b 35 954 44 975 35 965 b 56 933 35 942 44 933 l 97 933 b 118 913 108 933 118 924 l 118 63 b 97 42 118 51 108 42 b 76 63 86 42 76 51 l 76 890 b 56 911 76 901 67 911 b 35 890 44 911 35 901 l 35 43 b 78 0 35 19 54 0 z m -51 1143 b -36 1118 -54 1133 -47 1121 l 44 1096 b 69 1111 56 1093 67 1100 l 99 1217 l 126 1129 b 178 1099 133 1108 156 1093 l 217 1108 b 246 1161 239 1114 251 1140 l 203 1310 b 164 1339 197 1328 182 1339 l 32 1339 b -7 1310 14 1339 -3 1326 l -35 1206 b -19 1179 -37 1193 -31 1182 b 6 1194 -10 1176 3 1183 l 31 1283 b 50 1297 33 1293 42 1297 l 147 1297 b 167 1283 156 1297 164 1293 l 201 1169 b 186 1144 204 1160 197 1147 b 161 1158 176 1142 164 1149 l 136 1240 b 117 1256 133 1250 125 1256 l 82 1256 b 63 1242 74 1256 65 1251 l 40 1163 b 14 1147 38 1150 25 1144 l -26 1158 b -51 1143 -36 1161 -49 1156 z "},"ï":{"ha":194,"x_min":0,"x_max":0,"o":"m 78 0 l 117 0 b 160 43 140 0 160 19 l 160 954 b 139 975 160 965 150 975 l 56 975 b 35 954 44 975 35 965 b 56 933 35 942 44 933 l 97 933 b 118 913 108 933 118 924 l 118 63 b 97 42 118 51 108 42 b 76 63 86 42 76 51 l 76 890 b 56 911 76 901 67 911 b 35 890 44 911 35 901 l 35 43 b 78 0 35 19 54 0 z m -49 1144 b -6 1101 -49 1121 -29 1101 l 33 1101 b 76 1144 57 1101 76 1121 l 76 1236 b 56 1257 76 1247 67 1257 l -28 1257 b -49 1236 -39 1257 -49 1247 b -28 1215 -49 1224 -39 1215 l 14 1215 b 35 1194 25 1215 35 1206 l 35 1164 b 14 1143 35 1153 25 1143 b -7 1164 3 1143 -7 1153 l -7 1172 b -28 1193 -7 1183 -17 1193 b -49 1172 -39 1193 -49 1183 z m 118 1144 b 161 1101 118 1121 138 1101 l 200 1101 b 243 1144 224 1101 243 1121 l 243 1236 b 222 1257 243 1247 233 1257 l 139 1257 b 118 1236 128 1257 118 1247 b 139 1215 118 1224 128 1215 l 181 1215 b 201 1194 192 1215 201 1206 l 201 1164 b 181 1143 201 1153 192 1143 b 160 1164 169 1143 160 1153 l 160 1172 b 139 1193 160 1183 150 1193 b 118 1172 128 1193 118 1183 z "},"ì":{"ha":194,"x_min":0,"x_max":0,"o":"m 78 0 l 117 0 b 160 43 140 0 160 19 l 160 954 b 139 975 160 965 150 975 l 56 975 b 35 954 44 975 35 965 b 56 933 35 942 44 933 l 97 933 b 118 913 108 933 118 924 l 118 63 b 97 42 118 51 108 42 b 76 63 86 42 76 51 l 76 890 b 56 911 76 901 67 911 b 35 890 44 911 35 901 l 35 43 b 78 0 35 19 54 0 z m 7 1257 l 72 1114 b 129 1093 82 1092 108 1083 l 165 1110 b 186 1167 186 1119 196 1144 l 121 1310 b 64 1331 111 1332 85 1340 l 28 1314 b 7 1257 7 1304 -3 1279 z m 54 1257 b 64 1285 50 1267 54 1281 b 92 1275 74 1289 88 1285 l 139 1167 b 129 1139 143 1157 139 1143 b 101 1149 119 1135 106 1139 z "},"ĳ":{"ha":550,"x_min":0,"x_max":0,"o":"m 78 0 l 117 0 b 160 43 140 0 160 19 l 160 954 b 139 975 160 965 150 975 l 56 975 b 35 954 44 975 35 965 b 56 933 35 942 44 933 l 97 933 b 118 913 108 933 118 924 l 118 63 b 97 42 118 51 108 42 b 76 63 86 42 76 51 l 76 890 b 56 911 76 901 67 911 b 35 890 44 911 35 901 l 35 43 b 78 0 35 19 54 0 z m 222 44 b 268 1 222 19 242 0 b 515 308 485 19 515 168 l 515 313 l 515 954 b 494 975 515 965 506 975 l 411 975 b 390 954 400 975 390 965 b 411 933 390 942 400 933 l 453 933 b 474 913 464 933 474 924 l 474 313 b 286 43 474 128 399 51 b 264 64 274 42 264 51 l 264 67 b 285 88 264 78 272 88 b 432 336 378 94 432 144 l 432 339 l 432 890 b 411 911 432 901 422 911 b 390 890 400 911 390 901 l 390 339 b 264 128 390 182 365 136 b 222 86 239 126 222 110 z "},"ī":{"ha":194,"x_min":0,"x_max":0,"o":"m 78 0 l 117 0 b 160 43 140 0 160 19 l 160 954 b 139 975 160 965 150 975 l 56 975 b 35 954 44 975 35 965 b 56 933 35 942 44 933 l 97 933 b 118 913 108 933 118 924 l 118 63 b 97 42 118 51 108 42 b 76 63 86 42 76 51 l 76 890 b 56 911 76 901 67 911 b 35 890 44 911 35 901 l 35 43 b 78 0 35 19 54 0 z m -67 1151 b -24 1108 -67 1128 -47 1108 l 218 1108 b 261 1151 242 1108 261 1128 l 261 1190 b 218 1233 261 1214 242 1233 l -24 1233 b -67 1190 -47 1233 -67 1214 z m -25 1171 b -4 1192 -25 1182 -15 1192 l 199 1192 b 219 1171 210 1192 219 1182 b 199 1150 219 1160 210 1150 l -4 1150 b -25 1171 -15 1150 -25 1160 z "},"į":{"ha":194,"x_min":0,"x_max":0,"o":"m 78 1101 l 117 1101 b 160 1144 140 1101 160 1121 l 160 1236 b 139 1257 160 1247 150 1257 l 56 1257 b 35 1236 44 1257 35 1247 b 56 1215 35 1224 44 1215 l 97 1215 b 118 1194 108 1215 118 1206 l 118 1164 b 97 1143 118 1153 108 1143 b 76 1164 86 1143 76 1153 l 76 1172 b 56 1193 76 1183 67 1193 b 35 1172 44 1193 35 1183 l 35 1144 b 78 1101 35 1121 54 1101 z m -57 -187 b 132 -372 -57 -281 8 -372 b 175 -331 157 -372 175 -354 l 175 -289 b 132 -246 175 -265 157 -246 b 68 -189 83 -246 68 -228 b 154 -112 68 -137 100 -112 b 174 -90 165 -112 174 -101 b 151 -71 174 -79 164 -71 b 26 -189 83 -71 26 -112 b 115 -287 26 -247 60 -287 b 133 -307 126 -287 133 -296 b 110 -328 133 -319 124 -328 b -15 -187 42 -328 -15 -261 b 154 -26 -15 -56 86 -26 b 174 -6 165 -26 174 -17 b 151 14 174 6 164 14 l 149 14 b 160 43 156 22 160 32 l 160 954 b 139 975 160 965 150 975 l 56 975 b 35 954 44 975 35 965 b 56 933 35 942 44 933 l 97 933 b 118 913 108 933 118 924 l 118 63 b 97 42 118 51 108 42 b 76 63 86 42 76 51 l 76 890 b 56 911 76 901 67 911 b 35 890 44 911 35 901 l 35 43 b 65 1 35 24 47 7 b -57 -187 1 -18 -57 -69 z "},"ĩ":{"ha":194,"x_min":0,"x_max":0,"o":"m 78 0 l 117 0 b 160 43 140 0 160 19 l 160 954 b 139 975 160 965 150 975 l 56 975 b 35 954 44 975 35 965 b 56 933 35 942 44 933 l 97 933 b 118 913 108 933 118 924 l 118 63 b 97 42 118 51 108 42 b 76 63 86 42 76 51 l 76 890 b 56 911 76 901 67 911 b 35 890 44 911 35 901 l 35 43 b 78 0 35 19 54 0 z m -96 1174 b -85 1146 -100 1161 -94 1151 l -36 1128 b -8 1142 -25 1124 -12 1131 b 22 1178 4 1178 7 1178 b 165 1103 63 1178 83 1103 b 292 1222 249 1103 289 1157 b 271 1243 292 1235 282 1243 l 221 1243 b 199 1221 210 1243 200 1235 b 171 1197 197 1200 192 1197 b 22 1269 131 1197 103 1269 b -96 1174 -29 1269 -69 1239 z m -54 1188 b 22 1240 -35 1222 -10 1240 b 171 1164 90 1240 117 1164 b 228 1200 203 1164 219 1178 b 242 1213 229 1207 235 1213 b 256 1193 251 1213 258 1201 b 165 1135 244 1157 213 1135 b 22 1208 100 1135 76 1208 b -28 1175 -1 1208 -12 1200 b -49 1165 -32 1165 -40 1161 b -54 1188 -57 1169 -60 1178 z "},"j":{"ha":356,"x_min":0,"x_max":0,"o":"m 74 1 b 321 308 290 19 321 168 l 321 313 l 321 954 b 300 975 321 965 311 975 l 217 975 b 196 954 206 975 196 965 b 217 933 196 942 206 933 l 258 933 b 279 913 269 933 279 924 l 279 313 b 92 43 279 128 204 51 b 69 64 79 42 69 51 l 69 67 b 90 88 69 78 78 88 b 238 336 183 94 238 144 l 238 339 l 238 890 b 217 911 238 901 228 911 b 196 890 206 911 196 901 l 196 339 b 69 128 196 182 171 136 b 28 86 44 126 28 110 l 28 44 b 74 1 28 19 47 0 z "},"ȷ":{"ha":356,"x_min":0,"x_max":0,"o":"m 74 1 b 321 308 290 19 321 168 l 321 313 l 321 954 b 300 975 321 965 311 975 l 217 975 b 196 954 206 975 196 965 b 217 933 196 942 206 933 l 258 933 b 279 913 269 933 279 924 l 279 313 b 92 43 279 128 204 51 b 69 64 79 42 69 51 l 69 67 b 90 88 69 78 78 88 b 238 336 183 94 238 144 l 238 339 l 238 890 b 217 911 238 901 228 911 b 196 890 206 911 196 901 l 196 339 b 69 128 196 182 171 136 b 28 86 44 126 28 110 l 28 44 b 74 1 28 19 47 0 z "},"k":{"ha":664,"x_min":0,"x_max":0,"o":"m 581 7 l 615 26 b 631 86 636 38 643 65 l 313 633 b 254 650 301 654 275 661 l 219 631 b 204 571 200 619 193 592 l 522 24 b 581 7 535 3 561 -4 z m 35 43 b 78 0 35 19 54 0 l 117 0 b 160 43 140 0 160 19 l 160 954 b 139 975 160 965 150 975 l 56 975 b 35 954 44 975 35 965 b 56 933 35 942 44 933 l 97 933 b 118 913 108 933 118 924 l 118 63 b 97 42 118 51 108 42 b 76 63 86 42 76 51 l 76 890 b 56 911 76 901 67 911 b 35 890 44 911 35 901 z m 251 575 b 258 604 246 585 250 599 b 288 596 268 610 282 606 l 585 82 b 576 53 590 72 586 58 b 549 61 568 47 554 51 z m 371 664 b 392 607 361 642 371 617 l 428 590 b 485 611 449 581 475 589 l 621 901 b 600 958 631 924 621 949 l 564 975 b 507 954 543 985 517 976 z m 418 664 l 536 919 b 564 929 540 929 554 933 b 574 901 574 925 578 911 l 456 646 b 428 636 451 636 438 632 b 418 664 418 640 414 654 z "},"ķ":{"ha":664,"x_min":0,"x_max":0,"o":"m 581 7 l 615 26 b 631 86 636 38 643 65 l 313 633 b 254 650 301 654 275 661 l 219 631 b 204 571 200 619 193 592 l 522 24 b 581 7 535 3 561 -4 z m 35 43 b 78 0 35 19 54 0 l 117 0 b 160 43 140 0 160 19 l 160 954 b 139 975 160 965 150 975 l 56 975 b 35 954 44 975 35 965 b 56 933 35 942 44 933 l 97 933 b 118 913 108 933 118 924 l 118 63 b 97 42 118 51 108 42 b 76 63 86 42 76 51 l 76 890 b 56 911 76 901 67 911 b 35 890 44 911 35 901 z m 242 -212 b 263 -269 232 -235 242 -260 l 299 -286 b 356 -265 319 -296 346 -287 l 421 -122 b 400 -65 431 -100 421 -75 l 364 -49 b 307 -69 343 -39 317 -47 z m 251 575 b 258 604 246 585 250 599 b 288 596 268 610 282 606 l 585 82 b 576 53 590 72 586 58 b 549 61 568 47 554 51 z m 289 -212 l 336 -104 b 364 -94 340 -94 354 -90 b 374 -122 374 -99 378 -112 l 326 -231 b 299 -240 322 -240 308 -244 b 289 -212 289 -236 285 -222 z m 371 664 b 392 607 361 642 371 617 l 428 590 b 485 611 449 581 475 589 l 621 901 b 600 958 631 924 621 949 l 564 975 b 507 954 543 985 517 976 z m 418 664 l 536 919 b 564 929 540 929 554 933 b 574 901 574 925 578 911 l 456 646 b 428 636 451 636 438 632 b 418 664 418 640 414 654 z "},"l":{"ha":617,"x_min":0,"x_max":0,"o":"m 78 0 l 546 0 b 589 43 569 0 589 19 l 589 82 b 546 125 589 106 569 125 l 181 125 b 160 146 169 125 160 135 l 160 954 b 139 975 160 965 150 975 l 56 975 b 35 954 44 975 35 965 b 56 933 35 942 44 933 l 97 933 b 118 913 108 933 118 924 l 118 126 b 161 83 118 103 138 83 l 526 83 b 547 63 538 83 547 74 b 526 42 547 51 538 42 l 97 42 b 76 63 86 42 76 51 l 76 890 b 56 911 76 901 67 911 b 35 890 44 911 35 901 l 35 43 b 78 0 35 19 54 0 z "},"ĺ":{"ha":617,"x_min":0,"x_max":0,"o":"m 78 0 l 546 0 b 589 43 569 0 589 19 l 589 82 b 546 125 589 106 569 125 l 181 125 b 160 146 169 125 160 135 l 160 954 b 139 975 160 965 150 975 l 56 975 b 35 954 44 975 35 965 b 56 933 35 942 44 933 l 97 933 b 118 913 108 933 118 924 l 118 126 b 161 83 118 103 138 83 l 526 83 b 547 63 538 83 547 74 b 526 42 547 51 538 42 l 97 42 b 76 63 86 42 76 51 l 76 890 b 56 911 76 901 67 911 b 35 890 44 911 35 901 l 35 43 b 78 0 35 19 54 0 z m 160 1161 b 181 1104 150 1139 160 1114 l 217 1088 b 274 1108 238 1078 264 1086 l 339 1251 b 318 1308 349 1274 339 1299 l 282 1325 b 225 1304 261 1335 235 1326 z m 207 1161 l 254 1269 b 282 1279 258 1279 272 1283 b 292 1251 292 1275 296 1261 l 244 1143 b 217 1133 240 1133 226 1129 b 207 1161 207 1138 203 1151 z "},"ľ":{"ha":617,"x_min":0,"x_max":0,"o":"m 78 0 l 546 0 b 589 43 569 0 589 19 l 589 82 b 546 125 589 106 569 125 l 181 125 b 160 146 169 125 160 135 l 160 954 b 139 975 160 965 150 975 l 56 975 b 35 954 44 975 35 965 b 56 933 35 942 44 933 l 97 933 b 118 913 108 933 118 924 l 118 126 b 161 83 118 103 138 83 l 526 83 b 547 63 538 83 547 74 b 526 42 547 51 538 42 l 97 42 b 76 63 86 42 76 51 l 76 890 b 56 911 76 901 67 911 b 35 890 44 911 35 901 l 35 43 b 78 0 35 19 54 0 z m 251 717 b 272 660 242 694 251 669 l 308 643 b 365 664 329 633 356 642 l 431 807 b 410 864 440 829 431 854 l 374 881 b 317 860 353 890 326 882 z m 299 717 l 346 825 b 374 835 350 835 364 839 b 383 807 383 831 388 817 l 336 699 b 308 689 332 689 318 685 b 299 717 299 693 294 707 z "},"ļ":{"ha":617,"x_min":0,"x_max":0,"o":"m 78 0 l 546 0 b 589 43 569 0 589 19 l 589 82 b 546 125 589 106 569 125 l 181 125 b 160 146 169 125 160 135 l 160 954 b 139 975 160 965 150 975 l 56 975 b 35 954 44 975 35 965 b 56 933 35 942 44 933 l 97 933 b 118 913 108 933 118 924 l 118 126 b 161 83 118 103 138 83 l 526 83 b 547 63 538 83 547 74 b 526 42 547 51 538 42 l 97 42 b 76 63 86 42 76 51 l 76 890 b 56 911 76 901 67 911 b 35 890 44 911 35 901 l 35 43 b 78 0 35 19 54 0 z m 218 -212 b 239 -269 208 -235 218 -260 l 275 -286 b 332 -265 296 -296 322 -287 l 397 -122 b 376 -65 407 -100 397 -75 l 340 -49 b 283 -69 319 -39 293 -47 z m 265 -212 l 313 -104 b 340 -94 317 -94 331 -90 b 350 -122 350 -99 354 -112 l 303 -231 b 275 -240 299 -240 285 -244 b 265 -212 265 -236 261 -222 z "},"ł":{"ha":617,"x_min":0,"x_max":0,"o":"m 78 0 l 546 0 b 589 43 569 0 589 19 l 589 82 b 546 125 589 106 569 125 l 181 125 b 160 146 169 125 160 135 l 160 457 l 218 461 b 258 508 242 463 261 485 l 254 547 b 208 586 251 571 232 588 l 160 583 l 160 954 b 139 975 160 965 150 975 l 56 975 b 35 954 44 975 35 965 b 56 933 35 942 44 933 l 97 933 b 118 913 108 933 118 924 l 118 83 l 526 83 b 547 63 538 83 547 74 b 526 42 547 51 538 42 l 97 42 b 76 63 86 42 76 51 l 76 890 b 56 911 76 901 67 911 b 35 890 44 911 35 901 l 35 572 l -31 567 b -71 519 -54 565 -74 543 l -67 481 b -21 442 -64 457 -44 440 l 35 446 l 35 43 b 78 0 35 19 54 0 z m -28 504 b -8 526 -28 515 -19 525 l 35 529 l 35 488 l -4 485 b -28 504 -15 483 -26 493 z m 160 499 l 160 540 l 192 543 b 215 524 203 544 214 535 b 196 501 215 513 207 503 z "}}}
